<svg xmlns="http://www.w3.org/2000/svg" viewBox="0 0 962.7 677.64"><title>hero</title><g id="shadow"><g style="opacity:0.4"><path d="M522,580.12c-28.19.08-56.38.76-84.52,3.89-10.62,1.18-21,3.78-31.64,4.82-21.24,2.09-42.11,6-63.43,7.8-17.16,1.45-34.4,2.3-51.52,4.14a181.41,181.41,0,0,1-49.74-1.52c-11.79-2.11-23.64-3.3-35.23-6.68-13-3.79-27-6.5-40.56-6.4-19.27.13-38,.15-56.47,6.84-6.47,2.35-14.39,6.21-19.31,11.14C78.29,615.43,76.77,643.58,88,655.28c18.92,19.69,59.31,27.42,85.83,27.79,29.06.39,57.29-1.76,86.4-3,27-1.18,54-2.86,81.11-2.8,55.33.12,110.67,0,165.89-3.69,51.89-3.48,103.91-2.28,155.91-2.28,53.33,0,106.29.41,159.24,7.5,23.06,3.09,46.56,4.17,69.75,6.33,20.76,1.94,40.71,0,61.39-1.82a146.59,146.59,0,0,0,50.39-13.51c12.49-6,34.75-24.5,38.58-38.75,10.74-39.93-151.3-39-176.18-38.88-27.83.1-55.88,1-83.69,0-11.7-.44-23.23-2.73-34.64-5.24s-22.83-1.86-34.37-2.91c-48.09-4.37-96.29-3.73-144.53-3.73C553.38,580.21,537.67,580.07,522,580.12Z" transform="translate(-80.3 -8.27)" style="fill:#f1f2f2"/></g></g><g id="object"><path d="M365.33,282.09a5.77,5.77,0,0,0-.83.15c-2.54.72-3.07,3.31-5.06,4.54-.89.55-4,.1-3.67,1.81.13.63.36,2.78.73,4.92-.35,1.77-.63,3.56-1.15,5.3-1.31,4.38-9.25,12.09-4.69,16.41a10.59,10.59,0,0,0,2.92,2.16,9,9,0,0,0,2.91.56c.77.05,2,.32,2.55-.18s.94-2.49,1.23-3.25c.83-2.17,1.65-4.35,2.47-6.52s2-4.57,4.2-5a10.24,10.24,0,0,0,1.47-.24,4,4,0,0,0,1.38-1,26.41,26.41,0,0,0,4-4.74c2-3.11-.28-8.43-1.34-11.51a5.52,5.52,0,0,0-1.14-2.12,5.77,5.77,0,0,0-3.66-1.25A11.47,11.47,0,0,0,365.33,282.09Z" transform="translate(-80.3 -8.27)" style="fill:#efbbbb"/><path d="M335.3,357.89a142,142,0,0,0,25.87-28.47c2.82-4.1,8.22-9.94,5.81-15.19s-13.92-8.23-19.07-9.37c-8.94,15-24.32,41.92-45.65,26.79-5.57-3.95-9.65-10.7-16.39-11.8a13.3,13.3,0,0,0-11.59,4.43c-11.37,12.45-.59,27.26,9.24,36.52,10.4,9.79,27.11,11.75,39.89,5.35A58,58,0,0,0,334,359Z" transform="translate(-80.3 -8.27)" style="fill:#d67086"/><ellipse cx="189.1" cy="98.95" rx="71.38" ry="71.66" style="fill:#8cabef"/><path d="M304.62,122.35a14,14,0,0,0-12.62,8l-30.16-4.09a20,20,0,0,0-6.45-13.86l17.05-24.63a16.66,16.66,0,1,0-6.5-4.93L248.4,108.19a20.07,20.07,0,1,0,12,26.38l30.42,4.12a14,14,0,1,0,13.76-16.34Z" transform="translate(-80.3 -8.27)" style="fill:#fff"/><path d="M649.45,296.33a5.76,5.76,0,0,1,.81-.15c2.57-.24,4,1.92,6.22,2.34,1,.19,3.67-1.31,4,.35.11.62.66,2.66,1.08,4.74,1,1.49,1.83,3,2.92,4.42,2.75,3.53,12.71,7.74,10.08,13.29a10.13,10.13,0,0,1-1.88,3,9,9,0,0,1-2.46,1.54c-.68.32-1.7,1-2.39.74s-1.74-1.93-2.27-2.52L661,319c-1.49-1.66-3.4-3.47-5.59-3.07a14,14,0,0,1-1.43.3,3.88,3.88,0,0,1-1.59-.39A26.58,26.58,0,0,1,647,313c-2.93-2.12-2.73-7.78-2.85-11a5.43,5.43,0,0,1,.28-2.34,5.68,5.68,0,0,1,2.9-2.43A12.53,12.53,0,0,1,649.45,296.33Z" transform="translate(-80.3 -8.27)" style="fill:#efbbbb"/><path d="M705.05,358a32.2,32.2,0,0,1-8.42-1.41,28.25,28.25,0,0,1-6-3.23,136,136,0,0,1-31.22-28.38,50.53,50.53,0,0,1,14-14,218.39,218.39,0,0,0,29,19.15,26.09,26.09,0,0,0,6.51,2.82c3.32.8,6.8.36,10.19-.08l39.43-5.17c7.93-1,16.16-2.05,23.8.32,21.18,6.57,16,34.14-4.62,35.73C754.54,365.47,728.28,359.71,705.05,358Z" transform="translate(-80.3 -8.27)" style="fill:#8cabef"/><path d="M257.87,637.94l-.5,5.8-3.83,4.71s-1.1,7.07,1,8.31,34.73,5.12,34.73,5.12l3.36-5-2.69-5.54-17.25-7.89-5.93-6.58Z" transform="translate(-80.3 -8.27)" style="fill:#292949"/><path d="M292,625.42l-.5,5.8-3.77,4.71s-1.09,7.08,1,8.31,34.16,5.07,34.16,5.07l3.31-5-2.64-5.54-17-7.86-5.82-6.57Z" transform="translate(-80.3 -8.27)" style="fill:#292949"/><path d="M252.72,524.3c2.8,5.89,5.32,11.24,5.78,18.83s-.95,14.91-2,22.32c-3.66,25.63-3.3,51.64-2.94,77.53q13.41.59,26.81.56c1.52,0,3.24-.1,4.25-1.23s.9-2.85.74-4.37c-2.05-18.39-1.91-37-1.63-55.48.13-9.11.45-16.89,2.31-25.67s1.52-17.77.93-26.61c-1.47-21.66-5.86-42.92-7.07-64.57-.22-3.93-.59-8.15-3.13-11.15-3.06-3.61-8.29-4.35-13-4.34-13,0-27.67,2.05-28.32,17.82-.22,5.25,1.16,10.43,2.64,15.48a319.61,319.61,0,0,0,11.69,34.37C250.72,520.11,251.74,522.24,252.72,524.3Z" transform="translate(-80.3 -8.27)" style="fill:#292949"/><path d="M289,514.34c2.67,6,5.07,11.49,5.17,19.1s-1.78,14.84-3.28,22.19c-5.22,25.42-6.18,51.42-7.12,77.29q14.19,1.25,28.44,1.88c1.62.08,3.44.07,4.57-1s1.11-2.81,1-4.33c-1.53-23-3.25-46.05-1.63-69,.62-8.8,1.72-17.56,2.22-26.36,1-17.14-.41-34.3-2.5-51.32-1.29-10.49.53-32.94-10.08-39.29-4.8-2.87-10.87-3.3-16.49-2.44a21.49,21.49,0,0,0-8.14,2.72c-4.67,2.89-7.13,8.21-7.64,13.45s.7,10.48,2,15.59a304.51,304.51,0,0,0,10.65,34.91C287.06,510.06,288,512.24,289,514.34Z" transform="translate(-80.3 -8.27)" style="fill:#292949"/><path d="M248.53,318.19c-8.08,6-13.42,16.41-14.08,27.2-.8,13.08-4.21,26.24-5.34,39.38a381.25,381.25,0,0,0,1.42,78c.35,2.86.88,6.06,3.2,7.76,2.64,1.93,6.3,1.05,9.43.13a461.37,461.37,0,0,1,75.39-15.49c1.53-.18-5-61.61-5.67-67.23-2.38-20-6.12-40.82-18.88-57.21-5.39-6.92-12.18-13-20.41-16.06A25.7,25.7,0,0,0,248.53,318.19Z" transform="translate(-80.3 -8.27)" style="fill:#d67086"/><path d="M285.37,276.35c.33,5.28.59,10.92-2.05,15.5-2.25,3.91-6.26,6.43-9.34,9.73A13.83,13.83,0,0,0,270.2,309c-.35,2.73,1.12,5.06,1.1,7.79a1.61,1.61,0,0,1-.13.75,1.43,1.43,0,0,1-.61.53,8.5,8.5,0,0,1-4.1.7,39.78,39.78,0,0,1-5.12,0c-2.15-.26-1.71-.69-1.92-2.88a42.3,42.3,0,0,0-1.79-9.67c-2.18-6.44-6.81-11.94-8.12-18.69-1.45-7.46.72-14.78,3.08-21.88,1.06-3.18,2.23-6.41,4.4-9,4.79-5.59,16-7.37,21.37-1.66C284.73,261.82,284.8,267.38,285.37,276.35Z" transform="translate(-80.3 -8.27)" style="fill:#efbbbb"/><path d="M283.67,272.72a16.53,16.53,0,0,1,1.41,16.76c4-2.82,5.94-7.84,6.75-12.69a28.89,28.89,0,0,0,.33-8.09c-1-8.49-7.7-16.34-16.17-17.47-5.61-.75-5.59,6.4-3.4,9.88C275.46,265.68,280.51,268.39,283.67,272.72Z" transform="translate(-80.3 -8.27)" style="fill:#292949"/><path d="M268.83,246.79c-3.14-1.5-6.77-1.59-10.24-1.29-4.75.4-14.31,1.81-20,5.35-3.18-6.81-12.37-12-19.08-8.43-3.93,2.07-5.63,6.57-3.82,10.09a7.17,7.17,0,0,0,2,2.36,19.51,19.51,0,0,1,2.14,1.64c2.29,2.39.17,5.78-1.51,8.48a28.75,28.75,0,0,0-3.83,9.74,9,9,0,0,0,.37,5.72,5.87,5.87,0,0,0,5.36,3.2c4.26-.18,5.12-3.82,5.34-7.12a27.51,27.51,0,0,1,2.62-10.68c.64-1.3,1.5-2.67,2.89-3a3.21,3.21,0,0,1,.81-.1,22.88,22.88,0,0,0-1,9.93,41.86,41.86,0,0,0,7.9,19.58,33.23,33.23,0,0,0,17.23,12c.49-4.34-4.09-7.62-4.92-11.91a9.77,9.77,0,0,1,1.48-6.77,29.28,29.28,0,0,1,4.56-5.39l8.62-8.66a43.8,43.8,0,0,0,6.46-7.56C275.82,258.15,275.65,250.05,268.83,246.79Z" transform="translate(-80.3 -8.27)" style="fill:#292949"/><circle cx="435.07" cy="192.12" r="169.21" style="fill:#353a85"/><path d="M651.18,141.89A149.94,149.94,0,0,0,619.6,94.12a146.85,146.85,0,0,0-46.85-32.2,145.19,145.19,0,0,0-114.76,0,146.85,146.85,0,0,0-46.85,32.2,149.94,149.94,0,0,0-31.58,47.77,153.43,153.43,0,0,0,0,117,149.94,149.94,0,0,0,31.58,47.77A146.85,146.85,0,0,0,458,338.86a145.19,145.19,0,0,0,114.76,0,146.85,146.85,0,0,0,46.85-32.2,149.94,149.94,0,0,0,31.58-47.77,153.43,153.43,0,0,0,0-117Zm-3.24,58.5a138.35,138.35,0,0,1-3.82,32.39h-44.3a173.92,173.92,0,0,0,4-37,167.68,167.68,0,0,0-3.54-34.46h42.06A138.05,138.05,0,0,1,647.94,200.39Zm-38.83-95.57a135.13,135.13,0,0,1,27.77,41.35H596.33q-2.22-7.12-5.1-14a174.54,174.54,0,0,0-27.57-45,192.23,192.23,0,0,0-17.5-18.24A131.08,131.08,0,0,1,609.11,104.82ZM522.79,69.08A171.94,171.94,0,0,1,552.38,97,159.27,159.27,0,0,1,577.57,138q1.68,4,3.11,8.14H522.79Zm62.27,92.22A151.72,151.72,0,0,1,589,195.76a158.32,158.32,0,0,1-4.39,37H522.79V161.3ZM443.73,195.76a151.72,151.72,0,0,1,3.91-34.46H508v71.48H448.12A158.32,158.32,0,0,1,443.73,195.76ZM508,70.56v75.61H452q1.38-3.94,3-7.83a159.22,159.22,0,0,1,25-41A173.86,173.86,0,0,1,508,70.56Zm-86.32,34.26a131,131,0,0,1,65.58-36.55A191.09,191.09,0,0,0,469,87.11a174.82,174.82,0,0,0-27.57,45q-2.88,6.91-5.1,14H393.86A135.13,135.13,0,0,1,421.63,104.82ZM388.4,161.3h44a167.68,167.68,0,0,0-3.54,34.46,173.92,173.92,0,0,0,4,37H386.62a139.23,139.23,0,0,1,1.78-71.48ZM421.63,296a135.21,135.21,0,0,1-30.44-48h45.7q2,6.45,4.53,12.81a203.11,203.11,0,0,0,27.4,48,225.64,225.64,0,0,0,21.54,24.41A130.86,130.86,0,0,1,421.63,296Zm58.91,3.52a187.91,187.91,0,0,1-25.36-44.43c-.94-2.37-1.83-4.75-2.65-7.14H508v81.15A209.64,209.64,0,0,1,480.54,299.48Zm42.25,31.28V247.91h57.38c-.79,2.3-1.64,4.58-2.54,6.86a187.86,187.86,0,0,1-25.17,44.32A209.11,209.11,0,0,1,522.79,330.76ZM609.11,296a130.93,130.93,0,0,1-66.26,36.7,226.25,226.25,0,0,0,21-23.91,202.76,202.76,0,0,0,27.4-48q2.52-6.36,4.53-12.81h43.74A135.21,135.21,0,0,1,609.11,296Z" transform="translate(-80.3 -8.27)" style="fill:#fff"/><path d="M877.86,635.15a60,60,0,0,1-5.49,5,114.77,114.77,0,0,1-18.12-17.82c5-.59,5.94-4.89,11.65-.3C867.75,623.49,874.66,633,877.86,635.15Z" transform="translate(-80.3 -8.27)" style="fill:#efbbbb"/><path d="M868.35,637.5c-1.25,1-1.35,2.1-1.35,3.5a10,10,0,0,1,.1,2.44A5.51,5.51,0,0,1,866,645.5c-2.71,3.66-9.87,11.24-.54,12.23,8.49.9,15.49-10.85,19.32-17.83a2.68,2.68,0,0,0,.51-1.45,3.65,3.65,0,0,0-.6-1.61c-1.8-2.83-4-6.45-7.66-4.42-1.57.87-1.79,2.78-3.46,3.69C872.17,636.85,869.6,636.54,868.35,637.5Z" transform="translate(-80.3 -8.27)" style="fill:#292949"/><path d="M842.27,493.7c1.06,16.86-13.87,41.53-9.57,55.27,9,28.75,18.46,45.18,34.9,68,1.17,1.63,5.06,5.26,6.74,7.32-4,5.26-8.69,9-13.89,13.38-24.09-20.56-45.6-33.85-61.15-65.26-12.3-24.83-16.63-65.14-23-94.43-1.07-4.85-2.67-11.84.54-16.26,2.46-3.38,5.93-4.86,10.33-5.93,11.76-2.85,27.85-9,38.9-1.58C838.11,462.29,841.45,480.75,842.27,493.7Z" transform="translate(-80.3 -8.27)" style="fill:#5d66d3"/><path d="M732.29,650.75c-2.54.52-5.09.27-7.63.55-2-8.85-3.64-17.52-3.75-26.72,4.45,2.92,7.83.18,9.54,7.7C731,634.71,730.88,647,732.29,650.75Z" transform="translate(-80.3 -8.27)" style="fill:#efbbbb"/><path d="M723.05,646.58c-1.58,0-2.38.92-3.25,2a18.54,18.54,0,0,1-1.35,2.08,4.47,4.47,0,0,1-2.16.94c-4.45,1.1-14.86,2.68-8.07,9.29,6.16,6,19,1.09,26.36-2a2.74,2.74,0,0,0,1.34-.82,3.66,3.66,0,0,0,.53-1.66c.4-3.31.94-7.7-3.23-8.41-1.78-.3-3.27,1.08-5.17.74C726.49,648.45,724.64,646.57,723.05,646.58Z" transform="translate(-80.3 -8.27)" style="fill:#292949"/><path d="M798.57,517.64c-12.19,12.18-47.1,21.12-52.78,35.14-2.27,5.62-9.77,47.2-10.91,76.48-.08,2.09.88,7.54.9,10.31-6.51,1.86-12.35,1.47-19.36,2C711.29,607.8,706,548.72,706,548.72c6.94-29.5,40.42-63.33,59-89.91,3.08-4.41,6.68-10.44,12.2-11.18,4.24-.56,7.58.93,11.39,3.41,10.19,6.63,25.78,14,28,27.21C819.08,492.68,807.94,508.29,798.57,517.64Z" transform="translate(-80.3 -8.27)" style="fill:#5d66d3"/><path d="M793.33,334.64c11.21,9.84,20.52,23.8,27.08,39,11.62,27,16.06,57.86,20.34,88.12Q842.9,476.92,845,492c1.4,9.91,1.05,12.21-7.07,12.94-15,1.35-30.89,1.15-45.45-4.3-6.92-2.6-13.59-6.41-20.7-8-10.34-2.36-19.94,2.38-29.95,1.68,1-10.58,3.41-20.61,3.64-31.49a300.58,300.58,0,0,0-1.41-32.61c-1.67-18.91-2.54-37.91-4.09-56.77-1.12-13.51-3.93-24.09,5.29-35.5,5-6.22,14.21-17,22.53-16.86C776.65,321.23,787.06,329.14,793.33,334.64Z" transform="translate(-80.3 -8.27)" style="fill:#8cabef"/><path d="M744.34,316.94c3.07,2.91,6.94,4.8,10.44,7.18a23.76,23.76,0,0,1,7.37,8.33c1.48,2.49,3.27,4.19,6.66,3.35,6.38-1.59,2.64-5.88,2.54-10.06-.11-4.78,1.9-9.41,2.74-14.06,2.42-13.43-8.07-33.79-23.92-32.63C732.83,280.33,735,308.13,744.34,316.94Z" transform="translate(-80.3 -8.27)" style="fill:#efbbbb"/><path d="M765,293.81c1.74,1.12,2.7,3.55,1.74,5.37-.52,1-1.47,1.66-2.07,2.6-1.73,2.74.29,6.39,2.83,8.41s5.73,3.41,7.44,6.17c8.64-7,15.25-17.15,15.86-28.25a27.92,27.92,0,0,0-8.73-21.8c-7-6.37-14.09-6-23.2-6.79-3.76-.32-7.62-.63-11.22.46-3.28,1-6.13,3.1-9.38,4.2-5.38,1.81-12.22,1.15-15.69,5.65-2,2.61-2.12,6.3-1,9.4a22.8,22.8,0,0,0,5.59,8,65,65,0,0,0,10.2,8.45c-1.75-1.17,4.3-7.91,5.67-8.2,3.25-.7,8.4,3,11.74,3.79S762.14,292,765,293.81Z" transform="translate(-80.3 -8.27)" style="fill:#292949"/><polygon points="448.07 273.23 500.67 490.86 543.41 447.84 594.22 514.12 618.47 495.53 642.72 476.94 591.91 410.66 644.56 380.57 448.07 273.23" style="fill:#292949"/><path d="M726.4,481.79l-17.14-22.37L681.9,423.73l-4.8-6.27,44.11-25.21,6.59-3.77c1.57-.89.84-3.07-.43-3.77L707.79,374l-47-25.68L604.14,317.4l-49-26.77-16.26-8.88c-2.54-1.38-5-3-7.67-4.19a3.65,3.65,0,0,1-.34-.18,1.8,1.8,0,0,0-2.14.17,1.71,1.71,0,0,0-.93,2.09q2.63,10.85,5.24,21.68,6.3,26,12.59,52.07,7.58,31.37,15.16,62.74,6.56,27.14,13.12,54.26c2.13,8.83,4.24,17.67,6.4,26.5l.09.38a2.23,2.23,0,0,0,3.9,1.12l37.39-37.65,3.41-3.42,15.61,20.36,27.35,35.68,6.31,8.24a2.24,2.24,0,0,0,3.08.44l38.61-29.6,9.89-7.58A2.23,2.23,0,0,0,726.4,481.79Zm-41.69,29.15-8.16,6.26-15.8-20.61L633.4,460.91l-6.31-8.23a2.23,2.23,0,0,0-3.48-.05l-37.39,37.64-2.42,2.44-4.26-17.63q-6.3-26-12.59-52.06-7.58-31.36-15.16-62.74-6.56-27.13-13.12-54.26-2.7-11.17-5.39-22.34l15.41,8.41,47,25.68,56.65,31,49,26.76,16.26,8.88c1.39.76,2.81,1.67,4.26,2.5L679.1,411.29l-6.58,3.77a2.21,2.21,0,0,0-.45,3.07l17.15,22.37q13.68,17.85,27.35,35.69l5,6.5Z" transform="translate(-80.3 -8.27)" style="fill:#fff"/><path d="M648.66,455.28a5.08,5.08,0,0,1,.29-.77c1.11-2.33,3.68-2.42,5.2-4.14.67-.77.75-3.82,2.34-3.24.58.23,2.62.8,4.62,1.51,1.77-.05,3.54,0,5.29-.24,4.44-.55,13.17-6.94,16.58-1.84a10.27,10.27,0,0,1,1.61,3.16,8.55,8.55,0,0,1,.06,2.9c-.07.75,0,2-.59,2.43s-2.55.5-3.33.66L674,457c-2.19.43-4.72,1.14-5.51,3.22a10.67,10.67,0,0,1-.47,1.38,3.89,3.89,0,0,1-1.15,1.17,26.54,26.54,0,0,1-5.23,3.11c-3.32,1.42-8.08-1.65-10.87-3.18a5.39,5.39,0,0,1-1.86-1.44,5.74,5.74,0,0,1-.6-3.74A11.39,11.39,0,0,1,648.66,455.28Z" transform="translate(-80.3 -8.27)" style="fill:#efbbbb"/><path d="M730.07,439.18a32.22,32.22,0,0,1-5.52,6.51,29.08,29.08,0,0,1-5.86,3.49,136.29,136.29,0,0,1-40.37,12.23,50.33,50.33,0,0,1-4.87-19.19,218.93,218.93,0,0,0,31.33-15.06,26.93,26.93,0,0,0,5.76-4.14c2.39-2.45,3.79-5.66,5.15-8.8l15.81-36.49c3.18-7.34,6.53-14.92,12.48-20.26,16.51-14.81,37.52,3.77,28.3,22.3C761.93,400.57,743.51,420.15,730.07,439.18Z" transform="translate(-80.3 -8.27)" style="fill:#8cabef"/><circle cx="695.21" cy="88.32" r="88.32" style="fill:#5d66d3"/><path d="M837.39,85.2A28.77,28.77,0,0,0,805.08,72H805a13.09,13.09,0,0,0-8.28,8.45.76.76,0,0,1-1.46-.41A14.57,14.57,0,0,1,804,70.81c-4.33-14-17.5-23.87-32-22.77-14.24,1.09-25.81,12.18-28.57,26.41a18.52,18.52,0,0,1,3.51,1.23,24.05,24.05,0,0,1,10.55,10.13.76.76,0,0,1-1.3.79,25,25,0,0,0-2.87-4,20,20,0,0,0-15.87-7.08,25.64,25.64,0,0,0-16.88,8.25,26.12,26.12,0,0,0-6.65,19.58,25.38,25.38,0,0,0,9.74,17.87,30,30,0,0,0,17.47,6c4.16.17,8.34.23,12.5.29,11.92.16,23.84.21,35.75.24l15.71,0c4.3,0,8.82.35,13.06-.49,13.85-2.73,24.34-15.77,23-30.46A28.22,28.22,0,0,0,837.39,85.2Z" transform="translate(-80.3 -8.27)" style="fill:#fff"/><circle cx="407.84" cy="421.4" r="67.26" transform="translate(-258.82 403.55) rotate(-45)" style="fill:#5d66d3"/><path d="M455.71,398.23A14.71,14.71,0,0,0,443.12,391H408.25a14.8,14.8,0,0,0-10.78,4.56,15.26,15.26,0,0,0-3.94,10.39h-7.28c-4.49,0-9,0-13.45,0A14.8,14.8,0,0,0,362,410.46a15.36,15.36,0,0,0-4,10.77V430a33.4,33.4,0,0,0,.44,7.93,14.64,14.64,0,0,0,10.27,10.49,21.84,21.84,0,0,0,5.81.51h33.1A14.17,14.17,0,0,0,422,436.2h0v-.09c.09-.72.15-1.45.17-2.18h21a14.69,14.69,0,0,0,12.79-7.65c1.56-3,1.73-6,1.73-9.3v-9.33C457.65,404.35,457.42,401.19,455.71,398.23Zm-46.9,14.27.08,0c.39.08.77.17,1.14.28.19.05.37.12.55.18l.16,0,.12.07a13.73,13.73,0,0,1,1.25.69l.46.32.23.2a11.4,11.4,0,0,1,1.28,1.32v0l.07.12c.15.24.31.47.45.72s.57,1.23.45.87c.15.42.29.85.4,1.28l.12.6s.05.47.06.59c.11,2.08,0,4.19,0,6.27v1.3H408c-.35,0-.69,0-1-.06.17,0-.84-.16-1-.22s-.55-.17-.83-.26l-.11,0,0,0a17,17,0,0,1-1.61-.91l-.2-.13c-.16-.14-.32-.27-.47-.42a13.31,13.31,0,0,1-1-1l-.1-.1-.08-.14c-.09-.17-.21-.32-.31-.48s-.28-.5-.41-.75-.12-.24-.17-.36l0,0a11.8,11.8,0,0,1-.45-1.54c0-.1,0-.2-.05-.3s-.06-.53-.07-.6c0-.31,0-.63,0-.95,0-2.2,0-4.41,0-6.61h7.61C408.05,412.45,408.43,412.47,408.81,412.5Zm6.81,22.76v.17a17.05,17.05,0,0,1-.49,1.83,1.65,1.65,0,0,1-.07.2,6.54,6.54,0,0,1-.3.59c-.18.34-.39.66-.6,1,0,0-.3.4-.35.45s-.25.28-.38.41-.4.4-.62.59a2.75,2.75,0,0,1-.26.22l-.08.06a12.81,12.81,0,0,1-1.34.8l-.27.13-.54.2a14.11,14.11,0,0,1-1.42.37l-.15,0h-.16l-.9,0H372.59c-.35,0-.69,0-1-.05.16,0-.85-.17-1.05-.22l-.83-.26-.11,0,0,0c-.56-.27-1.08-.59-1.61-.91l-.2-.14-.47-.41a11.81,11.81,0,0,1-1-1l-.09-.1a1.16,1.16,0,0,1-.09-.14c-.09-.16-.21-.31-.3-.48s-.29-.49-.42-.74-.12-.24-.17-.36l0-.05a11.66,11.66,0,0,1-.45-1.53c0-.1,0-.2-.05-.3s-.06-.53-.07-.6c0-.32,0-.63,0-.95,0-2.57,0-5.14,0-7.7,0-2.06-.06-4.13,0-6.19,0-.2,0-.4,0-.6a1,1,0,0,0,0-.16s0-.09,0-.15a14.06,14.06,0,0,1,.36-1.42c0-.06.22-.56.2-.54l.19-.39c.12-.21.23-.42.36-.63s.44-.63.45-.67a9.48,9.48,0,0,1,.8-.88c.17-.16.34-.32.52-.47a2.67,2.67,0,0,1,.23-.18,11.05,11.05,0,0,1,1.09-.68l.55-.28a6,6,0,0,0,.65-.23,13.77,13.77,0,0,1,1.41-.34l.18,0c.3,0,.6,0,.91,0h20.92v.13h0V413h0v2a33.48,33.48,0,0,0,.44,7.94,14.63,14.63,0,0,0,10.27,10.48,21.84,21.84,0,0,0,5.81.51h5.63v.42C415.65,434.66,415.63,435,415.62,435.26Zm35.49-24.12v8.27c0,.3,0,.6,0,.9v.11l0,.06a14.48,14.48,0,0,1-.48,1.83c0,.05-.05.14-.07.2s-.19.4-.3.59-.39.66-.6,1c0,0-.3.4-.35.45l-.38.42c-.2.2-.41.4-.62.58l-.26.23-.08.05a12.89,12.89,0,0,1-1.34.81l-.27.13c-.06,0-.48.18-.54.2a14.06,14.06,0,0,1-1.42.36l-.16,0H444l-.9,0H422.2V422.6c0-3.31-.23-6.46-1.93-9.42a14.74,14.74,0,0,0-12.59-7.28h-7.62c0-.24,0-.48,0-.73s0-.4,0-.6a1,1,0,0,0,0-.16l0-.15c.12-.48.21-.95.37-1.41,0-.07.22-.56.2-.55l.19-.39c.11-.21.23-.42.35-.62s.45-.64.46-.68a8.25,8.25,0,0,1,.8-.87c.17-.17.34-.32.52-.48l.23-.18c.35-.24.71-.47,1.09-.68.18-.1.37-.19.55-.27-.05,0,.55-.2.65-.24a13.17,13.17,0,0,1,1.41-.34h.18c.3,0,.6,0,.91,0h35.08a10.88,10.88,0,0,1,1.14.06l.08,0c.39.08.77.16,1.14.27l.55.18.16,0,.12.07c.43.22.84.44,1.25.7.05,0,.39.28.46.31l.23.2a11.49,11.49,0,0,1,1.28,1.33v0l.07.11c.15.24.31.48.45.72s.57,1.23.45.88c.15.42.29.84.4,1.28l.12.59s.05.47.06.59C451.2,407,451.11,409.06,451.11,411.14Z" transform="translate(-80.3 -8.27)" style="fill:#fff"/><circle cx="780.01" cy="230.91" r="41.66" style="fill:#d67086"/><path d="M355.89,438.86a4.43,4.43,0,0,0-.19-.8c-.81-2.45-3.35-2.86-4.64-4.75-.58-.85-.27-3.89-1.92-3.5-.61.14-2.7.46-4.78.91-1.74-.27-3.51-.46-5.22-.9-4.33-1.09-12.2-8.52-16.22-3.88a10.1,10.1,0,0,0-2,2.93,8.69,8.69,0,0,0-.43,2.87c0,.75-.23,1.95.28,2.49s2.47.81,3.23,1.06l6.47,2.14c2.11.69,4.54,1.71,5.06,3.88a13.43,13.43,0,0,0,.3,1.43,3.82,3.82,0,0,0,1,1.3,25.53,25.53,0,0,0,4.8,3.73c3.11,1.83,8.22-.63,11.17-1.79a5.47,5.47,0,0,0,2-1.2,5.7,5.7,0,0,0,1.06-3.63A11,11,0,0,0,355.89,438.86Z" transform="translate(-80.3 -8.27)" style="fill:#efbbbb"/><path d="M277.12,412.74a32.14,32.14,0,0,0,4.67,7.15,28.82,28.82,0,0,0,5.37,4.19,136.35,136.35,0,0,0,38.54,17.17,50.54,50.54,0,0,0,7.22-18.43A219.45,219.45,0,0,1,303.71,404a26.75,26.75,0,0,1-5.2-4.82c-2.06-2.73-3.06-6.09-4-9.37q-5.58-19.09-11.14-38.18c-2.24-7.68-4.62-15.62-9.86-21.66-14.53-16.75-37.69-.93-30.86,18.6C250.32,370.46,266.16,392.18,277.12,412.74Z" transform="translate(-80.3 -8.27)" style="fill:#d67086"/></g></svg>