<svg id="Layer_1" data-name="Layer 1" xmlns="http://www.w3.org/2000/svg" viewBox="0 0 98.19 52.66"><title>login-acadmic</title><line x1="1.34" y1="39.58" x2="39.14" y2="39.22" style="fill:#fff;stroke:#fff;stroke-miterlimit:10;stroke-width:0.25px"/><line x1="77.6" y1="38.22" x2="98.19" y2="38.22" style="fill:#fff;stroke:#fff;stroke-miterlimit:10;stroke-width:0.25px"/><path d="M4.42,20.26V19.11H14.5v1.15l-4.68.44H9.1Zm5,16.57v1.58h-5V37.26l4.68-.43ZM7.74,19.11h3.45c-.11,3-.11,6-.11,8.93v2c0,2.45,0,5.44.11,8.35H7.74c.1-3,.1-6,.1-8.93V28C7.84,25,7.84,22,7.74,19.11ZM22.67,33l-.36,5.41H9.46V37H21.05l-2,1.44L20.51,33Z" transform="translate(-2.7 -2.82)" style="fill:#fff"/><path d="M26,31.64c0-4.78,4.07-7.26,8.21-7.26s8.21,2.48,8.21,7.26-4.14,7.15-8.21,7.15S26,36.43,26,31.64Zm13.18,0c0-3.86-1.84-6-5-6s-5,2.1-5,6,1.77,5.85,5,5.85S39.13,35.5,39.13,31.64Z" transform="translate(-2.7 -2.82)" style="fill:#fff"/><path d="M83.47,37.88c.08-1.37.11-4.5.11-6.38V30.07c0-1.67,0-2.61-.11-3.83L80.59,26V24.9l4.9-1.82.54.3.43,3.53V31.5c0,1.88,0,5,.11,6.38Zm5.62-1.06v1.06H80.81V36.82l4-.61h.72ZM97.4,28.7v2.8c0,1.94,0,5,.11,6.38H94.42c.07-1.37.11-4.44.11-6.38V29c0-2.83-.87-3.74-3-3.74-1.8,0-3.27.6-5.33,2.09h-.75V25.94h1.83l-1.54.54a10.3,10.3,0,0,1,7.12-3.4C95.93,23.08,97.4,24.69,97.4,28.7Zm-1,7.51,3.6.61v1.06H91.75V36.82l4-.61Z" transform="translate(-2.7 -2.82)" style="fill:#fff"/><path d="M71.23,16.1c0-2.34-1.6-4.24-3.57-4.24s-3.57,1.9-3.57,4.24a4.43,4.43,0,0,0,1.83,3.7L66,17a1.94,1.94,0,0,1,1.76-2.08h.1a1.53,1.53,0,0,1,1.38,1.64V19.9A4.37,4.37,0,0,0,71.23,16.1Z" transform="translate(-2.7 -2.82)" style="fill:#97d5c9"/><path d="M69.23,16.54a1.53,1.53,0,0,0-1.38-1.64h-.1A1.94,1.94,0,0,0,66,17l-.07,2.82L65.75,26c0,.19-.06,4.5-.06,4.5-.3-.37-.64-.79-1-1.2a4.9,4.9,0,0,0-2.91-1.71,1.25,1.25,0,0,0-1,.22,2.39,2.39,0,0,0-.22.23,2,2,0,0,0-.48,2,2,2,0,0,0,.62.64A4.36,4.36,0,0,1,62,31.84c.7,1.06,2.32,3.44,3.31,4.7.21.16.65.67.86.81a7.76,7.76,0,0,1,1.31,1.16,6.3,6.3,0,0,0,1,.69,5.72,5.72,0,0,0,3.27,1c1.4,0,2.66.1,3.6-.88h.05l0-.07a6,6,0,0,0,1.55-4.06V27.57c0-.37-.07-1.62-1-2a1.36,1.36,0,0,0-1.17.06h-.11a1.45,1.45,0,0,0-1.1-1.24,1.63,1.63,0,0,0-1.44.34,1.48,1.48,0,0,0-1.62-1,1.81,1.81,0,0,0-1.32.84v-8Z" transform="translate(-2.7 -2.82)" style="fill:#fffde5"/><path d="M75.62,23.14l.71.93a.29.29,0,0,0,.5,0A15.05,15.05,0,0,0,79,16.24c0-7.4-5.07-13.42-11.29-13.42a9.32,9.32,0,0,0-1.29.09c-5.2.68-9.38,5.67-9.94,11.84a15.41,15.41,0,0,0,2,9.3.3.3,0,0,0,.51,0l.7-.93a.46.46,0,0,0,0-.48,12.88,12.88,0,0,1-1.67-6.76C58.19,10,62.21,5.1,67.2,4.83c5.51-.32,10.07,4.93,10.07,11.41a12.93,12.93,0,0,1-1.67,6.42A.44.44,0,0,0,75.62,23.14Z" transform="translate(-2.7 -2.82)" style="fill:#fdf771"/><path d="M72.45,18.94l.75,1a.3.3,0,0,0,.53-.09,9.22,9.22,0,0,0,.72-3.6c0-3.81-2.27-7.13-5.4-7.91a5.73,5.73,0,0,0-2.79,0c-3.13.78-5.4,4.1-5.4,7.91a9.22,9.22,0,0,0,.72,3.6.31.31,0,0,0,.54.09l.75-1a.45.45,0,0,0,.05-.41,7,7,0,0,1-.38-2.29,6.16,6.16,0,0,1,3.36-5.72,4.46,4.46,0,0,1,3.51,0,6.16,6.16,0,0,1,3.36,5.72,7,7,0,0,1-.38,2.29A.43.43,0,0,0,72.45,18.94Z" transform="translate(-2.7 -2.82)" style="fill:#fbfb9d"/><text transform="translate(0 49.1) scale(1.92 1)" style="font-size:11.144674301147461px;fill:#fcf97e;font-family:Ebrima">ACADEMY</text><path d="M48.84,31.11c-.87.54-1.19,1.09-1.19,1.44,0,.51.61,1.09,2.23,1.09l4,0c2.31,0,5.26.6,5.26,3.45S54.74,42.87,50,42.87c-4.06,0-6.26-1.9-6.33-3.59a2.07,2.07,0,0,1,.9-1.64,29.87,29.87,0,0,1,2.95-2.07A4.73,4.73,0,0,1,44.77,34a2.24,2.24,0,0,1-.43-1.23,7.71,7.71,0,0,0,3.31-2Zm1.73.29c-3.35,0-6.12-1.64-6.12-4.35,0-3.28,3.67-4.8,6.48-4.8a8.88,8.88,0,0,1,3.45.72,30.28,30.28,0,0,0,4.83-.43l.21.25a3.67,3.67,0,0,1-1.33,1.53c-.54,0-1.73-.12-2.23-.14a3.87,3.87,0,0,1,1,2.61C56.9,29.93,53.66,31.4,50.57,31.4Zm.82,4.25c-1.76,0-2.55.17-3.2.61a3.24,3.24,0,0,0-1.73,2.35c0,1.59,2,2.77,4.83,2.77,3.42,0,5.36-1.41,5.36-3.25A2.17,2.17,0,0,0,55.07,36,11.85,11.85,0,0,0,51.39,35.65Zm-.82-12.48c-1.62,0-3.06,1.18-3.06,3.45s1.44,3.85,3.42,3.85c1.58,0,3-1.12,3-3.45S52.58,23.17,50.57,23.17Z" transform="translate(-2.7 -2.82)" style="fill:#fff"/><line x1="0.1" y1="51.58" x2="97.94" y2="50.66" style="fill:#fff;stroke:#fff;stroke-miterlimit:10;stroke-width:0.25px"/></svg>