<svg id="Layer_1" data-name="Layer 1" xmlns="http://www.w3.org/2000/svg" xmlns:xlink="http://www.w3.org/1999/xlink" viewBox="0 0 450 312.39"><defs><clipPath id="clip-path" transform="translate(0)"><path d="M91.94,272.25l-.06,22.24a4,4,0,0,1-2.32,3.25,12.5,12.5,0,0,1-11.3,0,4,4,0,0,1-2.36-3.3L76,272.21c0,1.19.79,2.38,2.36,3.29a12.44,12.44,0,0,0,11.3,0A4,4,0,0,0,91.94,272.25Z" style="fill:none"/></clipPath></defs><title>video</title><rect id="_0" data-name="0" width="450" height="312.39" style="fill:#087caf"/><path d="M296.64,170.38l-3.15-1.82.25-.43,2.89,1.67.32-.18.25.43Zm2.29-1.34-.25-.43,3.45-2,.26.43Zm-7.17-1.48-3.47-2,.25-.44,3.47,2ZM304.11,166l-.25-.43,3.46-2,.25.43Zm-17.55-1.45-3.47-2,.25-.43,3.47,2ZM309.3,163l-.26-.43,3.46-2,.25.43Zm-27.94-1.42-3.46-2,.25-.43,3.46,2Zm33.12-1.6-.25-.43,3.45-2,.25.43Zm-38.32-1.4-3.46-2,.25-.43,3.46,2Zm43.5-1.62-.25-.43,3.46-2,.25.43ZM271,155.57l-3.47-2,.25-.44,3.47,2Zm53.87-1.65-.25-.43,3.46-2,.25.43Zm-59.07-1.34-3.47-2,.25-.43,3.47,2ZM330,150.9l-.25-.43,3.45-2,.25.44Zm-69.46-1.32-3.46-2,.25-.43,3.46,2Zm74.64-1.7-.25-.43,3.45-2,.26.43Zm-79.84-1.3-3.46-2,.25-.43,3.46,2Zm85-1.73-.25-.43,3.46-2,.25.43Zm-90.21-1.27-3.47-2,.25-.44,3.47,2Zm95.4-1.75-.26-.43,3.46-2,.25.44ZM245,140.59l-3.47-2,.25-.43,3.47,2Zm105.78-1.78-.25-.43,3.45-2,.25.43Zm-111-1.22-3.46-2,.25-.43,3.46,2Zm116.16-1.81-.25-.43,3.45-2,.26.43Zm-121.36-1.19-3.46-2,.25-.43,3.46,2Zm126.54-1.83-.25-.43,3.46-2,.25.44Zm-131.74-1.17-3.46-2,.25-.44,3.46,2Zm136.93-1.85-.26-.43,3.46-2,.25.43ZM224.19,128.6l-3.47-2,.25-.43,3.47,2Zm147.3-1.88-.25-.44,3.45-2,.25.43ZM219,125.6l-3.47-2,.25-.43,3.47,2Zm157.68-1.91-.25-.43,3.46-2,.25.43ZM213.79,122.6l-3.46-2,.25-.43,3.46,2Zm168.06-1.93-.25-.43.51-.3L379,118.16l.25-.44,3.83,2.22Zm-173.26-1.06-3.46-2,.25-.44,3.46,2Zm168.7-2.46-3.47-2,.25-.43,3.47,2Zm-173.89-.54-3.47-2,.25-.43,3.47,2Zm168.69-2.46-3.46-2,.25-.43,3.46,2Zm-173.89-.54-3.47-2,.25-.43,3.47,2Zm168.7-2.47-3.46-2,.25-.44,3.46,2ZM193,110.61l-3.52-2,.69-.4.19.33,2.89,1.67Zm168.71-2.48-3.46-2,.25-.43,3.46,2Zm-169.55-.51-.25-.43,3.47-2,.25.44Zm164.36-2.49-3.47-2,.25-.43,3.47,2Zm-159.16-.5-.25-.43,3.47-2,.25.43Zm154-2.51-3.46-2,.25-.43,3.46,2Zm-148.76-.48-.25-.43,3.47-2,.25.43Zm143.57-2.52-3.46-2,.25-.43,3.46,2Zm-138.36-.46-.25-.44,3.47-2,.25.44Zm133.17-2.55-3.46-2,.25-.44,3.46,2Zm-128-.44-.25-.43,3.47-2,.25.44ZM335.75,93.1l-3.47-2,.25-.43,3.47,2Zm-117.58-.42-.25-.43,3.47-2,.25.43ZM330.55,90.1l-3.46-2,.25-.43,3.46,2Zm-107.17-.4-.25-.44,3.47-2,.25.43Zm102-2.61-3.46-2,.25-.44,3.46,2Zm-96.78-.38-.25-.44,3.47-2,.25.44Zm91.59-2.63-3.46-2,.25-.43,3.46,2Zm-86.39-.36-.24-.43,3.46-2,.25.43ZM315,81.08l-3.47-2,.25-.43,3.47,2Zm-76-.35-.25-.43,3.47-2,.25.43Zm70.79-2.66-3.46-2,.25-.43,3.46,2Zm-65.59-.32-.25-.44,3.47-2,.25.43Zm60.4-2.68-3.46-2,.25-.43,3.46,2Zm-55.2-.31-.24-.44,3.47-2,.24.44Zm50-2.7-3.46-2,.25-.44,3.46,2Zm-44.8-.29-.25-.43,3.47-2,.25.43Zm39.61-2.72-3.47-2,.25-.43,3.47,2Zm-34.41-.27-.25-.43,3.47-2,.25.43ZM289,66.05l-3.46-2,.25-.43,3.46,2Zm-24-.25-.24-.44,3.47-2,.24.43ZM283.82,63l-3.46-2,.25-.44,3.46,2Zm-13.61-.23-.25-.43,3.47-2,.25.44ZM278.63,60l-1.79-1-1.43.82-.25-.43,1.68-1,2,1.18Z" transform="translate(0)" style="fill:#4d4d4e"/><path d="M241.85,138.55l-.25-.44,3.24-1.87.25.43Zm5-2.88-.25-.43,3.47-2,.25.43Zm5.2-3-.25-.43,3.46-2,.25.43Zm5.19-3-.25-.43,3.47-2,.25.43Zm5.2-3-.25-.44,3.46-2,.25.44Zm5.2-3-.25-.44,3.46-2,.25.43Zm5.19-3-.25-.43,3.46-2,.25.43Zm5.2-3-.25-.43,3.46-2,.25.43Zm5.19-3-.25-.43,3.46-2,.25.43Zm5.2-3-.25-.43,3.46-2,.25.43Zm5.19-3-.25-.43,3.46-2,.25.44Zm5.2-3-.25-.44,3.46-2,.25.44Zm5.19-3-.25-.44,3.47-2,.25.43Zm5.2-3-.25-.43,3.46-2,.25.43Zm5.19-3-.25-.43,3.47-2,.25.43Zm5.2-3-.25-.43,3.46-2,.25.43Zm5.19-3-.25-.43,3.47-2,.25.43Z" transform="translate(0)" style="fill:#4d4d4e"/><path d="M199.86,103.23l-3.46-2,.25-.44,3.46,2Zm-5.2-3-3.46-2,.25-.43,3.46,2Zm-5.2-3-3.46-2,.25-.44,3.46,2Zm-5.2-3-3.46-2,.25-.43,3.46,2Zm-5.19-3-3.47-2,.25-.44,3.46,2Zm-5.2-3-3.47-2,.25-.43,3.47,2Zm-5.2-3-3.47-2,.25-.43,3.47,2Zm-5.2-3-3.47-2,.25-.44,3.47,2Zm-5.2-3-3.47-2,.25-.43,3.47,2Zm-5.2-3-3.47-2,.25-.44,3.47,2Zm-5.2-3-3.47-2,.25-.43,3.47,2Zm-5.2-3-3.47-2,.25-.44,3.47,2Zm-5.2-3-3.47-2,.25-.43,3.47,2Zm-5.2-3-3.47-2,.25-.43,3.47,2Zm134.77-1-3.45-2,.25-.43,3.45,2Zm-138-2-.25-.43,3.47-2,.25.43Zm132.87-1.09-3.45-2,.26-.43,3.44,2ZM134.2,58.32l-.24-.43,3.46-2,.25.43Zm122.5-1.14-3.45-2,.26-.43,3.44,2ZM139.41,55.34l-.25-.44,3.47-2,.25.43Zm112.12-1.21-3.45-2,.26-.43,3.44,2ZM144.61,52.35l-.25-.44,3.47-2,.25.44Zm101.75-1.26-3.45-2,.26-.43,3.44,2Zm-96.55-1.73-.25-.43,3.47-2,.25.44ZM241.19,48l-3.44-2,.25-.43,3.45,2ZM155,46.37l-.25-.43,3.46-2,.25.44ZM236,45l-3.44-2,.25-.43,3.45,2Zm-75.8-1.61L160,43l3.47-2,.25.43ZM230.85,42l-3.44-2,.25-.43,3.45,2Zm-65.43-1.56-.25-.43,3.47-2,.25.43Zm60.26-1.49-3.44-2,.25-.43,3.45,2Zm-55.06-1.49-.24-.44,3.46-2,.25.43Zm49.89-1.55-3.44-2,.25-.43,3.45,2Zm-44.68-1.44-.25-.44,3.47-2,.24.43Zm39.51-1.61-3.44-2,.25-.43,3.45,2ZM181,31.43l-.25-.44,3.47-2,.25.44Zm29.15-1.67-3.45-2,.25-.43,3.45,2Zm-24-1.32L186,28l3.47-2,.25.44ZM205,26.72l-3.45-2,.25-.43,3.45,2Zm-13.57-1.27-.25-.43,3.46-2,.25.43Zm8.4-1.78-2.62-1.54-.58.33-.25-.43.83-.48,2.87,1.69Z" transform="translate(0)" style="fill:#4d4d4e"/><path d="M107.22,134.61l-1-.61.26-.43.79.46,2.42-1.39.25.43ZM104.45,133,101,131l.25-.43,3.45,2Zm7.17-.92-.25-.43,3.46-2,.25.44ZM99.27,130l-3.45-2,.25-.43,3.45,2Zm17.55-.87-.25-.44,3.46-2,.25.44Zm-22.73-2.16-3.45-2,.26-.44,3.45,2Zm27.92-.84-.25-.43,3.47-2,.25.43Zm-33.09-2.2-3.45-2,.25-.43,3.45,2Zm38.29-.8-.25-.43,3.47-2,.25.43Zm-43.47-2.23-3.45-2,.25-.43,3.45,2Zm48.67-.77-.25-.43,3.46-2,.25.44Zm-53.84-2.26-3.46-2,.26-.43,3.45,2Zm59-.73-.25-.44,3.46-2,.25.44Zm-64.22-2.31-3.45-2,.25-.43,3.45,2Zm69.41-.69-.25-.43,3.47-2,.25.43Zm-74.59-2.34-3.45-2,.25-.44,3.46,2Zm79.79-.66-.25-.43,3.47-2,.25.43Zm-85-2.38-3.45-2,.25-.43,3.45,2Zm90.16-.62-.25-.43,3.46-2,.25.43Zm-95.34-2.41-3.44-2,.75-.43.25.43h0l2.7,1.58Zm100.54-.58-.25-.44,3.46-2,.25.44ZM57.16,102.66l-.25-.43,3.46-2,.25.43Zm106.43-.56-.25-.44,3.47-2,.25.43ZM62.36,99.67l-.25-.43,3.46-2,.25.44Zm106.43-.57-.25-.43,3.47-2,.25.43ZM67.56,96.68l-.25-.44,3.46-2,.25.43ZM174,96.1l-.25-.43,3.46-2,.25.43ZM72.76,93.69l-.25-.44,3.46-2,.25.43Zm106.43-.59-.25-.43,1.58-.91.25.43ZM78,90.69l-.25-.43,3.46-2,.25.44Zm5.2-3-.25-.43,3.46-2,.25.43Zm5.2-3-.25-.44,3.46-2,.25.43Zm5.2-3-.25-.43,3.46-2,.25.44Zm5.2-3-.25-.43,3.46-2,.25.43Zm5.2-3-.25-.44,3.46-2,.25.43Zm5.2-3-.25-.43,3.47-2,.24.44Zm5.2-3-.25-.43,3.47-2,.24.44Zm5.2-3-.25-.44,3.47-2,.24.43Zm5.2-3-.25-.43,3.47-2,.24.43Z" transform="translate(0)" style="fill:#4d4d4e"/><path d="M196,218l-3.08-1.78.25-.44,2.83,1.64.38-.22.25.43Zm2.37-1.37-.26-.43,3.47-2,.25.44Zm-7.18-1.41-3.47-2,.25-.44,3.47,2Zm12.37-1.6-.25-.43,3.46-2,.25.43ZM186,212.21l-3.46-2,.25-.43,3.46,2Zm22.76-1.6-.25-.44,3.46-2,.25.43Zm-28-1.4-3.46-2,.25-.43,3.46,2ZM214,207.6l-.25-.43,3.46-2,.25.44Zm-38.34-1.39-3.47-2,.25-.43,3.47,2Zm43.53-1.62-.25-.43,3.47-2,.25.43Zm-48.73-1.38-3.46-2,.25-.43,3.46,2Zm53.93-1.62-.25-.44,3.46-2,.25.43Zm-59.13-1.38-3.46-2,.25-.43,3.46,2Zm64.32-1.63-.25-.43,3.46-2,.25.44ZM160,197.21l-3.47-2,.25-.43,3.47,2Zm74.7-1.64-.25-.43,3.46-2,.25.43Zm-79.9-1.36-3.46-2,.25-.43,3.46,2Zm85.09-1.64-.25-.43,3.47-2,.25.43Zm-90.28-1.36-3.47-2,.25-.43,3.47,2Zm95.48-1.65-.25-.43,3.46-2,.25.44Zm-100.68-1.35-3.47-2,.25-.43,3.47,2Zm105.87-1.66-.25-.43,3.46-2,.25.43Zm-111.07-1.34-3.46-2,.25-.44,3.46,2Zm116.26-1.66-.25-.43,3.46-2,.25.43ZM134,182.22l-3.47-2,.25-.44,3.47,2Zm126.64-1.68-.25-.43,3.46-2,.25.43Zm-131.84-1.32-3.47-2,.25-.44,3.47,2Zm137-1.68-.25-.44,3.46-2,.25.43Zm-142.24-1.32-3.46-2,.25-.44,3.46,2Zm147.43-1.69-.25-.43,3.46-2,.25.43Zm-152.62-1.31-3.47-2,.25-.43,3.47,2Zm157.81-1.7-.25-.43,3.46-2,.25.43Zm-163-1.3-3.47-2,.25-.43,3.47,2Zm168.2-1.7-.25-.44,3.46-2,.25.43Zm-173.4-1.3-3.46-2,.25-.43,3.46,2Zm178.6-1.71-.25-.43.79-.46.25.43Zm-183.79-1.29-3.47-2,.25-.43,3.47,2Zm-5.2-3-3.46-2,.25-.43,3.46,2Zm-5.2-3-3.46-2,.25-.43,3.46,2Zm-5.19-3-3.47-2,.25-.43,3.47,2Zm-5.2-3-3-1.74,1.2-.69.25.43-.45.26,2.27,1.31Zm.16-3-.25-.44,3.46-2,.25.43Zm5.19-3-.25-.43,3.45-2,.26.43Zm5.18-3-.25-.43,3.46-2,.25.43Zm5.19-3-.25-.43,3.46-2,.25.43Zm5.19-3-.25-.43,3.46-2,.25.43Z" transform="translate(0)" style="fill:#4d4d4e"/><path d="M124.87,259.21l-.25-.44,3.46-2,.25.43Zm5.19-3-.25-.43,3.46-2,.25.44Zm5.19-3-.25-.43,3.46-2,.25.44Zm5.19-3-.25-.43,3.46-2,.25.43Zm5.19-3-.25-.44,3.46-2,.26.43Zm5.2-3-.26-.43,3.47-2,.25.43Zm5.19-3-.25-.43,3.46-2,.25.43Zm5.19-3-.25-.43,3.46-2,.25.43Zm5.19-3-.25-.43,3.46-2,.25.43Zm5.19-3-.25-.44,3.46-2,.25.43Zm5.19-3-.25-.43,3.46-2,.25.43Zm5.2-3-.26-.43,3.47-2,.25.44Zm5.19-3-.25-.43,3.46-2,.25.43Zm5.19-3-.25-.44,3.46-2,.25.43Z" transform="translate(0)" style="fill:#4d4d4e"/><path d="M261.64,301.18l-1-.57.25-.43.73.42,2.48-1.44.25.43Zm-2.71-1.57-3.46-2,.25-.43,3.46,2Zm7.17-1-.25-.43,3.47-2,.25.43Zm-12.36-2-3.47-2,.25-.43,3.47,2Zm17.56-1-.25-.43,3.46-2,.25.44Zm-22.76-2-3.46-2,.25-.43,3.46,2Zm28-1-.25-.43,3.46-2,.25.43Zm-33.15-2-3.46-2,.25-.43,3.46,2Zm38.34-1.05-.25-.43,3.46-2,.25.43Zm-43.53-1.95-3.46-2,.25-.44,3.46,2Zm48.72-1.05-.25-.44,3.46-2,.25.43ZM233,284.61l-3.46-2,.25-.44,3.46,2Zm59.11-1.06-.25-.43,3.46-2,.25.43Zm-64.3-1.94-3.47-2,.25-.44,3.47,2Zm69.49-1.07-.25-.43,3.46-2,.25.43Zm-74.69-1.94-3.46-2,.25-.43,3.46,2Zm79.88-1.07-.25-.43,3.47-2,.25.43Zm-85.07-1.93-3.47-2,.25-.43,3.47,2Zm90.27-1.08-.25-.43,3.46-2,.25.44Zm-95.47-1.92-3.46-2,.25-.43,3.46,2Zm100.66-1.09-.25-.43,3.46-2,.25.43ZM207,269.6l-3.47-2,.25-.43,3.47,2Zm111-1.09-.25-.44,3.46-2,.25.43ZM201.78,266.6l-3.46-2,.25-.43,3.46,2Zm121.43-1.1-.25-.44,3.46-2,.25.43Zm-126.62-1.9-3.47-2,.25-.44,3.47,2Zm131.81-1.11-.25-.43,3.46-2,.25.43Zm-137-1.89-3.46-2,.25-.44,3.46,2Zm142.2-1.12-.25-.43,3.46-2,.25.44ZM186.2,257.6l-3.47-2,.25-.43,3.47,2Zm149.68-1.13-3.46-2,.25-.43,3.46,2ZM181,254.59l-3.46-2,.25-.43,3.46,2Zm149.69-1.12-3.47-2,.25-.43,3.47,2ZM175.8,251.59l-3.46-2,.25-.43,3.46,2Zm149.69-1.12-3.46-2,.25-.43,3.46,2Zm-154.88-1.88-3.46-2,.25-.43,3.46,2Zm149.68-1.12-3.46-2,.25-.43,3.46,2Zm-154.88-1.88-3.46-2,.25-.43,3.46,2Zm149.69-1.12-3.47-2,.25-.43,3.47,2Zm-154.88-1.88-3.47-2,.25-.43,3.47,2Zm149.68-1.12-3.46-2,.25-.43,3.46,2Zm-5.19-3-3.47-2,.25-.43,3.47,2Zm-5.2-3-3.46-2,.25-.43,3.46,2Zm-5.19-3-3.47-2,.25-.43,3.47,2Zm-5.2-3-3.46-2,.25-.44,3.46,2Zm-5.2-3-3.46-2,.25-.44,3.46,2Zm-5.19-3-3.47-2,.25-.44,3.47,2Zm-5.2-3-3.46-2,.25-.44,3.46,2Zm-5.19-3-3.47-2,.25-.44,3.47,2Zm-5.2-3-3.46-2,.25-.44,3.46,2Zm-5.19-3-3.47-2,.25-.43,3.47,2Zm-5.2-3-3.46-2,.25-.43,3.46,2Zm-5.2-3-3.46-2,.25-.43,3.46,2Zm-5.19-3-3.47-2,.25-.43,3.47,2Zm-5.2-3-3.46-2L234,197l3.46,2Z" transform="translate(0)" style="fill:#4d4d4e"/><path d="M328,251.77l-.25-.43,2-1.16.25.43Zm3.72-2.16-.25-.43,3.46-2,.25.43Zm5.19-3-.25-.43,3.45-2,.26.43Zm5.19-3-.26-.43,3.46-2,.25.43Zm5.18-3-.25-.43,3.46-2,.25.43Zm5.19-3-.25-.43,3.46-2,.25.43Zm5.19-3-.25-.43,3.45-2,.26.43Zm5.19-3-.26-.43,3.46-2,.25.43Zm5.18-3-.25-.43,3.46-2,.25.43Zm5.19-3-.25-.43,3.46-2,.25.43Zm5.19-3-.26-.43,3.46-2,.26.43Zm5.18-3-.25-.43,3.46-2,.25.43Zm5.19-3-.25-.43,3.46-2,.25.43Zm5.19-3-.25-.43,3.46-2,.25.43Zm5.19-3-.26-.43,3.46-2,.25.43Zm5.18-3-.25-.43,3.46-2,.25.43Zm5.19-3-.25-.43,3.46-2,.25.43Zm5.19-3-.19-.32-2.91-1.67.24-.43,3.54,2Zm-4.84-3-3.47-2,.25-.44,3.47,2Zm-5.21-3-3.47-2,.25-.44,3.47,2Zm-5.2-3-3.47-2,.24-.44,3.47,2Zm-5.21-3-3.47-2L391,187l3.47,2Zm-5.21-3-3.47-2,.25-.43,3.47,2Zm-5.2-3-3.48-2,.25-.43,3.47,2Zm-5.21-3-3.47-2,.25-.43,3.47,2Zm-5.21-3-3.47-2,.25-.43,3.47,2Zm-5.21-3-3.47-2,.25-.44,3.47,2Zm-5.2-3-3.47-2,.24-.44,3.48,2Zm-5.21-3-3.47-2,.25-.44,3.47,2Zm-5.21-3-3.47-2,.25-.44,3.47,2Zm-5.2-3-3.47-2,.24-.43,3.48,2Zm-5.21-3-3.47-2,.25-.43,3.47,2Zm-5.21-3-3.47-2,.25-.43,3.47,2Zm-5.2-3-3.48-2,.25-.43,3.47,2Z" transform="translate(0)" style="fill:#4d4d4e"/><g style="isolation:isolate"><path d="M345.06,78.91a7.62,7.62,0,0,1,5.55-.71,14.51,14.51,0,0,1,4.15,1.65,22.38,22.38,0,0,1,4,3l-6.14,3.56a22.44,22.44,0,0,0-4-3,14.23,14.23,0,0,0-4.15-1.65,7.67,7.67,0,0,0-5.55.7Z" transform="translate(0)" style="fill:#007ab2"/><path d="M363.14,75.34a8.94,8.94,0,0,1,6.42-.82,16.82,16.82,0,0,1,4.8,1.92,28.72,28.72,0,0,1,7.65,6.7,35.9,35.9,0,0,1,7.89,17.68,14.57,14.57,0,0,1,4,1.62,24.77,24.77,0,0,1,6.6,5.78c4.18,5.08,7,11.86,7,17.76,0,4.29-1.53,7.31-4,8.73l-6.14,3.56c2.45-1.42,4-4.44,4-8.73,0-5.9-2.81-12.67-7-17.76a24.7,24.7,0,0,0-6.61-5.78,14.67,14.67,0,0,0-4-1.61,35.8,35.8,0,0,0-7.89-17.69,28.75,28.75,0,0,0-7.65-6.7,16.55,16.55,0,0,0-4.8-1.91,8.85,8.85,0,0,0-6.41.82Z" transform="translate(0)" style="fill:#007ab2"/><path d="M368.22,80c-7.9-4.56-14.46-1.66-15.63,6.39a22.44,22.44,0,0,0-4-3c-7.52-4.34-13.65-.86-13.68,7.79s6.07,19.19,13.59,23.53l39.12,22.59c7.53,4.34,13.65.86,13.68-7.79s-6.07-19.19-13.6-23.54a14.67,14.67,0,0,0-4-1.61C382.64,95,376.12,84.57,368.22,80Z" transform="translate(0)" style="fill:#70c9ff"/></g><g style="isolation:isolate"><path d="M373.65,115l.85-.38.1,0-2.31,1.33-.08,0-.86.38h-.06L373.6,115Z" transform="translate(0)" style="fill:#024462"/><path d="M376.2,121.48a.19.19,0,0,1,.08-.11l2.3-1.33a.16.16,0,0,0-.08.1l-.47.94s0,.08-.06.09l-2.3,1.34a.15.15,0,0,0,.06-.09Z" transform="translate(0)" style="fill:#024462"/><path d="M373.35,110.44a.19.19,0,0,1,.17,0l.06,0,.87.56-.48-.89a.32.32,0,0,0-.08-.14.4.4,0,0,0-.12-.11.13.13,0,0,0-.08,0,0,0,0,0,0-.05,0l-1,.11,0,0,2.3-1.34.05,0,1-.11H376l.07,0a.4.4,0,0,1,.12.11l.09.14.75,1.43.08.14,1.52-.88a.11.11,0,0,1,.1,0l.07,0,.05,0,1.13,1,.06.06a.47.47,0,0,1,.11.38l-.07,1.27v.14l.13.15a7.8,7.8,0,0,1,.56.76.53.53,0,0,0,.12.1l.08,0H381l1.07.14h0a.32.32,0,0,1,.09,0,.6.6,0,0,1,.12.11l.09.14.59,1.49c.06.15,0,.27,0,.32l-1,.56a7.68,7.68,0,0,1,.15.9.72.72,0,0,0,.12.23.6.6,0,0,0,.08.08l1.05,1.15.06.06a.51.51,0,0,1,.11.38l-.28,1.13a.15.15,0,0,1-.06.09l-1.65,1,.13.49c.06.14,0,.27,0,.32l-2.3,1.33c.08,0,.1-.18,0-.32l-.41-1.46a.41.41,0,0,1,0-.32,1.79,1.79,0,0,0,.45-.53l1.56-.9-.94-1a.6.6,0,0,1-.08-.08.72.72,0,0,1-.12-.23,6.32,6.32,0,0,0-.17-1l1.05-.61a.36.36,0,0,0,0-.14l-.6-1.49a.64.64,0,0,0-.08-.14.6.6,0,0,0-.12-.11.16.16,0,0,0-.09,0h0l-1.07-.13h-.06l-.08,0-.12-.1a8.52,8.52,0,0,0-.55-.75l-.14-.17v-.14l.07-1.26a.5.5,0,0,0-.11-.39l-.06-.06-.71-.6-1.26.72a.1.1,0,0,1-.09,0,4.11,4.11,0,0,0-.79-.27h0l-.08-.15-.09-.16-2.1,1.22-.12-.07-1.14-.74-.06,0-.08,0a.09.09,0,0,0-.09,0Z" transform="translate(0)" style="fill:#024462"/><path d="M374.82,114.66l2.3-1.34a.93.93,0,0,0-.43.64,3.28,3.28,0,0,0,.79,2.59,4.16,4.16,0,0,0,.42.42,2.52,2.52,0,0,0,.4.29,1.59,1.59,0,0,0,.5.2,1,1,0,0,0,.68-.09l-2.3,1.34a1,1,0,0,1-.68.09,1.87,1.87,0,0,1-.5-.2,3.35,3.35,0,0,1-.4-.29,3.42,3.42,0,0,1-.42-.43,3.22,3.22,0,0,1-.79-2.58A.93.93,0,0,1,374.82,114.66Z" transform="translate(0)" style="fill:#024462"/><path d="M371,111.87c0-.11.12-.14.23-.08l.06,0,1.14.74.12.07a1.84,1.84,0,0,1,.46-.53.61.61,0,0,0,0-.32l-.41-1.46c-.07-.18,0-.32.08-.34l1-.11a.17.17,0,0,1,.13,0,.47.47,0,0,1,.2.25l.76,1.42.08.15a3.5,3.5,0,0,1,.81.27c.08,0,.14,0,.17-.13l.47-.94a.14.14,0,0,1,.23-.07l.06,0,1.13,1a.5.5,0,0,1,.17.45l-.07,1.26v.14a8.83,8.83,0,0,1,.69.92l.12.1a.33.33,0,0,0,.14,0l1.07.13a.24.24,0,0,1,.13,0,.51.51,0,0,1,.2.25l.6,1.49c.07.17,0,.31-.08.33l-.86.38-.09,0a6.32,6.32,0,0,1,.17,1,.64.64,0,0,0,.2.31l1.05,1.15a.5.5,0,0,1,.17.43L381,121.5a.14.14,0,0,1-.23.07l-.06,0-1.15-.74-.12-.07a1.79,1.79,0,0,1-.45.53.45.45,0,0,0,0,.32l.41,1.46c.07.17,0,.32-.09.34l-1,.11a.21.21,0,0,1-.13,0,.56.56,0,0,1-.21-.26l-.76-1.42-.07-.14a3.46,3.46,0,0,1-.82-.28.17.17,0,0,0-.17.13l-.47.94c0,.11-.13.13-.24.07l-.05,0-1.12-1a.51.51,0,0,1-.18-.44l.07-1.28v-.13c-.24-.29-.47-.6-.68-.91a.41.41,0,0,0-.13-.1.23.23,0,0,0-.14,0l-1.07-.14a.24.24,0,0,1-.13,0,.59.59,0,0,1-.21-.25l-.59-1.48c-.07-.17,0-.33.09-.33l.86-.38.08,0a6.28,6.28,0,0,1-.16-1,.87.87,0,0,0-.2-.31l-1.05-1.14a.5.5,0,0,1-.18-.44Zm4.61,6.44a3.35,3.35,0,0,0,.4.29c.74.43,1.42.23,1.61-.53a3.46,3.46,0,0,0-1.21-3,3.16,3.16,0,0,0-.39-.28c-.75-.43-1.44-.24-1.62.53a3.43,3.43,0,0,0,1.21,3Z" transform="translate(0)" style="fill:#025a82"/><path d="M367.5,97.09l1.21-.54.13-.06-2.3,1.33-.13.07-1.21.54-.07,0,2.3-1.33A.09.09,0,0,1,367.5,97.09Z" transform="translate(0)" style="fill:#f0a72e"/><path d="M372.07,105.7a.24.24,0,0,1,.11-.16l2.29-1.34a.29.29,0,0,0-.1.16l-.66,1.32a.19.19,0,0,1-.1.13l-2.3,1.34a.21.21,0,0,0,.09-.13Z" transform="translate(0)" style="fill:#f0a72e"/><path d="M367.07,90.63a.22.22,0,0,1,.14,0l.11,0,.08.06,1.62,1,.17.11-2.31,1.33-.16-.1-1.62-1A.21.21,0,0,0,365,92l-.1,0a.19.19,0,0,0-.15,0Z" transform="translate(0)" style="fill:#f0a72e"/><path d="M370.11,96l2.3-1.34a1.39,1.39,0,0,0-.62.9,4.63,4.63,0,0,0,1.13,3.66,5.67,5.67,0,0,0,.59.61,4.53,4.53,0,0,0,.56.4,2.55,2.55,0,0,0,.71.28,1.37,1.37,0,0,0,1-.12l-2.3,1.34a1.37,1.37,0,0,1-1,.12,2.5,2.5,0,0,1-.7-.28,3.38,3.38,0,0,1-.57-.41,4.78,4.78,0,0,1-.59-.6,4.64,4.64,0,0,1-1.13-3.66A1.37,1.37,0,0,1,370.11,96Z" transform="translate(0)" style="fill:#f0a72e"/><path d="M376.67,104.61l2.2-1.28-1.33-1.46a.57.57,0,0,1-.11-.11,1.19,1.19,0,0,1-.18-.33A8.66,8.66,0,0,0,377,100l1.49-.86a.56.56,0,0,0,0-.21l-.85-2.09a1.16,1.16,0,0,0-.13-.22.67.67,0,0,0-.16-.14l-.1,0h-.08l-1.52-.22a.14.14,0,0,1-.09,0l-.12,0a.48.48,0,0,1-.16-.13,13,13,0,0,0-.83-1.12l-.14-.18v-.18l.1-1.81a.7.7,0,0,0-.16-.54l-.09-.09-1-.85-1.77,1a.21.21,0,0,1-.14,0,4.77,4.77,0,0,0-1.14-.38h0l-.1-.2-1.08-2a.78.78,0,0,0-.12-.22.55.55,0,0,0-.17-.14l-.1,0h-.08l-1.4.17-.06,0,2.3-1.34.06,0,1.4-.17h.08l.1,0a.55.55,0,0,1,.17.14.78.78,0,0,1,.12.22l1.08,2,.11.2,2.14-1.26a.22.22,0,0,1,.14,0l.11,0a.19.19,0,0,1,.07.06l1.6,1.36.08.09a.67.67,0,0,1,.16.53l-.1,1.81v.19a2.09,2.09,0,0,1,.14.17,13.12,13.12,0,0,1,.83,1.13.83.83,0,0,0,.16.12.21.21,0,0,0,.12,0h.09l1.52.21h.08l.1.05a.48.48,0,0,1,.16.13,1.59,1.59,0,0,1,.13.22l.85,2.09c.08.22.05.4,0,.46l-1.38.79a7.53,7.53,0,0,1,.2,1.28,1.11,1.11,0,0,0,.18.34l.11.1,1.48,1.62.08.08a.64.64,0,0,1,.16.54l-.39,1.6a.22.22,0,0,1-.09.13l-2.3,1.34a.21.21,0,0,0,.09-.14l.39-1.59a.68.68,0,0,0-.16-.54l-.09-.08-.1-.12a3.09,3.09,0,0,1-.58.66.58.58,0,0,0,0,.44l.57,2.07c.08.21.06.4-.05.46l-2.31,1.34c.12-.07.14-.25.06-.46l-.57-2.07a.58.58,0,0,1,0-.44A3,3,0,0,0,376.67,104.61Z" transform="translate(0)" style="fill:#f0a72e"/><path d="M364.68,92.09c0-.15.19-.19.34-.1a.21.21,0,0,1,.08.06l1.62,1,.16.1a3,3,0,0,1,.65-.75.58.58,0,0,0,0-.44l-.58-2.08c-.09-.24,0-.45.12-.47l1.4-.17a.25.25,0,0,1,.18,0,.67.67,0,0,1,.29.36l1.08,2,.1.2a5,5,0,0,1,1.15.38.23.23,0,0,0,.25-.18l.66-1.32c0-.16.18-.2.34-.11l.07,0,1.59,1.36a.71.71,0,0,1,.25.63l-.1,1.81v.18a15.68,15.68,0,0,1,1,1.3.48.48,0,0,0,.16.13.33.33,0,0,0,.21,0l1.52.22a.3.3,0,0,1,.18,0,.83.83,0,0,1,.29.36l.85,2.09c.09.25,0,.46-.12.48l-1.22.53L377,100a8.66,8.66,0,0,1,.23,1.46.92.92,0,0,0,.29.44l1.47,1.62a.69.69,0,0,1,.25.62l-.39,1.59c0,.16-.18.2-.33.12a.5.5,0,0,1-.08-.07l-1.63-1-.16-.09a3,3,0,0,1-.64.76.58.58,0,0,0,0,.44l.57,2.07c.09.24,0,.45-.11.48l-1.41.16a.27.27,0,0,1-.17,0,.78.78,0,0,1-.3-.36l-1.07-2-.12-.2a6.1,6.1,0,0,1-1.14-.38c-.12,0-.2,0-.24.18L371.4,107c0,.16-.17.19-.33.1a.21.21,0,0,1-.08-.06l-1.6-1.36a.74.74,0,0,1-.24-.62l.1-1.8v-.19a15.68,15.68,0,0,1-1-1.3.65.65,0,0,0-.16-.13.33.33,0,0,0-.21,0l-1.52-.21a.24.24,0,0,1-.17-.05.75.75,0,0,1-.3-.35l-.84-2.11c-.1-.24-.05-.45.12-.46l1.21-.54.13-.07a8.48,8.48,0,0,1-.24-1.44.93.93,0,0,0-.28-.44l-1.48-1.62a.71.71,0,0,1-.25-.63Zm6.53,9.11a3.38,3.38,0,0,0,.57.41c1.05.61,2,.33,2.28-.75a4.88,4.88,0,0,0-1.72-4.26,4,4,0,0,0-.56-.41c-1.06-.6-2-.33-2.29.75a4.87,4.87,0,0,0,1.72,4.26Z" transform="translate(0)" style="fill:#ffca00"/><path d="M351.59,107.11l-2.3,1.33-.05,0,2.3-1.34Z" transform="translate(0)" style="fill:#d43e3e"/><path d="M350.26,98a.26.26,0,0,1,.2,0,.64.64,0,0,1,.2.08l2.26,1.19a.47.47,0,0,0,.17.07l-2.3,1.34a.77.77,0,0,1-.17-.07l-2.26-1.19-.2-.09a.32.32,0,0,0-.2,0Z" transform="translate(0)" style="fill:#d43e3e"/><path d="M359,117.35a.33.33,0,0,1,.17-.26l2.29-1.34a.32.32,0,0,0-.15.26l-.69,2a.28.28,0,0,1-.13.23l-2.3,1.34a.33.33,0,0,0,.13-.23Z" transform="translate(0)" style="fill:#d43e3e"/><path d="M355.49,103.86l2.31-1.33a2,2,0,0,0-.91,1.58,6.63,6.63,0,0,0,1.61,4.62,6.05,6.05,0,0,0,1.13,1.08,2.62,2.62,0,0,0,.43.28,3,3,0,0,0,1,.39,1.85,1.85,0,0,0,1.31-.17l-2.3,1.34a1.85,1.85,0,0,1-1.31.17,3.47,3.47,0,0,1-1-.39c-.14-.08-.29-.18-.43-.28a6.39,6.39,0,0,1-1.13-1.08,6.58,6.58,0,0,1-1.61-4.62A2.06,2.06,0,0,1,355.49,103.86Z" transform="translate(0)" style="fill:#d43e3e"/><path d="M364.73,114.86l2.3-1.34a4.62,4.62,0,0,1-.72,1.21.91.91,0,0,0,.08.61l1,2.84c.14.29.12.58,0,.68l-2.3,1.33c.16-.09.18-.38,0-.67l-1-2.84a.88.88,0,0,1-.08-.62A4.72,4.72,0,0,0,364.73,114.86Z" transform="translate(0)" style="fill:#d43e3e"/><path d="M358.55,97.13a.22.22,0,0,0,.13,0l-2.31,1.34-.12,0c-.25-.08-.49-.15-.72-.2a7.49,7.49,0,0,0-.79-.11l-.17-.26-1.63-2.65a.76.76,0,0,0-.15-.23.82.82,0,0,0-.22-.2l-.14,0a.22.22,0,0,0-.14,0l-1.77.53,0,0,2.3-1.34.05,0,1.77-.54a.33.33,0,0,1,.14,0,.48.48,0,0,1,.14,0,1.07,1.07,0,0,1,.23.2,1.64,1.64,0,0,1,.14.22l1.62,2.66.18.27a5.51,5.51,0,0,1,.79.1A6.44,6.44,0,0,1,358.55,97.13Z" transform="translate(0)" style="fill:#d43e3e"/><path d="M362,103.05a1.77,1.77,0,0,1-.17-.12c-.13-.19-.28-.37-.43-.56a14.61,14.61,0,0,0-1-1.09.62.62,0,0,1,0-.27l-.1-2.59a1,1,0,0,0-.24-.67.71.71,0,0,0-.15-.15L357.74,96l-.06,0-.14-.06a.24.24,0,0,0-.19,0l2.3-1.33a.24.24,0,0,1,.19,0l.14.06.07,0,2.19,1.61a.57.57,0,0,1,.16.15.94.94,0,0,1,.24.68l.1,2.59a.58.58,0,0,0,0,.26c.34.35.67.72,1,1.1.15.18.3.36.44.55a.61.61,0,0,0,.16.12l.16.07a.32.32,0,0,0,.17,0l2,0a.38.38,0,0,1,.15,0l.14.06a.77.77,0,0,1,.22.19.91.91,0,0,1,.15.23l1.34,2.8c.14.3.12.59,0,.68l-.12.08-1.42,1-.15.11a13.49,13.49,0,0,1,.49,2,1.45,1.45,0,0,0,.22.38,1.14,1.14,0,0,0,.19.19l2.1,2c.05,0,.11.1.16.16a1,1,0,0,1,.23.67l-.3,2.36a.24.24,0,0,1-.12.22l-2.3,1.34a.3.3,0,0,0,.12-.22l.3-2.36a1,1,0,0,0-.23-.68,1.1,1.1,0,0,0-.16-.15l-2.1-2a1.07,1.07,0,0,1-.19-.18,1.26,1.26,0,0,1-.22-.39,13.67,13.67,0,0,0-.49-2l.15-.11,1.49-1,.06,0c.15-.1.17-.37,0-.66L365,103.56a1.16,1.16,0,0,0-.13-.22,1,1,0,0,0-.23-.2l-.14-.06a.37.37,0,0,0-.15,0l-2,0a.48.48,0,0,1-.17,0A.52.52,0,0,1,362,103.05Z" transform="translate(0)" style="fill:#d43e3e"/><path d="M347.84,99.55c0-.25.23-.32.52-.15l2.26,1.19a.77.77,0,0,0,.17.07,4.62,4.62,0,0,1,.72-1.21.91.91,0,0,0-.08-.61l-1-2.84c-.15-.32-.12-.64.09-.7l1.77-.53a.42.42,0,0,1,.28,0,.94.94,0,0,1,.37.43l1.63,2.65.17.26a5.8,5.8,0,0,1,1.51.31.32.32,0,0,0,.28-.31l.69-2c0-.25.23-.33.46-.19l.06,0L360,97.6a1,1,0,0,1,.39.82l.1,2.59a.62.62,0,0,0,0,.27,15,15,0,0,1,1.41,1.65,1.77,1.77,0,0,0,.17.12.45.45,0,0,0,.33.06l2,0a.35.35,0,0,1,.29,0,.89.89,0,0,1,.36.42l1.35,2.81c.15.33.11.64-.09.7l-1.49,1-.15.11a13.67,13.67,0,0,1,.49,2,1.25,1.25,0,0,0,.41.57l2.1,2a1,1,0,0,1,.39.83l-.3,2.36c0,.26-.24.33-.53.16l-2.25-1.2-.17-.06a4.72,4.72,0,0,1-.72,1.2.88.88,0,0,0,.08.62l1,2.84c.15.32.12.63-.09.7l-1.77.52a.33.33,0,0,1-.28,0,1,1,0,0,1-.37-.42L361,117.62l-.17-.26a6.25,6.25,0,0,1-1.51-.31.32.32,0,0,0-.29.3l-.68,2c0,.25-.23.34-.53.17l-2.2-1.62a1,1,0,0,1-.39-.83l-.1-2.59a.58.58,0,0,0,0-.26,16.19,16.19,0,0,1-1.42-1.65.61.61,0,0,0-.16-.12.4.4,0,0,0-.33-.06h-2a.35.35,0,0,1-.29,0,1,1,0,0,1-.37-.42l-1.34-2.8c-.16-.33-.12-.64.09-.71l1.49-1,.15-.11a13.79,13.79,0,0,1-.49-2,1.17,1.17,0,0,0-.41-.56l-2.1-2a1,1,0,0,1-.39-.82Zm9.49,11.6c.14.1.29.2.43.28,1.57.91,2.95.36,3.16-1.35a6.88,6.88,0,0,0-2.73-5.71,3,3,0,0,0-.43-.29c-1.57-.91-2.94-.36-3.17,1.37a6.88,6.88,0,0,0,2.74,5.7Z" transform="translate(0)" style="fill:#fa7564"/></g><path d="M287.06,272.56a3.73,3.73,0,0,0,2.2,3.08l15.2,8.78v-3.48a2,2,0,0,1,1.08-1.63l-5.31-3.07a1.47,1.47,0,0,1-.87-1.23l0-7.14a1.48,1.48,0,0,1,.86-1.22l59-34.3a4.68,4.68,0,0,1,4.22,0l14,8.1c0-1,0-2,0-2.94a.81.81,0,0,1,.48-.67,2.6,2.6,0,0,1,2.35,0l10,5.79a.85.85,0,0,1,.5.69l0,4.84,7.31,4.22a1.48,1.48,0,0,1,.88,1.23v4.27l6.21-3.61a3.71,3.71,0,0,0,2.17-3c0,2.38,0,4.76,0,7.14a3.7,3.7,0,0,1-2.17,3l-71,41.26a11.7,11.7,0,0,1-10.58,0l-34.42-19.87a3.73,3.73,0,0,1-2.2-3.09Q287,276.13,287.06,272.56Z" transform="translate(0)" style="fill:#103146"/><path d="M300.25,266.65l59-34.3a4.68,4.68,0,0,1,4.22,0l34.67,20a1.29,1.29,0,0,1,0,2.44l-59,34.31a4.68,4.68,0,0,1-4.22,0l-34.67-20A1.3,1.3,0,0,1,300.25,266.65Z" transform="translate(0)" style="fill:#7ecdf1"/><path d="M311.83,279.19a6.75,6.75,0,0,0-6.11,0c-1.68,1-1.67,2.57,0,3.54l6.24,3.61a6.72,6.72,0,0,0,6.11,0c1.68-1,1.66-2.56,0-3.54Z" transform="translate(0)" style="fill:#f6f7fb"/><path d="M405.21,248.13c2.92,1.69,2.93,4.45,0,6.13l-71,41.25a11.7,11.7,0,0,1-10.58,0l-34.42-19.88c-2.92-1.68-2.94-4.44,0-6.13l71-41.25a11.73,11.73,0,0,1,10.58,0Zm-105,18.52a1.3,1.3,0,0,0,0,2.45l34.67,20a4.68,4.68,0,0,0,4.22,0l59-34.31a1.29,1.29,0,0,0,0-2.44l-34.67-20a4.68,4.68,0,0,0-4.22,0l-59,34.3Zm5.5,16.07,6.24,3.61a6.72,6.72,0,0,0,6.11,0c1.68-1,1.66-2.56,0-3.54l-6.24-3.6a6.75,6.75,0,0,0-6.11,0c-1.68,1-1.67,2.57,0,3.54Zm84.62-40.1-10-5.79a2.6,2.6,0,0,0-2.35,0,.71.71,0,0,0,0,1.35L388,244a2.6,2.6,0,0,0,2.35,0,.72.72,0,0,0,0-1.37Z" transform="translate(0)" style="fill:#045981"/><path d="M380.35,236.83a2.6,2.6,0,0,0-2.35,0,.71.71,0,0,0,0,1.35L388,244a2.6,2.6,0,0,0,2.35,0,.72.72,0,0,0,0-1.37Z" transform="translate(0)" style="fill:#f6f7fb"/><g style="isolation:isolate"><g style="isolation:isolate"><path d="M386.52,207.34,389,205.7a2.82,2.82,0,0,1,2.84.28l-2.49,1.63a2.78,2.78,0,0,0-2.83-.27Z" transform="translate(0)" style="fill:#272f32"/></g><g style="isolation:isolate"><g style="isolation:isolate"><path d="M389.35,207.61l2.49-1.63a5.3,5.3,0,0,1,.71.49l-2.49,1.63a5.61,5.61,0,0,0-.71-.49Z" transform="translate(0)" style="fill:#272f32"/><path d="M390.06,208.1l2.49-1.63a7.92,7.92,0,0,1,1.32,1.33l-2.48,1.63a8,8,0,0,0-1.33-1.33Z" transform="translate(0)" style="fill:#272f32"/><path d="M391.39,209.43l2.48-1.63a8.62,8.62,0,0,1,1.94,5.06,5,5,0,0,1,0,.56l-2.49,1.63a4.91,4.91,0,0,0,0-.55,8.71,8.71,0,0,0-1.94-5.07Z" transform="translate(0)" style="fill:#191e20"/><path d="M393.29,215.05l2.49-1.63a3.12,3.12,0,0,1-.43,1.31l-2.48,1.63a3.12,3.12,0,0,0,.42-1.31Z" transform="translate(0)" style="fill:#191e20"/><path d="M392.87,216.36l2.48-1.63a2,2,0,0,1-.7.69l-2.49,1.64a2.16,2.16,0,0,0,.71-.7Z" transform="translate(0)" style="fill:#191e20"/></g></g><path d="M389.35,207.61a8.8,8.8,0,0,1,4,6.89c0,2.53-1.8,3.55-4,2.28a8.77,8.77,0,0,1-4-6.89C385.36,207.36,387.15,206.34,389.35,207.61Z" transform="translate(0)" style="fill:#21282a"/></g><g style="isolation:isolate"><g style="isolation:isolate"><path d="M376.83,215l10.4-6.43a2.22,2.22,0,0,1,2.24.22l-10.4,6.43a2.24,2.24,0,0,0-2.24-.22Z" transform="translate(0)" style="fill:#272f32"/></g><g style="isolation:isolate"><g style="isolation:isolate"><path d="M379.07,215.23l10.4-6.43a5,5,0,0,1,.56.38l-10.4,6.43a5,5,0,0,0-.56-.38Z" transform="translate(0)" style="fill:#272f32"/><path d="M379.63,215.61l10.4-6.43a6.52,6.52,0,0,1,1.05,1l-10.4,6.44a6.59,6.59,0,0,0-1.05-1.06Z" transform="translate(0)" style="fill:#272f32"/><path d="M380.68,216.67l10.4-6.44a6.85,6.85,0,0,1,1.52,4c0,.15,0,.3,0,.43l-10.4,6.43c0-.13,0-.28,0-.43a6.79,6.79,0,0,0-1.52-4Z" transform="translate(0)" style="fill:#191e20"/><path d="M382.18,221.09l10.4-6.43a2.6,2.6,0,0,1-.34,1l-10.4,6.43a2.55,2.55,0,0,0,.34-1Z" transform="translate(0)" style="fill:#191e20"/><path d="M381.84,222.13l10.4-6.43a1.7,1.7,0,0,1-.55.55l-10.4,6.43a1.61,1.61,0,0,0,.55-.55Z" transform="translate(0)" style="fill:#191e20"/></g></g><path d="M379.07,215.23a6.87,6.87,0,0,1,3.13,5.43c0,2-1.41,2.8-3.15,1.8a6.93,6.93,0,0,1-3.14-5.43C375.92,215,377.33,214.23,379.07,215.23Z" transform="translate(0)" style="fill:#21282a"/></g><g style="isolation:isolate"><polygon points="362.1 243.26 343.12 232.22 346.3 224.64 365.29 235.68 362.1 243.26" style="fill:#272f32"/><polygon points="365.29 235.68 346.3 224.64 374.17 208.55 393.16 219.59 365.29 235.68" style="fill:#354044"/><polygon points="352.65 248.72 333.66 237.68 343.12 232.22 362.1 243.26 352.65 248.72" style="fill:#354044"/><polygon points="352.71 271.65 333.72 260.62 333.66 237.68 352.65 248.72 352.71 271.65" style="fill:#272f32"/><polygon points="393.16 219.59 393.24 248.25 379.62 256.12 365.37 264.34 352.71 271.65 352.65 248.72 362.1 243.26 365.29 235.68 393.16 219.59" style="fill:#191e20"/></g><g style="isolation:isolate"><g style="isolation:isolate"><path d="M326.69,255.68l14.84-8.62a3.76,3.76,0,0,1,3.81.37l-14.84,8.62a3.76,3.76,0,0,0-3.81-.37Z" transform="translate(0)" style="fill:#191e20"/></g><g style="isolation:isolate"><path d="M330.5,256.05l14.84-8.62a8.52,8.52,0,0,1,1,.65l-14.84,8.62a8.52,8.52,0,0,0-1-.65Z" transform="translate(0)" style="fill:#191e20"/><path d="M331.46,256.7l14.84-8.62a10.77,10.77,0,0,1,1.78,1.79l-14.84,8.63a11.24,11.24,0,0,0-1.78-1.8Z" transform="translate(0)" style="fill:#191e20"/><path d="M333.24,258.5l14.84-8.63a11.59,11.59,0,0,1,2.6,6.8,5.8,5.8,0,0,1,0,.74L335.8,266a5.9,5.9,0,0,0,0-.74,11.59,11.59,0,0,0-2.6-6.8Z" transform="translate(0)" style="fill:#191e20"/><path d="M335.8,266l14.84-8.63a4.11,4.11,0,0,1-.58,1.76l-14.84,8.63a4.11,4.11,0,0,0,.58-1.76Z" transform="translate(0)" style="fill:#191e20"/><path d="M335.22,267.8l14.84-8.63a2.73,2.73,0,0,1-.94.94l-14.84,8.62a2.69,2.69,0,0,0,.94-.93Z" transform="translate(0)" style="fill:#191e20"/></g><path d="M330.5,256.05a11.77,11.77,0,0,1,5.34,9.25c0,3.4-2.41,4.77-5.37,3.06a11.77,11.77,0,0,1-5.34-9.25C325.14,255.72,327.55,254.35,330.5,256.05Z" transform="translate(0)" style="fill:#3d250e"/></g><g style="isolation:isolate"><g style="isolation:isolate"><path d="M320.4,256.26l11-6.42c1.28-.75,3.06-.64,5,.49l-11,6.42c-2-1.13-3.74-1.24-5-.49Z" transform="translate(0)" style="fill:#1f2528"/></g><g style="isolation:isolate"><g style="isolation:isolate"><path d="M325.43,256.75l11-6.42a11.24,11.24,0,0,1,1.26.86l-11,6.42a11.24,11.24,0,0,0-1.26-.86Z" transform="translate(0)" style="fill:#1f2528"/><path d="M326.69,257.61l11-6.42a14.52,14.52,0,0,1,2.34,2.36L329,260a14.58,14.58,0,0,0-2.35-2.36Z" transform="translate(0)" style="fill:#1f2528"/><path d="M329,260l11-6.42a15.32,15.32,0,0,1,3.44,9,7.59,7.59,0,0,1-.06,1l-11,6.42a7.59,7.59,0,0,0,.06-1,15.31,15.31,0,0,0-3.43-9Z" transform="translate(0)" style="fill:#1f2528"/><path d="M332.41,269.92l11-6.42a5.67,5.67,0,0,1-.76,2.33l-11,6.41a5.72,5.72,0,0,0,.75-2.32Z" transform="translate(0)" style="fill:#1f2528"/><path d="M331.66,272.24l11-6.41a3.58,3.58,0,0,1-1.25,1.23l-11,6.42a3.61,3.61,0,0,0,1.25-1.24Z" transform="translate(0)" style="fill:#1f2528"/></g></g><path d="M325.43,256.75a15.52,15.52,0,0,1,7,12.19c0,4.49-3.19,6.3-7.09,4.05a15.55,15.55,0,0,1-7-12.2C318.36,256.3,321.53,254.5,325.43,256.75Z" transform="translate(0)" style="fill:#3d250e"/></g><g style="isolation:isolate"><g style="isolation:isolate"><path d="M330.32,279.71l6.51-3.78a.94.94,0,0,1-.39.86l-6.52,3.78a1,1,0,0,0,.4-.86Z" transform="translate(0)" style="fill:#191e20"/></g><g style="isolation:isolate"><path d="M313.39,252l6.51-3.78a1,1,0,0,1,1,.09l-6.52,3.79a.93.93,0,0,0-.95-.1Z" transform="translate(0)" style="fill:#191e20"/></g><polygon points="330.36 262.84 336.88 259.06 336.83 275.93 330.31 279.71 330.36 262.84" style="fill:#191e20"/><polygon points="314.34 252.05 320.86 248.26 335.54 256.74 329.02 260.52 314.34 252.05" style="fill:#354044"/><g style="isolation:isolate"><g style="isolation:isolate"><path d="M329,260.52l6.52-3.78a2.2,2.2,0,0,1,.6.51L329.63,261a2.48,2.48,0,0,0-.61-.52Z" transform="translate(0)" style="fill:#354044"/><path d="M329.63,261l6.51-3.79a3.16,3.16,0,0,1,.64,1.16l-6.52,3.79a3.06,3.06,0,0,0-.63-1.16Z" transform="translate(0)" style="fill:#272f32"/><path d="M330.26,262.2l6.52-3.79a2.5,2.5,0,0,1,.1.65l-6.52,3.78a2,2,0,0,0-.1-.64Z" transform="translate(0)" style="fill:#191e20"/></g></g><path d="M329,260.52a2.92,2.92,0,0,1,1.34,2.32l0,16.87c0,.85-.61,1.2-1.35.77L314.29,272a2.92,2.92,0,0,1-1.34-2.33l0-16.87c0-.85.61-1.19,1.35-.76Z" transform="translate(0)" style="fill:#272f32"/><path d="M314.88,271a1.84,1.84,0,0,1-.75-1.29l.05-16.37,14.25,8.23a1.79,1.79,0,0,1,.75,1.29l-.05,16.37Z" transform="translate(0)" style="fill:#191e20"/></g><path d="M321.94,258.6a14.64,14.64,0,0,1,6.65,11.51c0,4.24-3,5.95-6.69,3.82a14.69,14.69,0,0,1-6.65-11.52C315.26,258.18,318.26,256.47,321.94,258.6Z" transform="translate(0)" style="fill:#02d4cf"/><g style="isolation:isolate"><polygon points="334.52 243.78 330.33 241.35 330.31 234.57 334.5 237 334.52 243.78" style="fill:#1f2528"/><polygon points="334.5 237 330.31 234.57 343.11 227.18 347.3 229.62 334.5 237" style="fill:#191e20"/><polygon points="347.3 229.62 347.32 236.4 334.52 243.78 334.5 237 347.3 229.62" style="fill:#191e20"/></g><g style="isolation:isolate"><path d="M334.29,237.42c0,.27-.19.39-.42.25a1,1,0,0,1-.44-.73c0-.27.19-.39.42-.26A1,1,0,0,1,334.29,237.42Z" transform="translate(0)" style="fill:#959123"/><path d="M333.13,244.2a2.82,2.82,0,0,1-2.81-.24,8.9,8.9,0,0,1-4.11-7,2.9,2.9,0,0,1,1.19-2.68,5,5,0,0,1,.57-.28,6.37,6.37,0,0,1,.61-.23,5.76,5.76,0,0,1,1.49-.21,5.34,5.34,0,0,1,1.52.22,5.66,5.66,0,0,1,1.21.52,4.43,4.43,0,0,1,.6.4,5.44,5.44,0,0,1,.71.62,7.3,7.3,0,0,1,.85,1.12,8.13,8.13,0,0,1,.37.74,6.23,6.23,0,0,1,.28.83,7.11,7.11,0,0,1,.14.7c0,.21,0,.48,0,.68a2.47,2.47,0,0,0-1.5-2,1,1,0,0,0-.44-.74c-.23-.13-.42,0-.42.26a1,1,0,0,0,.44.73c.23.14.42,0,.42-.25a2.47,2.47,0,0,1,1.5,2,5.55,5.55,0,0,1-.16,1.44,5.44,5.44,0,0,1-.57,1.39,4.75,4.75,0,0,1-.76,1,4.89,4.89,0,0,1-.47.44A6.67,6.67,0,0,1,333.13,244.2Z" transform="translate(0)" style="fill:#959123"/><path d="M335.79,239.44a5,5,0,0,1-.05.86c0,.22-.1.52-.15.74s-.13.4-.2.57-.22.47-.33.66a4.75,4.75,0,0,1-.76,1,6.66,6.66,0,0,1-.62.56,6.49,6.49,0,0,1-.55.36,2.86,2.86,0,0,0,1.18-2.67A2.51,2.51,0,0,0,335.79,239.44Z" transform="translate(0)" style="fill:#afafaf"/><path d="M327.4,234.33c.22-.11.52-.27.76-.36a4.18,4.18,0,0,1,.6-.19,5.76,5.76,0,0,1,1.44-.17,5.41,5.41,0,0,1,1.39.22,5.91,5.91,0,0,1,1.45.66,6.22,6.22,0,0,1,.59.44l.26.22.41.43s.23.27.36.45a6.34,6.34,0,0,1,.43.7,6.14,6.14,0,0,1,.52,1.32,5.63,5.63,0,0,1,.18,1.39,2.51,2.51,0,0,1-1.48,2.09,8.88,8.88,0,0,0-4.1-6.95A2.82,2.82,0,0,0,327.4,234.33Z" transform="translate(0)" style="fill:#afafaf"/><path d="M322.87,250.17a2.82,2.82,0,0,1-2.81-.24,8.89,8.89,0,0,1-4.11-7,2.89,2.89,0,0,1,1.18-2.68l10.27-6a2.9,2.9,0,0,0-1.19,2.68,8.9,8.9,0,0,0,4.11,7,2.82,2.82,0,0,0,2.81.24Z" transform="translate(0)" style="fill:#959123"/><path d="M317.52,250.19a6,6,0,0,1-2.21-2.18,6.55,6.55,0,0,1-.37-.74,4.27,4.27,0,0,1-.28-.83,3.37,3.37,0,0,1-.14-.7c0-.2,0-.48,0-.68a5.81,5.81,0,0,1,.17-1.44,5.44,5.44,0,0,1,.56-1.39,5.52,5.52,0,0,1,.76-1,5,5,0,0,1,.48-.44,7.77,7.77,0,0,1,.69-.48A2.89,2.89,0,0,0,316,243a8.89,8.89,0,0,0,4.11,7,2.82,2.82,0,0,0,2.81.24l-.52.26a4.49,4.49,0,0,1-.61.23,7.66,7.66,0,0,1-.8.18,5.06,5.06,0,0,1-.68,0,6.47,6.47,0,0,1-.76,0,6.8,6.8,0,0,1-.76-.15,3.58,3.58,0,0,1-.55-.19C318,250.42,317.72,250.29,317.52,250.19Z" transform="translate(0)" style="fill:#959123"/><path d="M333.13,244.2l-10.26,6a2.87,2.87,0,0,0,1.18-2.68l10.26-6A2.86,2.86,0,0,1,333.13,244.2Z" transform="translate(0)" style="fill:#afafaf"/><path d="M316.83,247.56c0,.28-.18.39-.42.26a.91.91,0,0,1-.43-.73c0-.28.18-.39.42-.26A.94.94,0,0,1,316.83,247.56Z" transform="translate(0)" style="fill:#dbdce0"/><path d="M317.13,240.3l10.27-6a2.82,2.82,0,0,1,2.81.25,8.88,8.88,0,0,1,4.1,6.95l-10.26,6a8.89,8.89,0,0,0-4.11-7A2.82,2.82,0,0,0,317.13,240.3Z" transform="translate(0)" style="fill:#afafaf"/><path d="M322.87,250.17c-.23.12-.53.27-.76.36a3.54,3.54,0,0,1-.55.18,6,6,0,0,1-1,.17,3.75,3.75,0,0,1-.67,0,5.23,5.23,0,0,1-.78-.11,5.07,5.07,0,0,1-1.05-.33,6.2,6.2,0,0,1-.81-.43s-.31-.2-.59-.43a6.34,6.34,0,0,1-1.18-1.34,5.88,5.88,0,0,1-.71-1.5,5.69,5.69,0,0,1-.21-.91c0-.35-.06-.77-.06-.77a5.42,5.42,0,0,1,.27-1.8,5.55,5.55,0,0,1,.92-1.7,4.76,4.76,0,0,1,.6-.63l.32-.27.55-.36a2.82,2.82,0,0,1,2.81.24,8.89,8.89,0,0,1,4.11,7,8.08,8.08,0,0,1-7.22.07.94.94,0,0,0-.43-.73c-.24-.13-.43,0-.42.26a.91.91,0,0,0,.43.73c.24.13.42,0,.42-.26a8.08,8.08,0,0,0,7.22-.07A2.87,2.87,0,0,1,322.87,250.17Z" transform="translate(0)" style="fill:#dbdce0"/></g><g style="isolation:isolate"><polygon points="376.68 224.23 373.2 222.21 373.18 213.61 376.66 215.63 376.68 224.23" style="fill:#090b0c"/><g style="isolation:isolate"><path d="M376.66,215.63l-3.48-2a1.82,1.82,0,0,0-.09-.61l0-.12,3.48,2s0,.07,0,.11a1.87,1.87,0,0,1,.09.61Z" transform="translate(0)" style="fill:#090b0c"/><path d="M376.53,214.91l-3.48-2a1.38,1.38,0,0,0-.2-.31,1,1,0,0,0-.23-.19l3.48,2a.83.83,0,0,1,.23.19,1,1,0,0,1,.2.32Z" transform="translate(0)" style="fill:#090b0c"/></g><g style="isolation:isolate"><path d="M374.73,209l-3.49-2a7,7,0,0,1,2-.8,4.21,4.21,0,0,1,1.76,0,3.24,3.24,0,0,1,1,.38l3.49,2a3.21,3.21,0,0,0-1-.38,4.21,4.21,0,0,0-1.76,0,7.16,7.16,0,0,0-2,.8Z" transform="translate(0)" style="fill:#354044"/></g><polygon points="345.46 242.25 341.98 240.23 341.96 231.63 345.44 233.65 345.46 242.25" style="fill:#272f32"/><polygon points="352.11 222.1 348.63 220.08 371.24 207.02 374.73 209.04 352.11 222.1" style="fill:#354044"/><g style="isolation:isolate"><g style="isolation:isolate"><path d="M345.44,233.65l-3.48-2c0-.22,0-.45,0-.68l3.48,2c0,.22,0,.45,0,.67Z" transform="translate(0)" style="fill:#272f32"/><path d="M345.46,233,342,231a11.33,11.33,0,0,1,.28-1.78,13.83,13.83,0,0,1,.83-2.5,16.53,16.53,0,0,1,1.37-2.51l3.48,2a16,16,0,0,0-1.37,2.5,14.09,14.09,0,0,0-.83,2.5,11.27,11.27,0,0,0-.28,1.79Z" transform="translate(0)" style="fill:#272f32"/><path d="M347.94,226.19l-3.48-2a15.08,15.08,0,0,1,1.57-2,12.21,12.21,0,0,1,1.17-1.11l3.48,2a11,11,0,0,0-1.17,1.1,15.18,15.18,0,0,0-1.57,2Z" transform="translate(0)" style="fill:#272f32"/><path d="M350.68,223.11l-3.48-2a10.25,10.25,0,0,1,1.43-1l3.48,2a9.55,9.55,0,0,0-1.43,1Z" transform="translate(0)" style="fill:#354044"/></g></g></g><path d="M381.46,221.47l0-8.6a6.53,6.53,0,0,0-.54-2.69,3.35,3.35,0,0,0-2.43-2,4.21,4.21,0,0,0-1.76,0,7.16,7.16,0,0,0-2,.8L352.11,222.1a11.59,11.59,0,0,0-2.6,2.11,15.88,15.88,0,0,0-2.94,4.48,14.09,14.09,0,0,0-.83,2.5,10.67,10.67,0,0,0-.3,2.46l0,8.6,4.77-2.76,0-8.6a3.13,3.13,0,0,1,.15-.94,4.53,4.53,0,0,1,.69-1.37,3.84,3.84,0,0,1,.5-.56,2.88,2.88,0,0,1,.56-.43l22.62-13.06a1.9,1.9,0,0,1,.74-.25,1,1,0,0,1,.85.31,1.37,1.37,0,0,1,.24.43,1.87,1.87,0,0,1,.09.61l0,8.6S381.46,221.48,381.46,221.47Z" transform="translate(0)" style="fill:#191e20"/><polygon points="390.65 232.49 385.69 235.35 385.69 228.05 390.65 225.19 390.65 232.49" style="fill:#3f4a4e"/><path d="M381.8,232.36c0-1.38-1-1.94-2.17-1.25a4.78,4.78,0,0,0-2.17,3.75c0,1.39,1,1.95,2.17,1.26A4.8,4.8,0,0,0,381.8,232.36Z" transform="translate(0)" style="fill:#3f4a4e"/><path d="M381.8,240.27c0-1.38-1-1.94-2.17-1.25a4.78,4.78,0,0,0-2.17,3.76c0,1.38,1,1.94,2.17,1.25A4.78,4.78,0,0,0,381.8,240.27Z" transform="translate(0)" style="fill:#3f4a4e"/><path d="M381.8,248c0-1.38-1-1.94-2.17-1.25a4.78,4.78,0,0,0-2.17,3.76c0,1.38,1,1.94,2.17,1.25A4.78,4.78,0,0,0,381.8,248Z" transform="translate(0)" style="fill:#3f4a4e"/><path d="M390.85,243.4a4.65,4.65,0,0,1-2.1,3.64l-.13.08c-1.16.67-2.1.13-2.1-1.21v-4.45a4.65,4.65,0,0,1,2.1-3.64l.13-.08c1.16-.67,2.1-.13,2.1,1.21Z" transform="translate(0)" style="fill:#3f4a4e"/><g style="isolation:isolate"><g style="isolation:isolate"><path d="M296.9,43.19l2.42-1.59a2.74,2.74,0,0,1,2.76.27l-2.42,1.59a2.72,2.72,0,0,0-2.76-.27Z" transform="translate(0)" style="fill:#272f32"/></g><g style="isolation:isolate"><g style="isolation:isolate"><path d="M299.66,43.46l2.42-1.59a6,6,0,0,1,.69.47l-2.42,1.59a4.43,4.43,0,0,0-.69-.47Z" transform="translate(0)" style="fill:#272f32"/><path d="M300.35,43.93l2.42-1.59a7.94,7.94,0,0,1,1.29,1.3l-2.42,1.59a7.22,7.22,0,0,0-1.29-1.3Z" transform="translate(0)" style="fill:#272f32"/><path d="M301.64,45.23l2.42-1.59a8.37,8.37,0,0,1,1.88,4.93,4.58,4.58,0,0,1,0,.53l-2.41,1.59a4.63,4.63,0,0,0,0-.54,8.36,8.36,0,0,0-1.89-4.92Z" transform="translate(0)" style="fill:#191e20"/><path d="M303.5,50.69l2.41-1.59a3.12,3.12,0,0,1-.41,1.28L303.08,52a3.07,3.07,0,0,0,.42-1.27Z" transform="translate(0)" style="fill:#191e20"/><path d="M303.08,52l2.42-1.58a1.92,1.92,0,0,1-.69.67l-2.41,1.59a1.92,1.92,0,0,0,.68-.68Z" transform="translate(0)" style="fill:#191e20"/></g></g><path d="M299.66,43.46a8.5,8.5,0,0,1,3.87,6.69c0,2.46-1.75,3.46-3.89,2.22a8.48,8.48,0,0,1-3.87-6.7C295.78,43.21,297.52,42.22,299.66,43.46Z" transform="translate(0)" style="fill:#21282a"/></g><g style="isolation:isolate"><g style="isolation:isolate"><path d="M287.48,50.65,297.6,44.4a2.15,2.15,0,0,1,2.18.21l-10.12,6.26a2.18,2.18,0,0,0-2.18-.22Z" transform="translate(0)" style="fill:#272f32"/></g><g style="isolation:isolate"><g style="isolation:isolate"><path d="M289.66,50.87l10.12-6.26a5.77,5.77,0,0,1,.54.37L290.2,51.24a3.7,3.7,0,0,0-.54-.37Z" transform="translate(0)" style="fill:#272f32"/><path d="M290.2,51.24,300.32,45a6.22,6.22,0,0,1,1,1l-10.12,6.25a6.15,6.15,0,0,0-1-1Z" transform="translate(0)" style="fill:#272f32"/><path d="M291.22,52.26,301.34,46a6.67,6.67,0,0,1,1.49,3.88c0,.15,0,.29,0,.42l-10.12,6.26a2.77,2.77,0,0,0,0-.42,6.67,6.67,0,0,0-1.49-3.89Z" transform="translate(0)" style="fill:#191e20"/><path d="M292.68,56.57l10.12-6.26a2.46,2.46,0,0,1-.33,1l-10.12,6.26a2.32,2.32,0,0,0,.33-1Z" transform="translate(0)" style="fill:#191e20"/><path d="M292.35,57.58l10.12-6.26a1.55,1.55,0,0,1-.54.54l-10.12,6.25a1.44,1.44,0,0,0,.54-.53Z" transform="translate(0)" style="fill:#191e20"/></g></g><path d="M289.66,50.87a6.73,6.73,0,0,1,3,5.28c0,1.94-1.38,2.73-3.07,1.75a6.71,6.71,0,0,1-3.05-5.28C286.59,50.67,288,49.89,289.66,50.87Z" transform="translate(0)" style="fill:#21282a"/></g><g style="isolation:isolate"><polygon points="258.12 103.92 238 92.23 237.92 62.31 258.03 74 258.12 103.92" style="fill:#272f32"/><polygon points="258.03 74 237.92 62.31 277.13 39.67 297.24 51.36 258.03 74" style="fill:#3b464a"/><polygon points="297.24 51.36 297.33 81.28 258.12 103.92 258.03 74 297.24 51.36" style="fill:#191e20"/></g><g style="isolation:isolate"><polygon points="257.18 66.89 252.7 64.28 252.67 53.75 257.15 56.35 257.18 66.89" style="fill:#272f32"/><polygon points="257.15 56.35 252.67 53.75 280.58 37.64 285.06 40.24 257.15 56.35" style="fill:#354044"/></g><g style="isolation:isolate"><g style="isolation:isolate"><g style="isolation:isolate"><path d="M283.51,15l-5.8-3.38A13.81,13.81,0,0,1,281.77,10l5.81,3.37A13.91,13.91,0,0,0,283.51,15Z" transform="translate(0)" style="fill:#3b464a"/><path d="M287.58,13.4,281.77,10a7.64,7.64,0,0,1,5.2.56L292.78,14a7.69,7.69,0,0,0-5.2-.56Z" transform="translate(0)" style="fill:#272f32"/><path d="M292.78,14,287,10.59l.24.13L293,14.1l-.23-.14Z" transform="translate(0)" style="fill:#272f32"/></g></g><g style="isolation:isolate"><g style="isolation:isolate"><path d="M274.1,46.62l-5.81-3.37c-2.39-1.4-3.88-4.36-3.89-8.57a25.12,25.12,0,0,1,2.35-10.09l5.8,3.38a25.27,25.27,0,0,0-2.34,10.09c0,4.21,1.49,7.17,3.89,8.56Z" transform="translate(0)" style="fill:#272f32"/><path d="M272.55,28l-5.8-3.38a32.37,32.37,0,0,1,4.49-7.28l5.8,3.37A32.43,32.43,0,0,0,272.55,28Z" transform="translate(0)" style="fill:#272f32"/><path d="M277,20.68l-5.8-3.37a24.33,24.33,0,0,1,6.47-5.66l5.8,3.38A24.26,24.26,0,0,0,277,20.68Z" transform="translate(0)" style="fill:#3b464a"/></g></g><path d="M283.51,15c7.37-4.26,13.37-.84,13.39,7.62s-5.93,18.78-13.3,23-13.37.84-13.39-7.63S276.14,19.28,283.51,15Z" transform="translate(0)" style="fill:#1b2022"/></g><g style="isolation:isolate"><g style="isolation:isolate"><g style="isolation:isolate"><path d="M254.84,25.39l-6.76-3.93a16.16,16.16,0,0,1,4.74-1.89l6.76,3.93a16.27,16.27,0,0,0-4.74,1.89Z" transform="translate(0)" style="fill:#3b464a"/><path d="M259.58,23.5l-6.76-3.93a8.9,8.9,0,0,1,6.05.65l6.77,3.93a8.93,8.93,0,0,0-6.06-.65Z" transform="translate(0)" style="fill:#272f32"/><path d="M265.64,24.15l-6.77-3.93.28.16,6.76,3.93-.27-.16Z" transform="translate(0)" style="fill:#272f32"/></g></g><g style="isolation:isolate"><g style="isolation:isolate"><path d="M243.88,62.2l-6.76-3.93c-2.79-1.63-4.52-5.08-4.54-10a29.3,29.3,0,0,1,2.74-11.76l6.76,3.94a29.2,29.2,0,0,0-2.73,11.75c0,4.9,1.74,8.35,4.53,10Z" transform="translate(0)" style="fill:#272f32"/><path d="M242.08,40.47l-6.76-3.94a37.47,37.47,0,0,1,5.23-8.48L247.31,32a37.31,37.31,0,0,0-5.23,8.49Z" transform="translate(0)" style="fill:#272f32"/><path d="M247.31,32l-6.76-3.93a28.32,28.32,0,0,1,7.53-6.59l6.76,3.93A28.49,28.49,0,0,0,247.31,32Z" transform="translate(0)" style="fill:#3b464a"/></g></g><path d="M254.84,25.39c8.59-5,15.58-1,15.6,8.88S263.53,56.15,255,61.11s-15.58,1-15.6-8.89S246.25,30.35,254.84,25.39Z" transform="translate(0)" style="fill:#1b2022"/></g><g style="isolation:isolate"><polygon points="261.38 93.41 258.14 91.52 258.12 83.89 261.36 85.78 261.38 93.41" style="fill:#272f32"/><polygon points="261.36 85.78 258.12 83.89 297.32 61.13 300.56 63.02 261.36 85.78" style="fill:#3b464a"/><polygon points="300.56 63.02 300.58 70.64 261.38 93.41 261.36 85.78 300.56 63.02" style="fill:#272f32"/></g><g style="isolation:isolate"><polygon points="252.5 78.72 254.89 77.34 254.84 93.32 252.46 94.7 252.5 78.72" style="fill:#171b1d"/><polygon points="238.6 70.69 240.98 69.31 254.89 77.34 252.5 78.72 238.6 70.69" style="fill:#1d2326"/><polygon points="252.5 78.72 252.46 94.7 238.56 86.67 238.6 70.69 252.5 78.72" style="fill:#22292c"/></g><g style="isolation:isolate"><g style="isolation:isolate"><path d="M225.55,84.67l16-9.29a4.08,4.08,0,0,1,4.1.41l-16,9.28c-1.6-.93-3.05-1-4.1-.4Z" transform="translate(0)" style="fill:#191e20"/></g><g style="isolation:isolate"><path d="M229.65,85.07l16-9.28a7.49,7.49,0,0,1,1,.7l-16,9.28a7.49,7.49,0,0,0-1-.7Z" transform="translate(0)" style="fill:#191e20"/><path d="M230.68,85.77l16-9.28a11.32,11.32,0,0,1,1.92,1.93l-16,9.28a11.32,11.32,0,0,0-1.92-1.93Z" transform="translate(0)" style="fill:#191e20"/><path d="M232.6,87.7l16-9.28a12.51,12.51,0,0,1,2.8,7.31,6.73,6.73,0,0,1-.05.8l-16,9.28a6.7,6.7,0,0,0,.05-.79,12.52,12.52,0,0,0-2.8-7.32Z" transform="translate(0)" style="fill:#191e20"/><path d="M235.35,95.81l16-9.28a4.58,4.58,0,0,1-.62,1.9l-16,9.28a4.58,4.58,0,0,0,.62-1.9Z" transform="translate(0)" style="fill:#191e20"/><path d="M234.73,97.71l16-9.28a2.87,2.87,0,0,1-1,1l-16,9.28a2.87,2.87,0,0,0,1-1Z" transform="translate(0)" style="fill:#191e20"/></g><path d="M229.65,85.07a12.65,12.65,0,0,1,5.75,10c0,3.65-2.6,5.13-5.78,3.29a12.65,12.65,0,0,1-5.75-10C223.88,84.7,226.47,83.23,229.65,85.07Z" transform="translate(0)" style="fill:#191e20"/></g><g style="isolation:isolate"><polygon points="230.02 84.58 211.84 74.02 221.07 77.06 239.25 87.63 230.02 84.58" style="fill:#272f32"/><polygon points="230.09 107.81 211.9 97.24 211.84 74.02 230.02 84.58 230.09 107.81" style="fill:#354044"/><polygon points="212.98 96.62 212.92 75.89 228.94 85.21 229 105.93 212.98 96.62" style="fill:#191e20"/><polygon points="215.13 95.38 215.09 79.65 226.79 86.45 226.83 102.17 215.13 95.38" style="fill:#02d4cf"/><polygon points="230.02 84.58 239.25 87.63 239.27 94.14 230.09 107.81 230.02 84.58" style="fill:#2d3538"/></g><polygon points="285.06 40.24 285.09 50.78 257.18 66.89 257.15 56.35 270.44 37 285.06 40.24" style="fill:#0f1416"/><path d="M298.84,68c0-1.48-1-2.08-2.32-1.34a5.13,5.13,0,0,0-2.32,4c0,1.48,1,2.08,2.32,1.34A5.13,5.13,0,0,0,298.84,68Z" transform="translate(0)" style="fill:#191e20"/><g style="isolation:isolate"><polygon points="120.17 69.88 117.22 68.16 117.22 69.02 120.17 70.73 120.17 69.88" style="fill:#0e1112"/><polygon points="120.15 63.69 117.2 61.97 117.2 62.82 120.16 64.54 120.15 63.69" style="fill:#0e1112"/><polygon points="120.29 47.03 117.34 45.32 117.37 57.1 120.33 58.82 120.29 47.03" style="fill:#0e1112"/><polygon points="119.55 48.32 116.59 46.6 116.62 56.68 119.58 58.39 119.55 48.32" style="fill:#938d86"/><polygon points="122.48 40.08 119.53 38.36 87.59 56.81 90.54 58.53 122.48 40.08" style="fill:#0e1112"/><polygon points="122.48 40.08 119.53 38.36 111.86 42.79 114.81 44.51 122.48 40.08" style="fill:#0e1112"/><polygon points="122.46 31.26 119.51 29.55 119.53 38.36 122.48 40.08 122.46 31.26" style="fill:#0e1112"/><polygon points="122.46 31.26 119.51 29.55 111.86 42.79 114.81 44.51 122.46 31.26" style="fill:#0f1314"/><polygon points="122.46 31.26 114.81 44.51 122.48 40.08 122.46 31.26" style="fill:#191e1f"/><polygon points="120.33 58.82 117.37 57.1 81.58 77.77 84.53 79.49 120.33 58.82" style="fill:#0e1112"/><polygon points="119.58 58.39 116.62 56.68 82.32 76.48 85.27 78.2 119.58 58.39" style="fill:#918a84"/><polygon points="119.55 48.32 116.59 46.6 105.78 52.84 108.73 54.56 119.55 48.32" style="fill:#0e1112"/><polygon points="108.73 54.56 105.78 52.84 105.81 62.92 108.76 64.64 108.73 54.56" style="fill:#0e1112"/><polygon points="108.73 54.14 105.78 52.42 105.78 52.84 108.73 54.56 108.73 54.14" style="fill:#938d86"/><polygon points="107.99 54.99 105.04 53.27 105.07 63.35 108.02 65.06 107.99 54.99" style="fill:#938d86"/><polygon points="107.99 54.57 107.99 54.99 108.02 65.06 108.76 64.64 108.73 54.56 108.73 54.14 107.99 54.57" style="fill:#f7ece1"/><polygon points="108.73 54.14 105.78 52.42 105.04 52.85 107.99 54.57 108.73 54.14" style="fill:#918a84"/><polygon points="107.99 54.57 105.04 52.85 105.04 53.27 107.99 54.99 107.99 54.57" style="fill:#938d86"/><polygon points="120.17 70.73 117.22 69.02 81.98 89.36 84.94 91.08 120.17 70.73" style="fill:#0e1112"/><polygon points="84.93 90.22 81.98 88.51 81.98 89.36 84.94 91.08 84.93 90.22" style="fill:#938d86"/><polygon points="120.17 69.88 117.22 68.16 81.98 88.51 84.93 90.22 120.17 69.88" style="fill:#918a84"/><polygon points="84.93 90.22 84.94 91.08 120.17 70.73 120.17 69.88 84.93 90.22" style="fill:#f7ece1"/><polygon points="120.16 64.54 117.2 62.82 81.96 83.17 84.92 84.88 120.16 64.54" style="fill:#0e1112"/><polygon points="120.15 63.69 117.2 61.97 81.96 82.31 84.92 84.03 120.15 63.69" style="fill:#918a84"/><polygon points="84.92 84.03 81.96 82.31 81.96 83.17 84.92 84.88 84.92 84.03" style="fill:#938d86"/><polygon points="84.92 84.03 84.92 84.88 120.16 64.54 120.15 63.69 84.92 84.03" style="fill:#f7ece1"/><polygon points="107.99 54.99 105.04 53.27 94 59.64 96.95 61.36 107.99 54.99" style="fill:#0e1112"/><polygon points="96.95 61.36 94 59.64 94.03 69.72 96.98 71.44 96.95 61.36" style="fill:#0e1112"/><polygon points="96.95 60.94 94 59.22 94 59.64 96.95 61.36 96.95 60.94" style="fill:#938d86"/><polygon points="96.21 61.79 93.26 60.07 93.29 70.15 96.24 71.86 96.21 61.79" style="fill:#938d86"/><polygon points="96.21 61.37 96.21 61.79 96.24 71.86 96.98 71.44 96.95 61.36 96.95 60.94 96.21 61.37" style="fill:#f7ece1"/><polygon points="96.95 60.94 94 59.22 93.26 59.65 96.21 61.37 96.95 60.94" style="fill:#918a84"/><polygon points="96.21 61.79 93.26 60.07 82.29 66.41 85.25 68.12 96.21 61.79" style="fill:#0e1112"/><polygon points="96.21 61.37 93.26 59.65 93.26 60.07 96.21 61.79 96.21 61.37" style="fill:#938d86"/><polygon points="85.25 68.12 82.29 66.41 82.32 76.48 85.27 78.2 85.25 68.12" style="fill:#0e1112"/><polygon points="84.5 67.7 81.55 65.98 81.58 77.77 84.53 79.49 84.5 67.7" style="fill:#938d86"/><polygon points="120.29 47.03 117.34 45.32 81.55 65.98 84.5 67.7 120.29 47.03" style="fill:#918a84"/><path d="M90.54,58.53l31.94-18.45.1,31.91L81.45,95.74l-.1-31.91,7.24-4.18Zm-6,21,35.8-20.67,0-11.79L84.5,67.7l0,11.79Zm.39,5.39,35.24-20.34v-.85L84.91,84v.85Zm0,6.2,35.24-20.35v-.85L84.93,90.22v.86Z" transform="translate(0)" style="fill:#191e1f"/><polygon points="108.73 54.56 108.76 64.64 119.58 58.39 119.55 48.32 108.73 54.56" style="fill:#191e1f"/><polygon points="122.46 30.73 119.5 29.01 118.85 29.39 121.8 31.11 122.46 30.73" style="fill:#918a84"/><polygon points="114.19 35.5 111.23 33.79 103.12 47.84 106.07 49.55 114.19 35.5" style="fill:#9e9790"/><polygon points="114.19 35.5 106.07 49.55 114.81 44.51 122.46 31.26 122.46 30.73 121.8 31.11 114.19 35.5" style="fill:#f7ece1"/><polygon points="121.8 31.11 118.85 29.39 111.23 33.79 114.19 35.5 121.8 31.11" style="fill:#918a84"/><polygon points="85.25 68.12 85.27 78.2 96.24 71.86 96.21 61.79 85.25 68.12" style="fill:#191e1f"/><path d="M120.33,58.82,84.53,79.49l0-11.79L120.29,47ZM85.27,78.2l34.31-19.81,0-10.07-10.82,6.24v-.42l-.74.43V55L97,61.36v-.42l-.74.43v.42l-11,6.33,0,10.08Z" transform="translate(0)" style="fill:#f7ece1"/><polygon points="96.95 61.36 96.98 71.44 108.02 65.06 107.99 54.99 96.95 61.36" style="fill:#191e1f"/><polygon points="115.89 24.14 122.5 30.27 123.5 20.93 115.89 24.14" style="fill:#191e1f"/><polygon points="115.89 24.14 112.94 22.42 119.54 28.55 122.5 30.27 115.89 24.14" style="fill:#0c0f10"/><polygon points="123.5 20.93 120.55 19.22 112.94 22.42 115.89 24.14 123.5 20.93" style="fill:#0e1011"/><polygon points="105.44 40.55 102.49 38.83 94.38 52.88 97.33 54.6 105.44 40.55" style="fill:#0f1314"/><polygon points="114.19 35.5 111.23 33.79 102.49 38.83 105.44 40.55 114.19 35.5" style="fill:#0e1112"/><polygon points="105.44 40.55 97.33 54.6 106.07 49.55 114.19 35.5 105.44 40.55" style="fill:#191e1f"/><polygon points="97.33 54.6 94.38 52.88 87.59 56.81 90.54 58.53 97.33 54.6" style="fill:#918a84"/><polygon points="115.89 24.14 112.94 22.42 104.28 26.08 107.23 27.79 115.89 24.14" style="fill:#8c8680"/><polygon points="107.23 27.79 104.28 26.08 111.28 32.57 114.23 34.29 107.23 27.79" style="fill:#7f7973"/><polygon points="107.23 27.79 114.23 34.29 121.8 31.11 122.45 30.73 122.5 30.27 115.89 24.14 107.23 27.79" style="fill:#f7ece1"/><polygon points="90.54 58.53 87.59 56.81 85.64 57.94 88.59 59.66 90.54 58.53" style="fill:#918a84"/><polygon points="90.54 58.53 87.59 56.81 85.64 57.94 88.59 59.66 90.54 58.53" style="fill:#0e1112"/><polygon points="97.33 54.6 90.54 58.53 88.59 59.66 97.33 54.6" style="fill:#7d7872"/><polygon points="105.44 40.55 102.49 38.83 93.75 43.88 96.7 45.6 105.44 40.55" style="fill:#918a84"/><polygon points="96.7 45.6 88.59 59.66 97.33 54.6 105.44 40.55 96.7 45.6" style="fill:#f7ece1"/><polygon points="96.7 45.6 93.75 43.88 85.64 57.94 88.59 59.66 96.7 45.6" style="fill:#9e9790"/><polygon points="88.59 59.66 85.64 57.94 78.4 62.12 81.35 63.83 88.59 59.66" style="fill:#0e1112"/><polygon points="87.96 50.64 81.35 62.1 81.35 63.83 88.59 59.66 96.7 45.6 87.96 50.64" style="fill:#191e1f"/><polygon points="81.35 63.83 78.4 62.12 78.5 94.03 81.45 95.74 81.35 63.83" style="fill:#0e1112"/><polygon points="81.35 62.1 78.4 60.38 78.4 62.12 81.35 63.83 81.35 62.1" style="fill:#0e1112"/><polygon points="87.96 50.64 85.01 48.93 78.4 60.38 81.35 62.1 87.96 50.64" style="fill:#0f1314"/><polygon points="96.7 45.6 93.75 43.88 85.01 48.93 87.96 50.64 96.7 45.6" style="fill:#0e1112"/><polygon points="98.56 31.44 95.61 29.73 102.61 36.23 105.56 37.95 98.56 31.44" style="fill:#0c0f10"/><polygon points="98.56 31.44 105.56 37.95 114.23 34.29 107.23 27.79 98.56 31.44" style="fill:#191e1f"/><polygon points="107.23 27.79 104.28 26.08 95.61 29.73 98.56 31.44 107.23 27.79" style="fill:#0e1011"/><polygon points="81.33 54.47 78.37 52.76 78.4 60.38 81.35 62.1 81.33 54.47" style="fill:#938d86"/><polygon points="87.96 50.64 85.01 48.93 78.37 52.76 81.33 54.47 87.96 50.64" style="fill:#918a84"/><polygon points="81.33 54.47 81.35 62.1 87.96 50.64 81.33 54.47" style="fill:#f7ece1"/><polygon points="89.89 35.1 86.94 33.38 93.95 39.88 96.9 41.59 89.89 35.1" style="fill:#7f7973"/><polygon points="89.89 35.1 96.9 41.59 105.56 37.95 98.56 31.44 89.89 35.1" style="fill:#f7ece1"/><polygon points="98.56 31.44 95.61 29.73 86.94 33.38 89.89 35.1 98.56 31.44" style="fill:#8c8680"/><polygon points="82.53 39.96 79.57 38.24 85.28 43.53 88.23 45.25 82.53 39.96" style="fill:#0c0f10"/><polygon points="82.53 39.96 81.66 48.02 88.23 45.25 82.53 39.96" style="fill:#f7ece1"/><polygon points="82.53 39.96 79.57 38.24 78.7 46.31 81.66 48.02 82.53 39.96" style="fill:#97908a"/><polygon points="82.73 38.12 82.53 39.96 88.23 45.25 96.9 41.59 89.89 35.1 82.73 38.12" style="fill:#191e1f"/><polygon points="82.73 38.12 79.78 36.41 79.57 38.24 82.53 39.96 82.73 38.12" style="fill:#0f1213"/><polygon points="89.89 35.1 86.94 33.38 79.78 36.41 82.73 38.12 89.89 35.1" style="fill:#0e1011"/></g><g style="isolation:isolate"><g style="isolation:isolate"><g style="isolation:isolate"><path d="M258.54,232.53l1.75-1a1.47,1.47,0,0,0,0,.36l-1.76,1a2.28,2.28,0,0,1,0-.36Z" transform="translate(0)" style="fill:#253747"/><path d="M258.57,232.89l1.76-1a2.5,2.5,0,0,0,.26.77l-1.75,1a2.83,2.83,0,0,1-.27-.77Z" transform="translate(0)" style="fill:#273949"/><path d="M258.84,233.66l1.75-1a3.14,3.14,0,0,0,.28.46l-1.75,1a2.6,2.6,0,0,1-.28-.45Z" transform="translate(0)" style="fill:#253747"/><path d="M259.12,234.11l1.75-1a3.11,3.11,0,0,0,.23.28l-1.75,1a2.26,2.26,0,0,1-.23-.29Z" transform="translate(0)" style="fill:#243645"/><path d="M259.35,234.4l1.75-1a2.4,2.4,0,0,0,.24.22l-1.75,1a2.4,2.4,0,0,1-.24-.22Z" transform="translate(0)" style="fill:#233442"/><path d="M259.59,234.62l1.75-1a1.48,1.48,0,0,0,.27.19l-1.75,1a2.22,2.22,0,0,1-.27-.19Z" transform="translate(0)" style="fill:#223240"/></g></g><polygon points="254.65 210.86 256.4 209.84 257.54 210.5 255.78 211.52 254.65 210.86" style="fill:#011e35"/><polygon points="259.86 234.81 261.61 233.79 283.11 246.2 281.36 247.22 259.86 234.81" style="fill:#233543"/><g style="isolation:isolate"><g style="isolation:isolate"><path d="M281.36,247.22l1.75-1h0l-1.75,1Z" transform="translate(0)" style="fill:#223240"/><path d="M281.37,247.23l1.75-1a.93.93,0,0,0,.93.08l-1.75,1a.93.93,0,0,1-.93-.08Z" transform="translate(0)" style="fill:#20303d"/></g></g><g style="isolation:isolate"><g style="isolation:isolate"><path d="M282.69,246.47l1.75-1v.08l-1.76,1s0-.06,0-.08Z" transform="translate(0)" style="fill:#8a3327"/><path d="M282.68,246.55l1.76-1a1.26,1.26,0,0,1-.05.28l-1.75,1a1.26,1.26,0,0,0,0-.28Z" transform="translate(0)" style="fill:#853126"/><path d="M282.64,246.83l1.75-1a1.43,1.43,0,0,1-.08.22l-1.76,1a.85.85,0,0,0,.09-.22Z" transform="translate(0)" style="fill:#802f25"/><path d="M282.55,247.05l1.76-1a1.57,1.57,0,0,1-.15.19l-1.76,1a.9.9,0,0,0,.15-.19Z" transform="translate(0)" style="fill:#7c2d23"/><path d="M282.4,247.24l1.76-1-.11.07-1.75,1,.1-.07Z" transform="translate(0)" style="fill:#772c22"/></g></g><g style="isolation:isolate"><g style="isolation:isolate"><path d="M286.62,252.23l1.76-1a.19.19,0,0,1,0,.08l-1.75,1v-.08Z" transform="translate(0)" style="fill:#253747"/><path d="M286.62,252.31l1.75-1a.82.82,0,0,1,0,.28l-1.75,1a1.18,1.18,0,0,0,0-.28Z" transform="translate(0)" style="fill:#243645"/><path d="M286.58,252.59l1.75-1a1.13,1.13,0,0,1-.08.22l-1.76,1a.73.73,0,0,0,.09-.22Z" transform="translate(0)" style="fill:#233442"/><path d="M286.49,252.81l1.76-1a.77.77,0,0,1-.16.19l-1.75,1a.7.7,0,0,0,.15-.19Z" transform="translate(0)" style="fill:#223240"/></g></g><polygon points="258.64 198.19 260.39 197.18 260.29 231.51 258.54 232.53 258.64 198.19" style="fill:#293c4d"/><polygon points="258.64 198.19 260.39 197.18 260.36 206.06 258.61 207.08 258.64 198.19" style="fill:#96372b"/><g style="isolation:isolate"><g style="isolation:isolate"><path d="M259,197.35l1.76-1-.11.08-1.75,1,.1-.08Z" transform="translate(0)" style="fill:#20303d"/><path d="M258.92,197.43l1.75-1a.58.58,0,0,0-.15.19l-1.75,1a.58.58,0,0,1,.15-.19Z" transform="translate(0)" style="fill:#223240"/><path d="M258.77,197.62l1.75-1a.73.73,0,0,0-.09.22l-1.75,1a.63.63,0,0,1,.09-.22Z" transform="translate(0)" style="fill:#233442"/><path d="M258.68,197.84l1.75-1a1.93,1.93,0,0,0,0,.27l-1.75,1a1.1,1.1,0,0,1,0-.27Z" transform="translate(0)" style="fill:#243645"/><path d="M258.64,198.11l1.75-1v.09l-1.75,1v-.08Z" transform="translate(0)" style="fill:#253747"/></g></g><g style="isolation:isolate"><g style="isolation:isolate"><path d="M259,197.35l1.76-1a.92.92,0,0,1,.93.09l-1.76,1a.93.93,0,0,0-.93-.08Z" transform="translate(0)" style="fill:#7e4f11"/><path d="M260,197.43l1.76-1h0l-1.75,1Z" transform="translate(0)" style="fill:#835211"/></g></g><polygon points="282.76 221.02 284.51 220 284.44 245.45 282.69 246.47 282.76 221.02" style="fill:#96372b"/><polygon points="258.61 207.08 260.36 206.06 284.51 220 282.76 221.02 258.61 207.08" style="fill:#833025"/><polygon points="285.57 222.5 287.32 221.48 287.31 224.44 285.56 225.46 285.57 222.5" style="fill:#011e35"/><polygon points="282.78 212.13 284.54 211.12 284.51 220 282.76 221.02 282.78 212.13" style="fill:#9e6315"/><polygon points="259.97 197.44 261.72 196.42 283.21 208.83 281.46 209.85 259.97 197.44" style="fill:#8a5712"/><g style="isolation:isolate"><g style="isolation:isolate"><path d="M281.46,209.85l1.75-1a1.85,1.85,0,0,1,.27.19l-1.75,1a2.22,2.22,0,0,0-.27-.19Z" transform="translate(0)" style="fill:#835211"/><path d="M281.73,210l1.75-1a1.7,1.7,0,0,1,.24.22l-1.75,1-.24-.22Z" transform="translate(0)" style="fill:#885512"/><path d="M282,210.26l1.75-1a2.17,2.17,0,0,1,.24.29l-1.75,1-.24-.29Z" transform="translate(0)" style="fill:#8d5813"/><path d="M282.21,210.55l1.75-1a4.21,4.21,0,0,1,.28.45l-1.75,1a3.4,3.4,0,0,0-.28-.45Z" transform="translate(0)" style="fill:#915b13"/><path d="M282.49,211l1.75-1a2.92,2.92,0,0,1,.26.77l-1.75,1a3.33,3.33,0,0,0-.26-.77Z" transform="translate(0)" style="fill:#965e14"/><path d="M282.75,211.77l1.75-1a2.46,2.46,0,0,1,0,.37l-1.76,1a2.4,2.4,0,0,0,0-.37Z" transform="translate(0)" style="fill:#915b13"/></g></g><path d="M285.8,211.85l.93,1.62V215l0,8.17-1.14-.66v3l1.14.66,0,7.19-.06,18.92c0,.84-.6,1.18-1.32.76l-29.4-17a2.92,2.92,0,0,1-1.32-2.28l.07-22.87,1.13.66,0-6.21-1.14-.65.05-15.52c0-.84.6-1.18,1.32-.76l10.71,6.19,12.3,7.1,1.32.76.94,1.61Zm-3,9.17,0-8.88a2.9,2.9,0,0,0-1.32-2.29L260,197.44c-.73-.42-1.33-.08-1.33.75l-.1,34.34a2.92,2.92,0,0,0,1.32,2.28l21.5,12.41c.73.42,1.32.08,1.33-.75l.07-25.45Z" transform="translate(0)" style="fill:#0b3a63"/><path d="M258.64,198.19l-.1,34.34a2.92,2.92,0,0,0,1.32,2.28l21.5,12.41c.73.42,1.32.08,1.33-.75l.07-25.45-24.15-13.94Z" transform="translate(0)" style="fill:#fb8c22"/><polygon points="285.56 225.46 287.31 224.44 288.45 225.1 286.7 226.12 285.56 225.46" style="fill:#1d4c75"/><path d="M286.24,253.08l1.75-1a.39.39,0,0,0,.1-.08l-1.75,1Z" transform="translate(0)" style="fill:#293c4d"/><polygon points="286.7 226.12 286.68 233.31 286.62 252.23 288.38 251.21 288.43 232.3 288.45 225.1 286.7 226.12" style="fill:#04243d"/><path d="M281.46,209.85a2.9,2.9,0,0,1,1.32,2.29l0,8.88-24.15-13.94,0-8.89c0-.83.6-1.17,1.33-.75Z" transform="translate(0)" style="fill:#f2c204"/><polygon points="286.73 213.47 286.73 214.99 286.71 223.16 288.46 222.14 288.48 213.97 288.49 212.45 286.73 213.47" style="fill:#04243d"/><path d="M280.79,200.65l-12.29-7.1-10.71-6.19h0l-.14-.07-.12,0a.8.8,0,0,0-.15,0l-.09,0a.37.37,0,0,0-.15,0H257a.62.62,0,0,0-.19.07l-1.76,1a.68.68,0,0,1,.2-.07h.08a.65.65,0,0,1,.14,0l.1,0,.15,0,.11.05.16.07,10.71,6.19,12.3,7.1,1.32.76,1.75-1Z" transform="translate(0)" style="fill:#1d4c75"/><polygon points="287.55 210.83 283.05 203.02 282.11 201.41 280.36 202.43 281.3 204.04 285.8 211.85 286.73 213.47 288.49 212.45 287.55 210.83" style="fill:#1d4c75"/></g><path d="M260.84,202.51c0-.95.49-.95,1.13-.59a8.77,8.77,0,0,1,1.6,1.12v.72c-.36-.25-1.18-.75-1.38-.87-.35-.21-.55-.3-.55.15v.23a.72.72,0,0,0,.45.73l.65.37a2.06,2.06,0,0,1,1,1.84v.32c0,1.09-.59,1-1.15.63A8.89,8.89,0,0,1,261,206v-.72c.23.15.92.6,1.45.91.24.13.51.25.51-.12v-.26a.69.69,0,0,0-.37-.67l-.64-.36a2.06,2.06,0,0,1-1.08-1.9Z" transform="translate(0)" style="fill:#f75a2f"/><path d="M264.26,203.28l1.77,1a3.51,3.51,0,0,1,1.44,3.25c0,1.42-.43,2.14-1.44,1.55l-1.77-1Zm1.7,5c.52.29.71-.2.71-1.16,0-1.29-.26-1.76-.71-2l-.91-.52v3.17Z" transform="translate(0)" style="fill:#f75a2f"/><path d="M270.75,207A8.09,8.09,0,0,1,272.2,208v.72s-.71-.5-1.26-.82-.81-.31-.81,1.14c0,1.08.15,1.68.81,2.06s1.26.67,1.26.67v.72a5.17,5.17,0,0,1-1.45-.65c-1.05-.62-1.42-1.75-1.42-3.27S269.62,206.32,270.75,207Z" transform="translate(0)" style="fill:#f75a2f"/><path d="M272.51,211.63c0-.51.24-.82.89-.44l.88.51a1.76,1.76,0,0,0,0-.23.67.67,0,0,0-.4-.66c-.26-.15-1-.53-1.27-.65v-.57a3.87,3.87,0,0,1,1.38.56,1.9,1.9,0,0,1,1.09,1.75v2.43l-.63-.36-.17-.48a.94.94,0,0,1-.91-.11,1.77,1.77,0,0,1-.86-1.42Zm1.08,1.14a1.15,1.15,0,0,0,.69.13v-.64l-.73-.35c-.21-.1-.24.06-.24.21v.17A.47.47,0,0,0,273.59,212.77Z" transform="translate(0)" style="fill:#f75a2f"/><path d="M275.55,211.12l.67.39.13.51a.78.78,0,0,1,.86,0,1.56,1.56,0,0,1,.34.24v.88l-.44-.27c-.33-.19-.57-.26-.76,0v2.22l-.8-.46Z" transform="translate(0)" style="fill:#f75a2f"/><path d="M278.75,212.91a4.5,4.5,0,0,1,.91.75v-1.83l.79.45v5.15l-.65-.38-.14-.43a1.17,1.17,0,0,1-.91-.13,2.45,2.45,0,0,1-1-2.34C277.76,213,277.91,212.43,278.75,212.91Zm.2,2.91a1.12,1.12,0,0,0,.71.19v-1.72a3.24,3.24,0,0,0-.71-.54c-.25-.14-.39-.06-.39.83S278.7,215.67,279,215.82Z" transform="translate(0)" style="fill:#f75a2f"/><path d="M260.39,221.7a11.38,11.38,0,0,1,3.16,1.51,3.56,3.56,0,0,1,1.77,3v.59c0,.82-.24,1.24-.74,1.17a3,3,0,0,1,.74,2.11v.48c0,1.31-.64,1.65-1.84,1a14.68,14.68,0,0,1-3-2.06v-1.15l2.48,1.43c.65.38,1,.53,1-.19v-.35a1.55,1.55,0,0,0-.94-1.4l-1.95-1.21v-1.27l1.95,1c.67.35,1,.34,1-.25v-.41a1.55,1.55,0,0,0-1-1.33l-2.61-1.51Z" transform="translate(0)" style="fill:#fbd804"/><path d="M266.16,224.91a18.76,18.76,0,0,1,3,1.43,4.31,4.31,0,0,1,2.12,3.78c0,1.85-2.05,2.58-2.7,2.8l2.7,1.56v1.46l-5-2.9v-1.39c.92-.18,3.65-1,3.65-2.31a2,2,0,0,0-1.19-1.78l-2.53-1.47Z" transform="translate(0)" style="fill:#fbd804"/><path d="M273.44,231.64a10.79,10.79,0,0,1,1.83,1.3v.82s-.87-.64-1.62-1.07-.86,0-.86,1.37.15,1.9.82,2.3a1,1,0,0,0,.82.13v-1l-.67-.39v-.66a3,3,0,0,1,1.14.47,4.37,4.37,0,0,1,.44.27v3.11l-.65-.37-.25-.51c-.21.1-.46.11-1-.18-1.35-.72-1.55-2.15-1.55-3.72S272.14,230.89,273.44,231.64Z" transform="translate(0)" style="fill:#fbd804"/><path d="M276,233.18l2,1.14a2.53,2.53,0,0,1,1.35,2.24c0,.51-.19,1-.66.8a2.2,2.2,0,0,1,.73,1.66c0,1-.4,1.39-1.4.81l-2-1.14Zm1.91,3.29c.32.18.5.05.5-.34a1,1,0,0,0-.5-.92l-1-.57v1.25Zm0,2.41c.28.16.53.15.53-.43a1.21,1.21,0,0,0-.53-1.08l-1-.59v1.51Z" transform="translate(0)" style="fill:#fbd804"/><path d="M367,157.74c0,1.12-1.5,2.25-3.45,3.38l-21.92,12.65v-2.33a1.14,1.14,0,0,0-.2-.62l16.42-9.48a1,1,0,0,0,.56-.8c0-1.67,0-3.34,0-5a1,1,0,0,0-.56-.78L303.6,123.22a3,3,0,0,0-2.73,0L251.07,152a1,1,0,0,0-.56.8v3.76l-1.34-.78a3.82,3.82,0,0,1-2.23-3.14c0,1.67,0,3.34,0,5a3.86,3.86,0,0,0,2.24,3.15l56.19,32.65a12.05,12.05,0,0,0,10.91,0l47.28-27.29c1.95-1.13,3.45-2.25,3.44-3.38C367,161.08,367,159.41,367,157.74Z" transform="translate(0)" style="fill:#103146"/><path d="M357.84,154.75,303.6,123.22a3,3,0,0,0-2.73,0L251.07,152a.84.84,0,0,0,0,1.58l54.25,31.52a3,3,0,0,0,2.73,0l49.8-28.75A.83.83,0,0,0,357.84,154.75Z" transform="translate(0)" style="fill:#7ecdf1"/><polygon points="290.34 150.52 312.15 149.7 310.67 162.34 290.34 150.52" style="fill:#eafbf3"/><path d="M287.64,144.38c9.33-5.39,24.46-5.39,33.73,0s9.22,14.15-.11,19.53-24.46,5.39-33.73,0S278.31,149.76,287.64,144.38Zm31.81,18.48c8.33-4.81,8.37-12.62.1-17.43s-21.77-4.81-30.09,0-8.37,12.62-.1,17.43,21.77,4.81,30.09,0Z" transform="translate(0)" style="fill:#eafbf3"/><path d="M336.46,170.21a4.73,4.73,0,0,1,4.29,0,1.31,1.31,0,0,1,0,2.48l-4.38,2.53a4.68,4.68,0,0,1-4.28,0,1.31,1.31,0,0,1,0-2.48Z" transform="translate(0)" style="fill:#f6f7fb"/><path d="M296.48,122.14a12.07,12.07,0,0,1,10.92,0l58.11,33.77c3,1.74,1.06,3.47-1.95,5.21l-47.27,27.29a12.08,12.08,0,0,1-10.91,0l-56.2-32.66c-3-1.74-3-4.59,0-6.32Zm61.36,32.61L303.6,123.22a3,3,0,0,0-2.73,0L251.07,152a.84.84,0,0,0,0,1.58l54.25,31.52a3,3,0,0,0,2.73,0l49.8-28.75a.83.83,0,0,0,0-1.57Zm-17.11,17.94a1.31,1.31,0,0,0,0-2.48,4.73,4.73,0,0,0-4.29,0l-4.38,2.53a1.31,1.31,0,0,0,0,2.48,4.68,4.68,0,0,0,4.28,0l4.38-2.53Z" transform="translate(0)" style="fill:#045981"/><path d="M76.15,154.54c.44-2.68,8.45-45.22,39.23-48.57,16.71-4.68,35.22.88,49.27,10.13,10.89,7.18,25.16,29.37,25.47,29.84a168.46,168.46,0,0,1,13.81,10.61c6.81,6.26,13.39,13.42,17.69,21.67,21.25,40.78-10.48,73-22.3,79.73-14.39,8.23-29.64,14.61-46,16.12-23.63,2.17-105.15-5.16-94-74.31C63.6,172.89,73.22,159.84,76.15,154.54Z" transform="translate(0)" style="fill:#fe7260"/><path d="M59.27,199.76c4.33-26.87,13.95-39.92,16.88-45.22.39-2.37,6.69-35.81,29.37-45.9a51.27,51.27,0,0,0-5.65,7.68c-4.12,8.24,0,14.42,4.12,22.66,2.06,4.13-2.06,10.31-4.12,14.43C87.5,174,54.53,207,85.44,221.42c16.49,8.24,33,18.55,49.46,28.85,33,24.73,55.64-16.49,82.44-35,1.94-2,6.63-3.41,11-3.14C225.62,236,207.6,253.22,199.32,258c-14.39,8.23-29.64,14.61-46,16.12C129.64,276.24,48.12,268.91,59.27,199.76Z" transform="translate(0)" style="fill:#d83a3a"/><path d="M145,169.14c6.64-1,16.94-1.69,21.68,4,1.77,2.11,5.49,1.34,6.87-.82,2.89,1.77,5.66,3.75,8.32,5.68,7.85,5.69,16.9,12.42,17.2,23.22.42,14.79-6.46,67.47-19.5,66.38-8.76-.73-21.26-48.64-30-48-11.49.79-17.06-2-25.85-9.09-3.39-2.74-7.52-5-10.38-8.31-4.68-5.38,1.49-11.51,4.57-15.11C125.18,178.46,133.33,170.86,145,169.14Z" transform="translate(0)" style="fill:#d83a3a"/><path d="M170.62,271s-10.38,1.32-8,9.1c.14.46,1.28,3.64,5.54,3,2.83-.44,5.48,2.08,6.3,2.7,4.91,3.66,10.56,3.56,14.69,3,3.05-.44,3-2.92,3.49-5.12.17-.76-6.72-5.33-10.71-7.22C175.53,273.38,170.62,271,170.62,271Z" transform="translate(0)" style="fill:#1e2022"/><path d="M170.62,268.45s-8.73-3.81-8.42,9.52c0,.49,1.68,3.22,5.94,2.57,2.83-.44,5.48,2.08,6.3,2.69,4.91,3.67,10.56,3.57,14.69,3,8.82-1.28-1.12-9.46-7.22-12.34C175.53,270.85,170.62,268.45,170.62,268.45Z" transform="translate(0)" style="fill:#4d5a65"/><path d="M198.27,265.94s-10.38,1.32-8,9.1c.14.46,1.28,3.64,5.54,3,2.83-.44,5.48,2.08,6.3,2.7,4.9,3.66,10.55,3.56,14.69,3,3.05-.44,3-2.92,3.49-5.12.17-.76-6.72-5.33-10.71-7.22C203.18,268.34,198.27,265.94,198.27,265.94Z" transform="translate(0)" style="fill:#1e2022"/><path d="M198.27,263.41s-8.72-3.8-8.42,9.52c0,.49,1.68,3.22,5.94,2.57,2.83-.44,5.48,2.08,6.3,2.69,4.9,3.67,10.55,3.57,14.69,3,8.81-1.28-1.13-9.46-7.22-12.34C203.18,265.81,198.27,263.41,198.27,263.41Z" transform="translate(0)" style="fill:#4d5a65"/><path d="M160.58,168.29c.25,5.06,10,12.82,10,12.82,5-.25,8.42-8.67,8.18-13.73l-2.51-39.74c-.26-5-4.14-8.36-9.16-8.11,0,0-9.29,4-9,9Z" transform="translate(0)" style="fill:#18adbe"/><path d="M130,138.63c0-7.38,5.35-13.31,17.86-17.75,3.06-1.09,13.84-1.81,13.84-1.81s6,5.15,6,9.28c0,7.38-1.08,41.06-8.45,41.06S130,146,130,138.63Z" transform="translate(0)" style="fill:#e2b19b"/><path d="M139.19,83.43c-21.59-9.9-33.63,34.15-19,50.7,2.55,2.88,12.2,2.62,13.52-.57,5.42-13.12-11.75-31.36,1-42.31A8.34,8.34,0,0,0,137,89.72C139.12,87.75,144.33,86.38,139.19,83.43Z" transform="translate(0)" style="fill:#2c0c03"/><path d="M139.19,83.43a14,14,0,0,0-7.55-1.35c-3.08,5-2.46,9.37-.56,14a13.55,13.55,0,0,1,3.64-4.81A8.34,8.34,0,0,0,137,89.72C139.12,87.75,144.33,86.38,139.19,83.43Z" transform="translate(0)" style="fill:#10a1af"/><path d="M171.6,120.41c-3.18-1.54-6-1.64-9.93-1.34,0,0,0,17-2,17-6.94,0-18.18-12.1-19.91-11.67v0c-4.31,1.87-9.32,6.66-12.25,11.14,5.24,8.78,3.85,23,4.22,33.5.23,6.54.88,13.32,1,20.06,8.71,3.51,16.91,5.91,26.82,3.9,2.54-.52,7.91-2.9,11.67-3.19-.15-1.52-.3-3-.46-4.43a87.35,87.35,0,0,1,2.78-31C177.16,141.87,176.54,132.58,171.6,120.41Z" transform="translate(0)" style="fill:#10a1af"/><g id="_5" data-name="5"><path d="M146.59,175.1l-.29.26-.28.33.28-.33a5.76,5.76,0,0,0-1.84,5.65,2.17,2.17,0,0,0,.34.64,1.72,1.72,0,0,0,.44.41A12,12,0,0,1,146.59,175.1Z" transform="translate(0)" style="fill:#fff"/><path d="M154.09,164.62a1.93,1.93,0,0,0-1.1-.14,5.76,5.76,0,0,0-3.13,2.13,6.07,6.07,0,0,0-1.58,4.13A11.53,11.53,0,0,1,154.09,164.62Z" transform="translate(0)" style="fill:#fff"/><path d="M158.32,171.73l-.15.07c-.39.19-.82.44-1.28.72.33-.2.63-.4.92-.61l.58-.42c6.1-4.68,3.86-9.91.93-8.77-1.14.44-2.37,1.83-3.26,4.59a21.35,21.35,0,0,0-.69,2.76v0c0,.19-.07.4-.11.62s0,.2,0,.3c0-.11,0-.21,0-.32.05-.32.08-.65.11-.95a.08.08,0,0,1,0,0c.28-3.12-.32-4.63-1.29-5.09a11.53,11.53,0,0,0-5.81,6.12c.13,1.24,1,2.27,3,2.65l.17,0h0a2.16,2.16,0,0,0,.38.06h-.59a8,8,0,0,0-2.6.44,6.88,6.88,0,0,0-2.08,1.18,12,12,0,0,0-1.35,7,2.24,2.24,0,0,0,2.17,0c1.27-.57,2.91-2,4.87-4.72a28,28,0,0,0-2.82,4.91,11.07,11.07,0,0,0-.52,1.48c-.41,1.55-.22,2.54.32,3a.8.8,0,0,0,.21.15,1.46,1.46,0,0,0,.82.22,3.19,3.19,0,0,0,1.41-.37,5.87,5.87,0,0,0,1.5-1.1,9.31,9.31,0,0,0,2.53-7.59c0-.17,0-.35-.07-.52s0-.35-.07-.52-.13-.6-.2-.92c.06.24.12.45.19.66s.14.41.21.59a3.28,3.28,0,0,0,.15.36,4.66,4.66,0,0,0,.52.95C160.15,184,166.93,167.62,158.32,171.73Z" transform="translate(0)" style="fill:#fff"/><path d="M153.63,173.49c-6.58-.27,2.66-10,1.38-1.38,1.28-8.61,7.33-3.15.9.82,6.43-4,.93,8.62-.82,1.88,1.75,6.74-7.7,9.05-1.41.35C148.09,183.26,147.05,172.72,153.63,173.49Z" transform="translate(0)" style="fill:#fff"/><path d="M154.42,173.34c-4.17-.17,1.69-6.35.88-.88.81-5.47,4.66-2,.57.52,4.09-2.52.59,5.48-.52,1.2,1.11,4.28-4.89,5.75-.9.22C150.9,179.55,150.24,172.85,154.42,173.34Z" transform="translate(0)" style="fill:#ffc526"/><path d="M164.11,139.89a2.16,2.16,0,0,0-3-.3,6.71,6.71,0,0,0-1.6,1.48A4.94,4.94,0,0,1,164.11,139.89Z" transform="translate(0)" style="fill:#fff"/><path d="M171.09,136.84c.19-2.53-2.19-3.17-4-1.64a4.86,4.86,0,0,0-1.16,1.44C168.12,135.22,170.4,135.08,171.09,136.84Z" transform="translate(0)" style="fill:#fff"/><path d="M171.77,140a7.35,7.35,0,0,0-3,1.92l-.13.13c-.34.33-.72.71-1.1,1.13l.76-.87.47-.59a9.64,9.64,0,0,0,2.32-4.83c-.69-1.76-3-1.62-5.16-.2a7.52,7.52,0,0,0-.83,3.34,11.8,11.8,0,0,0,.13,2.24h0c0,.15,0,.31.08.49a.93.93,0,0,0,0,.22,2,2,0,0,0,0-.24,6.68,6.68,0,0,0-.18-.71h0a5.35,5.35,0,0,0-1-2.09,4.94,4.94,0,0,0-4.63,1.18,9,9,0,0,0-1,1.55c-1.31,2.62-1.05,5.5,3.53,3.93a1.08,1.08,0,0,0,.18-.07h0l.42-.16-.59.29h0a14.17,14.17,0,0,0-2.55,1.61c-3.4,2.73-3.56,6-2.21,7a1.57,1.57,0,0,0,.55.27,3.16,3.16,0,0,0,2.81-1.06,16.1,16.1,0,0,0,3.6-5.68,22.09,22.09,0,0,0-1.44,4.78,8.75,8.75,0,0,0-.08,1.28c0,1.26.54,1.84,1.25,1.91h.26a2.46,2.46,0,0,0,.91-.27,5.24,5.24,0,0,0,1.35-1,7.29,7.29,0,0,0,1.21-1.5,6,6,0,0,0,.32-6.47,3.15,3.15,0,0,0-.22-.33l-.23-.31c-.15-.18-.31-.35-.48-.53a3.16,3.16,0,0,0,.39.35,3.56,3.56,0,0,0,.41.3,1.23,1.23,0,0,0,.25.17,3.21,3.21,0,0,0,.82.39c1.78.6,3.19-.56,4-2.14C173.3,143.07,172.93,140.92,171.77,140Z" transform="translate(0)" style="fill:#fff"/><path d="M171.77,140c1.16,1,1.53,3.12,1.19,5.44C174.26,142.91,174.14,139.41,171.77,140Z" transform="translate(0)" style="fill:#fff"/><path d="M164.45,145.44c-6.87,3.13-.26-8.18,1-1.64-1.27-6.54,6.63-5.85,1.18.1,5.45-6,3.57,5.44-.28,1.71,3.85,3.73-5.22,10.07-1.35.95C161.68,154.92,157.43,148.22,164.45,145.44Z" transform="translate(0)" style="fill:#fff"/><path d="M165.23,144.94c-4.37,2-.17-5.2.64-1-.81-4.16,4.21-3.72.75.06,3.46-3.78,2.26,3.45-.18,1.08,2.44,2.37-3.32,6.4-.86.61C163.47,151,160.76,146.7,165.23,144.94Z" transform="translate(0)" style="fill:#ffc526"/><path d="M138.83,146.48a15.38,15.38,0,0,1,2.5-4.08,4.43,4.43,0,0,0-1.75,1.35,7.34,7.34,0,0,0-1.53,3.28c-.18,1.06,0,2,.62,2.28A4.53,4.53,0,0,1,138.83,146.48Z" transform="translate(0)" style="fill:#fff"/><path d="M147.05,136.81a1.7,1.7,0,0,1,1.63.29c-.2-2.54-3.25-1.57-4.68.61a4.44,4.44,0,0,0-.7,1.83A6.2,6.2,0,0,1,147.05,136.81Z" transform="translate(0)" style="fill:#fff"/><path d="M150.72,137.54l.29.15c1.46.57,1.56,2.8,1.08,5C154.45,140.25,153.34,136,150.72,137.54Z" transform="translate(0)" style="fill:#fff"/><path d="M151,137.69l-.29-.15a5.78,5.78,0,0,0-1.52,1.36c0,.07,0,.13,0,.2s0-.13,0-.2a14.56,14.56,0,0,0-1.24,1.8l-.09.15c-.23.39-.47.83-.7,1.3.17-.33.32-.65.45-1l.27-.61a8,8,0,0,0,.79-3.49,1.7,1.7,0,0,0-1.63-.29,6.2,6.2,0,0,0-3.75,2.73,3.77,3.77,0,0,0,.38,2.14,5.41,5.41,0,0,0,.89,1.26h0a2.72,2.72,0,0,0,.24.24l.12.11a.69.69,0,0,0-.13-.11c-.13-.12-.28-.23-.41-.33h0a3.09,3.09,0,0,0-3-.45,15.38,15.38,0,0,0-2.5,4.08,4.53,4.53,0,0,0-.16,2.83c.72.36,2.07-.07,4.22-2l.16-.14s0,0,0,0l.37-.33-.49.5,0,0a20.4,20.4,0,0,0-2,2.41c-2.42,3.56-1.47,5.56.21,5.39a2.61,2.61,0,0,0,.63-.15,5.2,5.2,0,0,0,2.41-2.24,12.47,12.47,0,0,0,1.62-5.43A11,11,0,0,0,146,151a2.71,2.71,0,0,0,.36.8,1.32,1.32,0,0,0,1.88.42l.26-.15a4.12,4.12,0,0,0,.81-.68,6.5,6.5,0,0,0,1-1.34,7.12,7.12,0,0,0,.68-1.59c.52-1.73.2-3.49-1.9-4l-.33-.07-.34-.05-.66,0a4.3,4.3,0,0,0,.51,0c.17,0,.34,0,.5-.06a1.46,1.46,0,0,0,.31,0,6.59,6.59,0,0,0,.95-.24,5,5,0,0,0,2-1.26C152.57,140.49,152.47,138.26,151,137.69Z" transform="translate(0)" style="fill:#fff"/><path d="M144.92,145.28c-5.72,5.78-3.07-4.69.43-1.54-3.5-3.15,4.54-7.26,1.2-.62,3.34-6.64,5.39,1.18.31,1.17,5.08,0-1.7,9-1,1.34C145.43,152.48,138.93,151,144.92,145.28Z" transform="translate(0)" style="fill:#fff"/><path d="M147,141.89a5.24,5.24,0,0,1-.48,1.28c2.12-4.22,3.42.75.2.74,3.22,0-1.09,5.68-.65.85-.26,4.35-4.4,3.38-.59-.22-3.64,3.67-1.95-3,.28-1-1.95-1.75,1.72-4,1.24-1.67Z" transform="translate(0)" style="fill:#ffc526"/></g><path d="M127.48,177a9.11,9.11,0,0,0,9.55,8.69h0a9.12,9.12,0,0,0,8.64-9.6l-2.51-39.74a9.13,9.13,0,0,0-9.55-8.7h0a9.14,9.14,0,0,0-8.64,9.61Z" transform="translate(0)" style="fill:#0dc2d1"/><path d="M156.3,126a11.83,11.83,0,0,1-6.17-.45,9.25,9.25,0,0,1-4.84-3.72l-.15-7.75,13.71-1.19.48,9.56C158.91,124,158.21,125.44,156.3,126Z" transform="translate(0)" style="fill:#e2b19b"/><path d="M138.33,100.89c.55,3.5,3,13.75,5.52,15.63,3.6,2.65,12,6.85,16.73,3.65,6.33-4.27,7.34-15.7,7.34-26.9s-8.54-13.3-15.81-8.53S136.6,89.83,138.33,100.89Z" transform="translate(0)" style="fill:#ebc1ae"/><path d="M140.15,100.32c1,2.76,2.29,4.4,4,4.17s2.7-2.09,2.32-5-2.92-5-4.68-4.81S139.06,97.18,140.15,100.32Z" transform="translate(0)" style="fill:#ebc1ae"/><path d="M209.58,268.42c-.25-1.05,1.21-59-2.59-65-4.82-7.65-36.29-20.91-36.64-20.67-11.14,7.82-37.5,3.09-37.63,4-1.06,8.16-3.22,17.28,3.67,25.34,3.06,3.57,26.59,11.47,32,14,.36.17-5.58,44.13-5.53,45.24.21,4.36,21.13,8.64,21.13-1,0-5.64,5.18-37.64,3.87-51.61,1.92,4.48,3.15,25.93,1.78,50.9C191.07,274.52,211.17,275,209.58,268.42Z" transform="translate(0)" style="fill:#002542"/><path d="M144.27,208.33,168.45,222a4.54,4.54,0,0,0,4.11-.05l12.8-7.57-3.5-2v-.94l-2.37,1.39-.34-.19,0-2,0,2.37L174,216.12l-.33-.19v.38l-6.81,4-3.2-1.82v-.85l-.72.43-1.08-.62-2.12-1.21L156,214.15l0-1.06-.91.53-3.2-1.82V211l-.7.41-3.2-1.82h0l0-2.38,3.31-1.95.64.37v-.74l3.31-1.94.63.36v-.73l3.3-1.95.64.36v-.73l3.3-2,.64.36v-.73L167,196l.64.37v-.74l3.31-1.95.64.37v-.74l3.31-1.95.64.37V191l3.31-2,.63.37v-.74l3.31-1.95,3.2,1.83v.82l.79-.47-1.84-1.05h0l0-2.38,3.31-1.95,3.19,1.83,0,.82.7-.42,3.2,1.83v.82L196,188l3.2,1.83v.82l.71-.41,3.2,1.82v.85l.73-.43,3.19,1.82,0,2.38h0l-7,4.13-.41-.24,0-1.9,0,2.38-4.7,2.77,3.46,2v1l15.65-9.27a1.43,1.43,0,0,0,.84-1.21c0,.79,0,1.59,0,2.38a1.46,1.46,0,0,1-.84,1.21l-41.5,24.58a4.6,4.6,0,0,1-4.12,0l-24.18-13.7a1.43,1.43,0,0,1-.85-1.17c0-.79,0-1.59,0-2.38A1.46,1.46,0,0,0,144.27,208.33Z" transform="translate(0)" style="fill:#4d5a65"/><polygon points="179.41 188.64 182.61 190.46 185.91 188.52 182.71 186.69 179.41 188.64" style="fill:#f8fafc"/><polygon points="183.92 190.52 187.12 192.35 195.26 187.55 192.06 185.72 183.92 190.52" style="fill:#f8fafc"/><polygon points="175.47 190.96 178.67 192.78 181.97 190.84 178.78 189.01 175.47 190.96" style="fill:#f8fafc"/><polygon points="189.91 191.53 193.11 193.35 199.18 189.78 195.98 187.95 189.91 191.53" style="fill:#f8fafc"/><polygon points="171.53 193.28 174.73 195.1 178.04 193.15 174.84 191.33 171.53 193.28" style="fill:#f8fafc"/><polygon points="186.18 193.72 189.38 195.55 192.68 193.6 189.49 191.78 186.18 193.72" style="fill:#f8fafc"/><polygon points="176.23 195.05 179.42 196.87 182.73 194.93 179.53 193.1 176.23 195.05" style="fill:#f8fafc"/><polygon points="191.75 194.98 194.95 196.8 203.09 192.01 199.89 190.19 191.75 194.98" style="fill:#f8fafc"/><polygon points="167.59 195.6 170.79 197.42 174.1 195.47 170.9 193.65 167.59 195.6" style="fill:#f8fafc"/><polygon points="182.46 195.92 185.66 197.74 188.96 195.79 185.77 193.97 182.46 195.92" style="fill:#f8fafc"/><polygon points="196.82 196.55 200.02 198.37 207.02 194.25 203.83 192.43 196.82 196.55" style="fill:#f8fafc"/><polygon points="172.46 197.27 175.66 199.09 178.97 197.14 175.77 195.32 172.46 197.27" style="fill:#f8fafc"/><polygon points="187.99 197.2 191.19 199.02 194.49 197.07 191.29 195.25 187.99 197.2" style="fill:#f8fafc"/><polygon points="178.74 198.11 181.94 199.93 185.25 197.98 182.04 196.16 178.74 198.11" style="fill:#f8fafc"/><polygon points="184.31 199.36 187.51 201.19 190.82 199.24 187.62 197.42 184.31 199.36" style="fill:#f8fafc"/><polygon points="159.73 200.24 162.92 202.06 166.23 200.11 163.03 198.29 159.73 200.24" style="fill:#f8fafc"/><polygon points="191.24 199.84 194.44 201.66 199.61 198.62 196.41 196.79 191.24 199.84" style="fill:#f8fafc"/><polygon points="175.02 200.3 178.22 202.12 181.53 200.17 178.32 198.35 175.02 200.3" style="fill:#f8fafc"/><polygon points="180.59 201.56 183.79 203.38 187.09 201.43 183.9 199.61 180.59 201.56" style="fill:#f8fafc"/><polygon points="155.79 202.56 158.99 204.38 162.29 202.43 159.09 200.61 155.79 202.56" style="fill:#f8fafc"/><polygon points="171.3 202.49 174.5 204.31 177.81 202.36 174.61 200.54 171.3 202.49" style="fill:#f8fafc"/><polygon points="161.17 203.92 164.37 205.74 167.68 203.79 164.48 201.97 161.17 203.92" style="fill:#f8fafc"/><polygon points="176.91 203.72 180.11 205.55 183.42 203.6 180.22 201.78 176.91 203.72" style="fill:#f8fafc"/><polygon points="151.85 204.87 155.05 206.69 158.36 204.75 155.16 202.93 151.85 204.87" style="fill:#f8fafc"/><polygon points="147.91 207.18 151.11 209.01 154.42 207.06 151.22 205.24 147.91 207.18" style="fill:#f8fafc"/><polygon points="167.58 204.68 170.78 206.5 174.09 204.56 170.89 202.73 167.58 204.68" style="fill:#f8fafc"/><polygon points="157.41 206.13 160.61 207.96 163.91 206.01 160.72 204.19 157.41 206.13" style="fill:#f8fafc"/><polygon points="173.07 205.99 176.26 207.81 179.58 205.86 176.38 204.04 173.07 205.99" style="fill:#f8fafc"/><polygon points="163.87 206.87 167.06 208.7 170.37 206.74 167.17 204.92 163.87 206.87" style="fill:#f8fafc"/><polygon points="169.39 208.15 172.59 209.98 175.9 208.03 172.7 206.2 169.39 208.15" style="fill:#f8fafc"/><polygon points="160.14 209.06 163.34 210.89 166.65 208.94 163.45 207.11 160.14 209.06" style="fill:#f8fafc"/><polygon points="151.83 209.42 155.03 211.25 160.15 208.23 156.95 206.41 151.83 209.42" style="fill:#f8fafc"/><polygon points="165.67 210.34 168.87 212.17 172.17 210.22 168.98 208.39 165.67 210.34" style="fill:#f8fafc"/><polygon points="181.83 210.04 186.57 212.73 198.4 205.73 193.66 203.04 181.83 210.04" style="fill:#f8fafc"/><polygon points="170.74 211.91 173.94 213.73 179.11 210.7 175.91 208.87 170.74 211.91" style="fill:#f8fafc"/><polygon points="155.96 211.77 159.66 213.88 161.79 215.09 162.86 215.71 168.44 212.42 165.24 210.59 163.52 211.61 159.82 209.5 155.96 211.77" style="fill:#f8fafc"/><path d="M185.76,181.38a4.54,4.54,0,0,1,4.11,0L214.05,195a1.26,1.26,0,0,1,0,2.38L172.56,222a4.54,4.54,0,0,1-4.11.05l-24.18-13.7a1.26,1.26,0,0,1,0-2.38Zm.81,31.35,11.83-7L193.66,203l-11.83,7,4.74,2.68Zm7.4-10.79-3.2-1.82-14.53,8.55,3.2,1.83L194,201.94Zm-32.18,13.15,1.07.61,5.58-3.28-3.2-1.83-1.72,1-3.7-2.11L156,211.77l3.71,2.11,2.13,1.21Zm22.13-24.57,3.2,1.83,8.14-4.8-3.2-1.83-8.14,4.8Zm7.83,4.46,3.2,1.82,8.14-4.79-3.2-1.82L191.75,195Zm15.27-.73-3.19-1.82-7,4.12,3.2,1.82,7-4.12Zm-33.41,19.68-3.19-1.83-6.82,4,3.19,1.83,6.82-4Zm16.3-22.4,3.2,1.82,6.07-3.57L196,188l-6.07,3.58Zm9.7,7.09-3.2-1.83-5.17,3.05,3.2,1.82,5.17-3Zm-20.5,12.08-3.2-1.83-5.17,3,3.2,1.82,5.17-3Zm-19-2.47-3.2-1.82-5.12,3,3.2,1.83,5.12-3Zm6.5.71-3.2-1.83-3.31,1.95,3.2,1.83,3.31-1.95Zm13.94-7.38,3.2,1.81,3.3-1.94-3.19-1.82-3.31,1.95Zm-13-6,3.21,1.82,3.3-1.95-3.2-1.82-3.31,1.95ZM173.07,206l3.19,1.82,3.32-1.95L176.37,204l-3.3,2Zm-12.35-1.8-3.31,1.95,3.2,1.82,3.3-2-3.19-1.82Zm18.68-15.55,3.21,1.82,3.3-1.94-3.2-1.83-3.31,1.95Zm.13,4.46-3.3,2,3.19,1.82,3.31-2-3.2-1.82Zm8.46,4.1,3.2,1.82,3.3-2-3.19-1.82L188,197.2ZM164.48,202l-3.31,1.95,3.2,1.82,3.31-2-3.2-1.82Zm3.76-2.21-3.3,1.94,3.19,1.82,3.31-1.94-3.2-1.82Zm3.77-2.22-3.31,1.94,3.2,1.83,3.3-1.95L172,197.54Zm-24.1,9.65,3.2,1.83,3.31-2-3.2-1.83-3.31,1.95Zm3.94-2.32,3.2,1.83,3.31-1.95-3.2-1.82-3.31,1.94Zm40.83-11.27-3.19-1.82-3.31,1.94,3.2,1.83,3.3-2Zm-14.87,8.76-3.2-1.82-3.31,2,3.2,1.82,3.31-1.95ZM189,195.79,185.77,194l-3.31,1.95,3.2,1.82,3.3-2Zm-14.87,8.77-3.2-1.83-3.31,2,3.2,1.82,3.31-1.94Zm-14.36-4.32,3.19,1.82,3.31-1.95-3.2-1.82-3.3,2Zm10.64,6.5-3.2-1.82-3.3,2,3.19,1.83,3.31-2Zm5.1-15.78,3.2,1.82,3.3-1.94L178.78,189l-3.31,2Zm9.78,7-3.2-1.82-3.31,2,3.2,1.82,3.31-2Zm-3.72,2.19-3.21-1.82-3.3,2,3.2,1.82,3.31-2ZM180,192.83l3.2,1.83,3.3-1.95-3.2-1.82-3.3,1.94Zm-24.2,9.73,3.2,1.81,3.3-1.94-3.2-1.82-3.3,1.95Zm13.6,5.59,3.2,1.83,3.3-1.95-3.19-1.83-3.31,2Zm6.38-12.83-3.31,2,3.2,1.82,3.31-2-3.2-1.82Zm1.14,8.4,3.2,1.83,3.31-2-3.2-1.82-3.31,1.94Zm-11.24,6.62,3.2,1.83,3.3-1.95L169,208.39l-3.31,2Zm5.86-17.06,3.2,1.82,3.31-1.95-3.2-1.82-3.31,1.95Zm16.62-9.79-3.31,1.95,3.2,1.82,3.3-1.94-3.19-1.83Zm-24.49,14.43,3.2,1.82,3.3-2L167,196l-3.3,1.95Zm20.65,1.44,3.2,1.83,3.31-1.95-3.2-1.82-3.31,1.94Z" transform="translate(0)" style="fill:#292f37"/><polygon points="184.84 185.44 188.04 187.26 191.34 185.31 188.15 183.49 184.84 185.44" style="fill:#f8fafc"/><polygon points="179.99 192.83 183.19 194.66 186.49 192.71 183.29 190.89 179.99 192.83" style="fill:#f8fafc"/><polygon points="163.66 197.92 166.86 199.74 170.17 197.79 166.97 195.97 163.66 197.92" style="fill:#f8fafc"/><polygon points="168.7 199.48 171.9 201.31 175.2 199.36 172.01 197.54 168.7 199.48" style="fill:#f8fafc"/><polygon points="164.94 201.7 168.13 203.52 171.44 201.58 168.24 199.75 164.94 201.7" style="fill:#f8fafc"/><polygon points="176.24 208.67 179.44 210.5 193.97 201.94 190.78 200.12 176.24 208.67" style="fill:#f8fafc"/><polygon points="163.6 216.12 166.79 217.95 173.61 213.93 170.42 212.1 163.6 216.12" style="fill:#f8fafc"/><path d="M154.76,204.52c.51-3.86,5.33-7.64,7.36-8.31a45.75,45.75,0,0,1,6.42,4.22c3.64,2.83,7.35,6.55,7.77,9.94.89,7.22-2.08,8-5.24,7.88C166.3,218.1,160.28,205.15,154.76,204.52Z" transform="translate(0)" style="fill:#ebc1ae"/><path d="M130.25,170.92a8.94,8.94,0,0,1,12.68,0l23.72,27.29-8.19,9.39-28.29-24A9,9,0,0,1,130.25,170.92Z" transform="translate(0)" style="fill:#0dc2d1"/><path d="M199.75,189.49l-8.19,9.38-21-17.76a80.21,80.21,0,0,1,3.24-20.51,8.65,8.65,0,0,1,2.19,1.61Z" transform="translate(0)" style="fill:#18adbe"/><path d="M170.71,192.55,212.21,168a1.49,1.49,0,0,1,1.47-.16l2.07,1.18a1.44,1.44,0,0,0-1.46.15l-2.16,1.28.17.06h0l1.23.7.84.48a.89.89,0,0,1,.37.79l.35,25.44a2.72,2.72,0,0,1-1.21,2.15c-.32-.19-.65-.37-1-.55h0l1,.55L174,223.65a.9.9,0,0,1-.88.09l-2-1.15,0,2.51a1.47,1.47,0,0,0,.62,1.32l-1-.59-1-.59a1.44,1.44,0,0,1-.62-1.32l-.39-27.78A4.54,4.54,0,0,1,170.71,192.55Z" transform="translate(0)" style="fill:#4d5a65"/><path d="M173.64,195.36l39.85-23.6c.68-.4,1.24-.08,1.25.7l.35,25.44a2.72,2.72,0,0,1-1.21,2.15L174,223.65c-.67.4-1.24.09-1.25-.7l-.36-25.44A2.76,2.76,0,0,1,173.64,195.36Z" transform="translate(0)" style="fill:#292f37"/><path d="M170.77,197.31l.38,27.79c0,1.31.95,1.83,2.09,1.16l41.5-24.58a4.53,4.53,0,0,0,2-3.58l-.38-27.79c0-1.3-1-1.82-2.08-1.16l-41.51,24.58A4.54,4.54,0,0,0,170.77,197.31Zm1.65.2a2.76,2.76,0,0,1,1.22-2.15l39.85-23.6.19-.09.06,0a.61.61,0,0,1,.18-.05.74.74,0,0,1,.21,0,.55.55,0,0,1,.27.1l0,0,.05.05a.64.64,0,0,1,.13.19,1.23,1.23,0,0,1,.08.23.51.51,0,0,1,0,.13.61.61,0,0,1,0,.14l.35,25.44a2.58,2.58,0,0,1-.35,1.22l-.17.28a3.87,3.87,0,0,1-.32.37l-.19.16-.13.09-.05,0-11.84,7-28,16.59a.79.79,0,0,1-1,0,1,1,0,0,1-.22-.67Z" transform="translate(0)" style="fill:#292f37"/><path d="M165,80.83c-4.6-5.78-11.5-6.1-18.39-5.27-6,.72-12.63,5.58-13.89,11.08-1.75,7.62-1.16,18,7,24.36,3,2.36-1.1-7,3.44-6.49,1.44.15,2.33-2.11,3.44-2.32.66.5,6.9-1.45,13.39-2.34.48-.06,1.77-3.63,2.23-3.7.63-.08.41,3.34,1,3.26a23.92,23.92,0,0,0,5.92-1.63C171.56,92.44,168.23,84.91,165,80.83Z" transform="translate(0)" style="fill:#2c0c03"/><path d="M145.18,103c1,2.65.54,5.3-1,5.9s-3.7-1.06-4.71-3.71-.55-5.29,1-5.89S144.16,100.39,145.18,103Z" transform="translate(0)" style="fill:#ebc1ae"/><g style="isolation:isolate"><path d="M97.85,299.19a12.74,12.74,0,0,1-2.3,1.67c-4.44,2.58-10.8,3.37-16.43,2.36a20.93,20.93,0,0,1-6.75-2.36c-3.23-1.86-4.84-4.31-4.83-6.75v1.83c0,2.45,1.61,4.9,4.84,6.76a20.88,20.88,0,0,0,6.74,2.36c5.63,1,12,.22,16.44-2.36A13.15,13.15,0,0,0,97.84,301a6.93,6.93,0,0,0,2.47-5V294.2A6.86,6.86,0,0,1,97.85,299.19Z" transform="translate(0)" style="fill:#191e20"/><path d="M95.47,287.44c6.43,3.71,6.46,9.72.08,13.42s-16.76,3.71-23.18,0-6.45-9.71-.07-13.42S89.05,283.73,95.47,287.44Z" transform="translate(0)" style="fill:#354044"/></g><g style="isolation:isolate"><g style="isolation:isolate"><g style="clip-path:url(#clip-path)"><g style="isolation:isolate"><path d="M91.94,272.25l-.06,22.24a3.06,3.06,0,0,1-.55,1.69l.06-22.24a3,3,0,0,0,.55-1.69Z" transform="translate(0)" style="fill:#bebebe"/><path d="M91.39,273.94l-.06,22.24a5.5,5.5,0,0,1-1.77,1.56A12.33,12.33,0,0,1,82,299l.07-22.24a12.17,12.17,0,0,0,7.55-1.22,5.39,5.39,0,0,0,1.77-1.56Z" transform="translate(0)" style="fill:#fbfbfb"/><path d="M82.07,276.72,82,299a10.56,10.56,0,0,1-3.74-1.22,4,4,0,0,1-2.36-3.3L76,272.21c0,1.19.79,2.38,2.36,3.29a10.48,10.48,0,0,0,3.75,1.22Z" transform="translate(0)" style="fill:#bebebe"/></g></g></g><path d="M89.59,269c3.13,1.8,3.14,4.73,0,6.54a12.44,12.44,0,0,1-11.3,0c-3.13-1.81-3.14-4.74,0-6.54A12.44,12.44,0,0,1,89.59,269Z" transform="translate(0)" style="fill:#9e9e9e"/></g><circle cx="83.92" cy="265.56" r="24.05" transform="translate(-163.2 137.12) rotate(-45)" style="fill:#272f32"/><path d="M97,265.56a39.42,39.42,0,0,1,3.8-17.15,24,24,0,0,0-33.73,0,40.7,40.7,0,0,1,0,34.3,24.06,24.06,0,0,0,33.73,0A39.45,39.45,0,0,1,97,265.56Z" transform="translate(0)" style="fill:#dcdcdc"/><circle cx="83.92" cy="270.67" r="11.33" style="fill:#454645"/><path d="M83.92,281.23a10.56,10.56,0,1,1,10.56-10.56A10.58,10.58,0,0,1,83.92,281.23Z" transform="translate(0)" style="fill:#02d4cf"/></svg>