<svg xmlns="http://www.w3.org/2000/svg" viewBox="0 0 464.59 406.04"><title>web-design</title><g id="Background_Complete" data-name="Background Complete"><path d="M380.56,368.8c-15.55-10.87-19.08-31-18.46-49.16.1-3-.23-6.22,1.21-8.87s4.8-4.47,7.51-3.2c2.24,1.06,3.22,3.67,4.48,5.84a17.72,17.72,0,0,0,7.1,6.77c1.93,1,4.31,1.62,6.21.57,2.61-1.44,2.92-5.05,2.9-8.06q0-8.42-.1-16.83a28.2,28.2,0,0,1,.9-8.94c.94-2.85,3-5.51,5.87-6.31s6.41.85,7,3.8a29.06,29.06,0,0,1,.09,3.74c.08,1.25.66,2.63,1.85,3s2.4-.5,3.3-1.38c3.11-3,5.22-6.95,7.19-10.85s3.88-7.87,6.7-11.19,6.72-5.94,11-6.18,8.9,2.41,10,6.64-1.38,8.55-4.08,12a67,67,0,0,1-14,13.33,5.58,5.58,0,0,0-2.34,2.52c-.65,2,1.25,4,3.23,4.65,2.25.75,4.68.52,7,.8s4.89,1.31,5.77,3.52c1.24,3.08-1.34,6.31-3.87,8.42a57.42,57.42,0,0,1-17,9.83c-2.21.81-4.54,1.52-6.33,3.08s-2.86,4.26-1.78,6.38,3.84,2.8,6.16,2.37,4.4-1.69,6.61-2.53c4.13-1.56,9.48-1.27,12.12,2.3a9.5,9.5,0,0,1,1,8.42,21.92,21.92,0,0,1-4.56,7.44,57.92,57.92,0,0,1-24.71,17.37c-9.6,3.33-18.49,4.23-28,.74" transform="translate(-17.71)" style="fill:#f5f5f5"/><path d="M380.33,382.24a132.19,132.19,0,0,1,4.91-24.81,270.76,270.76,0,0,1,10.71-29l3.2-7.47c1.05-2.45,2.1-4.87,3.27-7.19a134.37,134.37,0,0,1,7.48-12.89c2.58-4,5.17-7.68,7.62-11.11s4.81-6.58,7.08-9.37a106.63,106.63,0,0,1,11.65-12.31c1.48-1.35,2.67-2.35,3.48-3l.93-.75a1.51,1.51,0,0,1,.33-.24,2.44,2.44,0,0,1-.29.28l-.89.8c-.79.69-2,1.72-3.42,3.09a113.24,113.24,0,0,0-11.49,12.41c-2.24,2.79-4.57,5.94-7,9.38s-5,7.13-7.56,11.12A136.13,136.13,0,0,0,402.9,314c-1.16,2.3-2.19,4.71-3.25,7.17l-3.19,7.46a276.22,276.22,0,0,0-10.73,29,134.48,134.48,0,0,0-5,24.7" transform="translate(-17.71)" style="fill:#e0e0e0"/><path d="M402.58,313.72a5.93,5.93,0,0,1-.3-1.28c-.16-.83-.34-2-.56-3.54-.42-3-.87-7.16-1.34-11.74s-1-8.73-1.45-11.71c-.23-1.5-.43-2.7-.58-3.53a6.26,6.26,0,0,1-.17-1.31,5.8,5.8,0,0,1,.38,1.26c.21.82.47,2,.75,3.51.57,3,1.14,7.12,1.62,11.72s.87,8.62,1.18,11.75c.15,1.41.28,2.6.39,3.56A7.53,7.53,0,0,1,402.58,313.72Z" transform="translate(-17.71)" style="fill:#e0e0e0"/><path d="M441.27,306.49a8.67,8.67,0,0,1-1.54.19c-1,.08-2.43.2-4.2.41-3.55.38-8.42,1.08-13.77,2.09s-10.15,2.14-13.6,3.06c-1.72.44-3.11.84-4.07,1.11a7.33,7.33,0,0,1-1.51.37,8.65,8.65,0,0,1,1.44-.58c1-.33,2.32-.79,4-1.28,3.43-1,8.23-2.21,13.6-3.23a135.75,135.75,0,0,1,13.83-1.93c1.78-.16,3.23-.22,4.23-.24A7.76,7.76,0,0,1,441.27,306.49Z" transform="translate(-17.71)" style="fill:#e0e0e0"/><path d="M385.72,356.72s-.11-.15-.26-.47l-.67-1.4c-.57-1.22-1.34-3-2.28-5.22-1.86-4.43-4.25-10.64-6.79-17.52s-4.87-13.1-6.64-17.57L367,309.26c-.23-.58-.42-1.05-.57-1.44a1.93,1.93,0,0,1-.16-.52,1.81,1.81,0,0,1,.26.47l.67,1.4c.56,1.22,1.34,3,2.27,5.22,1.87,4.44,4.26,10.64,6.8,17.52s4.86,13.1,6.64,17.57l2.11,5.28c.23.58.41,1.06.57,1.44A2,2,0,0,1,385.72,356.72Z" transform="translate(-17.71)" style="fill:#e0e0e0"/><path d="M437.14,340.15a1.9,1.9,0,0,1-.51.21l-1.49.5-5.51,1.79c-4.65,1.5-11.05,3.66-18.11,6.05s-13.49,4.49-18.17,5.91c-2.35.7-4.24,1.26-5.56,1.61l-1.53.4a1.68,1.68,0,0,1-.54.1,2.12,2.12,0,0,1,.51-.21l1.49-.5,5.51-1.78c4.65-1.51,11-3.67,18.11-6.06s13.49-4.49,18.17-5.9c2.35-.71,4.25-1.26,5.57-1.62l1.52-.4A2.13,2.13,0,0,1,437.14,340.15Z" transform="translate(-17.71)" style="fill:#e0e0e0"/><path d="M462.4,292.36a4,4,0,0,1-.4-.59l-1-1.61c-.84-1.38-2-3.32-3.4-5.65l.31.08L450,289.22c0,.07.18-.68.09-.36h0l0,0,0,.07.08.13.15.27.32.55.61,1.06,1.18,2.06,2.15,3.77-.31-.08c2.36-1.34,4.35-2.43,5.77-3.2l1.67-.89a3.31,3.31,0,0,1,.64-.31,4.67,4.67,0,0,1-.51.35l-1.57,1c-1.36.84-3.35,2.05-5.77,3.47l-.2.11-.11-.19c-.68-1.16-1.42-2.42-2.19-3.75l-1.2-2.05-.61-1.07-.32-.53-.15-.28-.08-.13,0-.07,0,0h0c-.08.32.12-.43.1-.35l8-4.57.19-.11.11.19c1.39,2.44,2.51,4.49,3.27,5.89.35.65.64,1.18.87,1.63A2.53,2.53,0,0,1,462.4,292.36Z" transform="translate(-17.71)" style="fill:#e0e0e0"/><rect x="151.31" y="24.43" width="9.67" height="48.12" transform="translate(-17.96 0.84) rotate(-0.31)" style="fill:#e0e0e0"/><rect x="67.47" y="24.59" width="25.05" height="26.57" transform="translate(-17.91 0.43) rotate(-0.31)" style="fill:#ebebeb"/><rect x="92.39" y="24.46" width="25.05" height="26.57" transform="translate(-17.91 0.56) rotate(-0.31)" style="fill:#f5f5f5"/><path d="M67.44,32c16.64.14,33.33,0,50-.23a.27.27,0,0,0,0-.53c-16.64-.1-33.33,0-50,.3a.23.23,0,0,0,0,.46Z" transform="translate(-17.71)" style="fill:#e0e0e0"/><rect x="51.84" y="50.77" width="45.5" height="21.65" transform="translate(-18.04 0.4) rotate(-0.31)" style="fill:#ebebeb"/><rect x="97.13" y="50.53" width="45.5" height="21.65" transform="translate(-18.03 0.64) rotate(-0.31)" style="fill:#f5f5f5"/><path d="M51.81,56.92c30.23.34,60.57,0,90.79-.45a.27.27,0,0,0,0-.53c-30.23-.16-60.57-.15-90.79.52a.23.23,0,0,0,0,.46Z" transform="translate(-17.71)" style="fill:#e0e0e0"/><rect x="17.09" y="72.55" width="176.29" height="7.76" style="fill:#e0e0e0"/><rect x="45.95" y="76.28" width="7.16" height="26.47" style="fill:#e0e0e0"/><rect x="152.79" y="76.28" width="7.16" height="26.47" style="fill:#e0e0e0"/><rect x="160.8" y="6.48" width="9.67" height="66.19" transform="translate(-17.92 0.89) rotate(-0.31)" style="fill:#ebebeb"/><rect x="170.52" y="18.82" width="15.03" height="53.64" transform="translate(-17.95 0.96) rotate(-0.31)" style="fill:#f5f5f5"/><path d="M185.3,29.11a55.12,55.12,0,0,1-7.51.26,55.33,55.33,0,0,1-7.52-.26,55.33,55.33,0,0,1,7.52-.26A55.12,55.12,0,0,1,185.3,29.11Z" transform="translate(-17.71)" style="fill:#e0e0e0"/><path d="M185.3,26.86a55.12,55.12,0,0,1-7.51.26,55.33,55.33,0,0,1-7.52-.26,53.45,53.45,0,0,1,7.52-.26A53.25,53.25,0,0,1,185.3,26.86Z" transform="translate(-17.71)" style="fill:#e0e0e0"/><path d="M185.3,64.34a53.25,53.25,0,0,1-7.51.26,53.45,53.45,0,0,1-7.52-.26,55.33,55.33,0,0,1,7.52-.26A55.12,55.12,0,0,1,185.3,64.34Z" transform="translate(-17.71)" style="fill:#e0e0e0"/><path d="M185.3,62.09a55.12,55.12,0,0,1-7.51.26,55.33,55.33,0,0,1-7.52-.26,55.33,55.33,0,0,1,7.52-.26A55.12,55.12,0,0,1,185.3,62.09Z" transform="translate(-17.71)" style="fill:#e0e0e0"/><path d="M178,57.17c-.14,0-.26-5.41-.26-12.08S177.89,33,178,33s.26,5.41.26,12.09S178.17,57.17,178,57.17Z" transform="translate(-17.71)" style="fill:#e0e0e0"/><rect x="167.76" y="31.95" width="16.36" height="40.49" style="fill:#ebebeb"/><path d="M194.11,61.94a3.52,3.52,0,0,1-3.66-3.65,3.17,3.17,0,0,1,1.32-2.73l.38.51a2.65,2.65,0,0,0-1.08,2.22,3,3,0,0,0,6.07,0,2.62,2.62,0,0,0-1.08-2.22l.38-.51a3.2,3.2,0,0,1,1.32,2.73A3.52,3.52,0,0,1,194.11,61.94Z" transform="translate(-17.71)" style="fill:#fafafa"/><path d="M196.84,54.56l-.56-.32a4.17,4.17,0,0,0,.87-2.59c0-1.52-.53-2.13-1.35-2.13-2.09,0-.55,4.78-3.38,4.78-1.09,0-2-.91-2-2.74a4.44,4.44,0,0,1,.7-2.46l.56.31a3.68,3.68,0,0,0-.65,2.17c0,1.4.58,2,1.35,2,2.16,0,.63-4.78,3.38-4.78,1.17,0,2,1,2,2.84A4.57,4.57,0,0,1,196.84,54.56Z" transform="translate(-17.71)" style="fill:#fafafa"/><path d="M196.84,48l-.56-.32a4.18,4.18,0,0,0,.87-2.6c0-1.51-.53-2.12-1.35-2.12-2.09,0-.55,4.77-3.38,4.77-1.09,0-2-.91-2-2.73a4.5,4.5,0,0,1,.7-2.47l.56.32a3.65,3.65,0,0,0-.65,2.17c0,1.4.58,2,1.35,2,2.16,0,.63-4.77,3.38-4.77,1.17,0,2,1,2,2.84A4.57,4.57,0,0,1,196.84,48Z" transform="translate(-17.71)" style="fill:#fafafa"/><circle cx="147.61" cy="17.76" r="2.78" style="fill:#e0e0e0"/><rect x="146.75" y="25.4" width="1.72" height="39.37" style="fill:#e0e0e0"/><path d="M383.48,257.13a102.07,102.07,0,0,1,7.26-7.63,104.87,104.87,0,0,1,7.63-7.26c.1.1-3.15,3.52-7.27,7.63S383.58,257.23,383.48,257.13Z" transform="translate(-17.71)" style="fill:#e0e0e0"/><path d="M398.37,257.13a104.87,104.87,0,0,1-7.63-7.26,102.07,102.07,0,0,1-7.26-7.63c.1-.1,3.51,3.15,7.63,7.26S398.47,257,398.37,257.13Z" transform="translate(-17.71)" style="fill:#e0e0e0"/><path d="M247.28,176.37a104.64,104.64,0,0,1,7.26-7.63,102.07,102.07,0,0,1,7.63-7.26c.1.1-3.15,3.51-7.26,7.63S247.38,176.47,247.28,176.37Z" transform="translate(-17.71)" style="fill:#e0e0e0"/><path d="M262.17,176.37c-.1.1-3.52-3.15-7.63-7.26a104.41,104.41,0,0,1-7.26-7.63,104.41,104.41,0,0,1,7.63,7.26C259,172.85,262.27,176.27,262.17,176.37Z" transform="translate(-17.71)" style="fill:#e0e0e0"/><path d="M226.86,46a79.77,79.77,0,0,1-1-9,78.73,78.73,0,0,1-.53-9,78.3,78.3,0,0,1,1.05,9A77.26,77.26,0,0,1,226.86,46Z" transform="translate(-17.71)" style="fill:#e0e0e0"/><path d="M235.1,36.22a75,75,0,0,1-9,1.05,81.76,81.76,0,0,1-9,.53,75.72,75.72,0,0,1,9-1A81.53,81.53,0,0,1,235.1,36.22Z" transform="translate(-17.71)" style="fill:#e0e0e0"/><path d="M143.37,144.94a1.66,1.66,0,0,1-.19-.28l-.49-.8-1.81-3-6.27-10.62.31.08-14.8,8.59c0,.08.18-.67.09-.35h0l0,0,0,.06.08.13.14.25.3.51.58,1,1.14,2,2.2,3.84,4,7-.31-.09,10.74-6.07,3.07-1.7.82-.44.31-.15a10,10,0,0,1-1,.64l-3,1.77-10.75,6.34-.2.12-.11-.2-4.06-7-2.22-3.83q-.57-1-1.14-2l-.59-1-.29-.51-.14-.25-.08-.13,0-.06,0,0h0c-.08.31.12-.44.1-.36l14.84-8.53.19-.11.11.19,6.15,10.87,1.67,3A11.75,11.75,0,0,1,143.37,144.94Z" transform="translate(-17.71)" style="fill:#e0e0e0"/><path d="M470.9,241.23s-.13-.34-.45-.87a4.08,4.08,0,0,0-2-1.66,3.87,3.87,0,0,0-3.62.43,3.8,3.8,0,1,0,5.16,5.48,4,4,0,0,0,.9-2.4c0-.63-.07-1,0-1a1.84,1.84,0,0,1,.23,1,4,4,0,0,1-.81,2.62,4.19,4.19,0,0,1-3.7,1.65,4.25,4.25,0,0,1-2-7.75,4.2,4.2,0,0,1,4-.37,4,4,0,0,1,2,1.9A1.83,1.83,0,0,1,470.9,241.23Z" transform="translate(-17.71)" style="fill:#e0e0e0"/><path d="M284,3.22c-.05,0-.14-.34-.46-.87a4,4,0,0,0-2-1.66,3.88,3.88,0,0,0-3.62.43A3.8,3.8,0,1,0,283.1,6.6a4,4,0,0,0,.9-2.4c0-.63-.07-1,0-1a2.11,2.11,0,0,1,.23,1,4,4,0,0,1-.82,2.62,4.19,4.19,0,0,1-3.7,1.65,4.27,4.27,0,0,1-3.75-3.16A4.29,4.29,0,0,1,277.67.72a4.2,4.2,0,0,1,4-.37,4,4,0,0,1,2,1.9A2.1,2.1,0,0,1,284,3.22Z" transform="translate(-17.71)" style="fill:#e0e0e0"/><path d="M98,117.67s-.14-.34-.46-.87a4,4,0,0,0-2-1.66,3.87,3.87,0,0,0-3.62.43,3.79,3.79,0,0,0,1.79,6.88,3.87,3.87,0,0,0,3.37-1.4,4.09,4.09,0,0,0,.9-2.4c0-.62-.08-1,0-1a2.11,2.11,0,0,1,.23,1,4,4,0,0,1-.81,2.63,4.2,4.2,0,0,1-3.71,1.64,4.24,4.24,0,0,1-2-7.74,4.2,4.2,0,0,1,4-.38,4.08,4.08,0,0,1,2,1.9A2.1,2.1,0,0,1,98,117.67Z" transform="translate(-17.71)" style="fill:#e0e0e0"/><path d="M453.72,101.68c-.06,0-.22-.73-.88-1.91a8.53,8.53,0,0,0-4.18-3.65,8.33,8.33,0,0,0-7.94.88A7.7,7.7,0,0,0,439,98.63a8.19,8.19,0,0,0-1.25,2.15,8.29,8.29,0,0,0,2.48,9.5,7.91,7.91,0,0,0,2.14,1.27,8.12,8.12,0,0,0,2.32.57A8.39,8.39,0,0,0,452,109a8.52,8.52,0,0,0,1.86-5.23c0-1.35-.23-2.08-.16-2.09a3.19,3.19,0,0,1,.16.53,7.6,7.6,0,0,1,.21,1.56,8.64,8.64,0,0,1-4.91,8,8.73,8.73,0,0,1-4.56.82,8.31,8.31,0,0,1-2.46-.58,8,8,0,0,1-2.28-1.34,8.74,8.74,0,0,1-2.63-10.08,8.05,8.05,0,0,1,1.34-2.27,8.17,8.17,0,0,1,1.86-1.72,8.68,8.68,0,0,1,8.35-.82,8.54,8.54,0,0,1,4.22,3.9,6.84,6.84,0,0,1,.58,1.46A3.57,3.57,0,0,1,453.72,101.68Z" transform="translate(-17.71)" style="fill:#e0e0e0"/><path d="M426.78,228.27a9.36,9.36,0,0,1-.52-.92l-1.49-2.75c-1.27-2.37-3.11-5.78-5.19-9.8l-.2-.38.44,0,7.41.46,7.69.51.42,0-.23.35c-2.42,3.73-4.53,6.89-6,9.08l-1.71,2.54a8.66,8.66,0,0,1-.61.85s.21-.38.6-1,1-1.58,1.65-2.67c1.4-2.27,3.35-5.42,5.67-9.06l.19.38-7.69-.48-7.42-.49.24-.36c2,3.91,3.64,7.29,4.84,9.73.58,1.17,1.05,2.13,1.41,2.87S426.78,228.25,426.78,228.27Z" transform="translate(-17.71)" style="fill:#e0e0e0"/><path d="M357.05,39.44s-.18-.3-.53-.93L355,35.76c-1.27-2.36-3.11-5.78-5.19-9.79l-.2-.39.43,0,7.42.47,7.69.51.42,0-.23.35c-2.42,3.72-4.54,6.88-6,9.07l-1.71,2.55a8.66,8.66,0,0,1-.61.85s.21-.38.6-1l1.64-2.67c1.41-2.27,3.35-5.41,5.68-9l.19.38-7.69-.48-7.42-.5.24-.35c2,3.9,3.64,7.28,4.84,9.72q.86,1.77,1.41,2.88C356.87,39,357.05,39.41,357.05,39.44Z" transform="translate(-17.71)" style="fill:#e0e0e0"/><path d="M236.1,262.48a7.93,7.93,0,0,1,.56-.9l1.72-2.6c1.47-2.24,3.6-5.48,6.16-9.23l.2-.3.2.3,4.77,7.05,3.71,5.54.27.39h-.47c-5,0-9.37-.09-12.39-.14l-3.52-.07c-.81,0-1.24,0-1.21,0s.5,0,1.35-.05l3.6-.06c3.06-.05,7.28-.13,12.17-.14l-.21.39-3.73-5.53c-1.68-2.49-3.28-4.88-4.74-7.07h.4c-2.51,3.63-4.69,6.69-6.27,8.9l-1.86,2.6C236.37,262.13,236.12,262.47,236.1,262.48Z" transform="translate(-17.71)" style="fill:#e0e0e0"/></g><g id="Background_Simple" data-name="Background Simple"><path d="M452.33,112.65l-1.37-4C439.49,74.58,410.48,49,375,43.14a93.77,93.77,0,0,0-13.8-1.26c-33.31-.59-66.4,16.78-84.84,44.53-10.84,16.32-17.45,36.46-33.5,47.7-20.88,14.64-49.27,8.72-73.94,2.25s-53.08-12.32-73.9,2.41c-13,9.22-20.13,25-22.87,40.7C65,221.13,85.53,264.6,118.26,291.37s75.83,38.4,118.09,39.64c59.21,1.74,120.16-16.83,163.51-57.2S466.36,170.2,452.33,112.65Z" transform="translate(-17.71)" style="fill:#ebebeb"/></g><g id="Character"><path d="M312,257.3h0a62.61,62.61,0,0,1,62.61,62.61v72.6a0,0,0,0,1,0,0H249.4a0,0,0,0,1,0,0v-72.6A62.61,62.61,0,0,1,312,257.3Z" style="fill:#455a64"/><path d="M171.18,357.3l-6.3,4.45-7,16.82s1.9,1.28,3.37-.08,7.09-11.13,7.09-11.13l0,5.78a4.65,4.65,0,0,0,4.11,4.58L182.86,381l12.74-3.63,1.09-15.16Z" transform="translate(-17.71)" style="fill:#ffbe9d"/><path d="M284.37,245.53c-3.12-.9-4.65-4.47-4.93-7.7s.25-6.57-.63-9.69c-.63-2.22-1.95-4.26-2.12-6.56-.18-2.48,1-4.87,1.08-7.35.09-3.47-2-6.69-2-10.16-.07-4.8.79-12.73,5.59-12.46s12.49,8.68,11.88,13.44" transform="translate(-17.71)" style="fill:#263238"/><path d="M329.72,205.79l-.1,4.8-1,71.76c-.11,8.33-7.36,14.87-16.28,14.68h0c-9-.19-16.33-7.16-16.35-15.58,0-8.84-.22-18.14-.22-18.14s-11.38-1.89-13.74-16.74c-1.17-7.38-.8-19.49-.18-29.39a15.68,15.68,0,0,1,17.3-14.62Z" transform="translate(-17.71)" style="fill:#ffbe9d"/><path d="M284.93,225.61a1.92,1.92,0,0,0,1.84,1.93,1.82,1.82,0,0,0,2-1.72,1.89,1.89,0,0,0-1.83-1.92A1.82,1.82,0,0,0,284.93,225.61Z" transform="translate(-17.71)" style="fill:#263238"/><path d="M284.52,223.48c.23.25,1.68-.82,3.73-.81s3.55,1,3.77.78-.13-.56-.79-1a5.2,5.2,0,0,0-3-.93,5,5,0,0,0-3,1C284.62,222.92,284.4,223.37,284.52,223.48Z" transform="translate(-17.71)" style="fill:#263238"/><path d="M305.45,225.61a1.9,1.9,0,0,0,1.83,1.93,1.84,1.84,0,0,0,2-1.72,1.9,1.9,0,0,0-1.84-1.92A1.81,1.81,0,0,0,305.45,225.61Z" transform="translate(-17.71)" style="fill:#263238"/><path d="M304.66,223.86c.24.25,1.68-.82,3.73-.81s3.55,1,3.78.78-.13-.56-.79-1a5.33,5.33,0,0,0-3-.93,5.05,5.05,0,0,0-3,1C304.76,223.3,304.55,223.75,304.66,223.86Z" transform="translate(-17.71)" style="fill:#263238"/><path d="M297.23,239.06a14.45,14.45,0,0,0-3.33-.6c-.53-.05-1-.16-1.11-.51a2.7,2.7,0,0,1,.35-1.55l1.55-4c2.15-5.67,3.7-10.34,3.47-10.42s-2.15,4.44-4.3,10.12c-.52,1.4-1,2.73-1.49,4a3.1,3.1,0,0,0-.27,2,1.32,1.32,0,0,0,.86.76,3.47,3.47,0,0,0,.89.13A13.13,13.13,0,0,0,297.23,239.06Z" transform="translate(-17.71)" style="fill:#263238"/><path d="M295.81,263.31A37.75,37.75,0,0,0,315.7,258s-4.83,10.2-19.69,8.81Z" transform="translate(-17.71)" style="fill:#eb996e"/><path d="M298.09,244a3.7,3.7,0,0,1,3.31-1.37,3.37,3.37,0,0,1,2.33,1.25,2.13,2.13,0,0,1,.16,2.44,2.46,2.46,0,0,1-2.68.68,7.8,7.8,0,0,1-2.62-1.56,2.44,2.44,0,0,1-.59-.61.68.68,0,0,1,0-.76" transform="translate(-17.71)" style="fill:#eb996e"/><path d="M303.26,240.48c-.34,0-.34,2.21-2.24,3.78s-4.28,1.34-4.29,1.65c0,.14.52.43,1.52.46a5.56,5.56,0,0,0,3.59-1.25,4.8,4.8,0,0,0,1.73-3.17C303.66,241,303.41,240.47,303.26,240.48Z" transform="translate(-17.71)" style="fill:#263238"/><path d="M304.13,215.83c.21.56,2.25.3,4.66.59s4.35.94,4.66.44c.15-.24-.19-.76-1-1.3a7.71,7.71,0,0,0-3.46-1.21,7.87,7.87,0,0,0-3.64.42C304.49,215.13,304.05,215.57,304.13,215.83Z" transform="translate(-17.71)" style="fill:#263238"/><path d="M285.27,217.55c.36.47,1.77,0,3.47,0s3.14.31,3.47-.17c.14-.24-.08-.71-.71-1.15a5,5,0,0,0-5.59.18C285.31,216.84,285.11,217.32,285.27,217.55Z" transform="translate(-17.71)" style="fill:#263238"/><path d="M335.19,201.23c3.09-8.39,15.95-21,25.84-15.4,10.83,6.16,7,10.44,10.91,13.28.93.67,5.33-.79,5.94.19,1.61,2.59.24,5.94-1.13,8.66a4.67,4.67,0,0,0,1-.26,1.81,1.81,0,0,1,2.47,1.75,16.89,16.89,0,0,1-3.35,9.19,5.35,5.35,0,0,0,2.07.07,1.27,1.27,0,0,1,1.41,1.68,10.17,10.17,0,0,1-7.45,6.35c-4.13.85-8.49-.65-11.86-3.18s-5.91-6-8.19-9.57c-1.33-2.05-2.64-4.21-4.62-5.65s-4.83-2-6.86-.64" transform="translate(-17.71)" style="fill:#263238"/><path d="M341.35,207.38s0-.16,0-.39a3.32,3.32,0,0,0-.25-1,16.4,16.4,0,0,0-1.61-3,19.23,19.23,0,0,0-2.11-2.73c-.6-.64-1.05-1-1-1a2.9,2.9,0,0,1,1.26.77,13.64,13.64,0,0,1,2.29,2.72,11.57,11.57,0,0,1,1.52,3.22,2.69,2.69,0,0,1,.11,1.1C341.49,207.27,341.37,207.4,341.35,207.38Z" transform="translate(-17.71)" style="fill:#e8505b"/><path d="M366.46,230.4s-.11.11-.36.27a6.19,6.19,0,0,1-1.14.61,9.41,9.41,0,0,1-4.68.62,9.83,9.83,0,0,1-6.2-3.18,10.07,10.07,0,0,1-2-3.7,19.83,19.83,0,0,1-.73-4.41c-.19-3-.07-5.93-.61-8.47a12,12,0,0,0-1.23-3.43,8,8,0,0,0-2.08-2.36,6.48,6.48,0,0,0-4.26-1.43,10,10,0,0,0-1.66.35,1.51,1.51,0,0,1,.39-.22,4.78,4.78,0,0,1,1.25-.34,6.55,6.55,0,0,1,4.5,1.35,8.13,8.13,0,0,1,2.23,2.44,12.15,12.15,0,0,1,1.33,3.54c.58,2.61.47,5.54.66,8.54a19.62,19.62,0,0,0,.7,4.29,9.54,9.54,0,0,0,12.3,6.22C365.92,230.71,366.43,230.35,366.46,230.4Z" transform="translate(-17.71)" style="fill:#263238"/><path d="M376.44,190a2.46,2.46,0,0,1,.29.56,5.68,5.68,0,0,1,.38,1.78,6.44,6.44,0,0,1-.47,2.84,6,6,0,0,1-2.45,2.93,6.44,6.44,0,0,1-4.55.73,6.2,6.2,0,0,1-4.27-3.09,17.52,17.52,0,0,1-1.72-5.59c-.4-1.95-.78-4.06-2.1-5.65a4.87,4.87,0,0,0-2.5-1.58,6.4,6.4,0,0,0-2.92-.05,15.65,15.65,0,0,0-5.22,2.23,47.21,47.21,0,0,0-7.76,5.93,51.13,51.13,0,0,0-4.49,4.83l-1.12,1.41a2.62,2.62,0,0,1-.41.48,3.14,3.14,0,0,1,.33-.54c.22-.35.58-.84,1-1.47a42.6,42.6,0,0,1,4.4-5,45.08,45.08,0,0,1,7.75-6.07,16.13,16.13,0,0,1,5.38-2.32,6.9,6.9,0,0,1,3.16.05A5.45,5.45,0,0,1,362,184.2c1.44,1.75,1.81,4,2.2,5.89a17.27,17.27,0,0,0,1.63,5.45,5.78,5.78,0,0,0,3.94,2.91,6.14,6.14,0,0,0,4.28-.63,5.77,5.77,0,0,0,2.37-2.72,6.52,6.52,0,0,0,.54-2.72A7.76,7.76,0,0,0,376.44,190Z" transform="translate(-17.71)" style="fill:#263238"/><path d="M338.88,186.49a4.3,4.3,0,0,1,1.09,1.66,8.31,8.31,0,0,1-1.56,9.07,4.16,4.16,0,0,1-1.58,1.2c-.05-.07.56-.52,1.31-1.45a8.86,8.86,0,0,0,1.49-8.68C339.23,187.17,338.8,186.54,338.88,186.49Z" transform="translate(-17.71)" style="fill:#263238"/><path d="M340.36,205a18.77,18.77,0,0,0-13.49-11.43A17.46,17.46,0,0,0,316,195a17.21,17.21,0,0,1-3.37-2.85,29.49,29.49,0,0,0-12.7-7.55,21.05,21.05,0,0,0-14.58,1.13,16.44,16.44,0,0,0-9,11.25,13.54,13.54,0,0,0,4.84,13.3c4,3,10,3.07,13.85-.1-.27,2.19,1.65,4.22,3.82,4.63A8.15,8.15,0,0,0,305,213a46.63,46.63,0,0,0,4.76-4.57c.59-.57,1.2-1.13,1.82-1.66a17.91,17.91,0,0,0,12.5,10c-1.72,1.87-1.57,4.79-.86,7.24s1.86,4.82,1.81,7.36c0,2.14-.95,4.15-1.36,6.25a13.65,13.65,0,0,0,1.21,8.66c.51,1,1.14,2.46,1.71,3.45,1,1.78,1,1.78,2.48,2.23,3.06,1,8.34-10.16,9.7-14.57,1.14-3.68,1.58-10.28,2.91-13.89C344.05,217,342.6,210.68,340.36,205Z" transform="translate(-17.71)" style="fill:#263238"/><path d="M342.42,218.86a1.42,1.42,0,0,1-.21.33,3.24,3.24,0,0,1-.84.73,4.24,4.24,0,0,1-4,.15,3.78,3.78,0,0,1-1.12-.86,5.35,5.35,0,0,1-.78-1.28,15.73,15.73,0,0,0-1.36-2.84,4.24,4.24,0,0,0-2.88-1.54,28.56,28.56,0,0,0-3.76-.16,16.45,16.45,0,0,1-3.82-.53,17.48,17.48,0,0,1-3.34-1.32,16.56,16.56,0,0,1-4.75-3.73,14.25,14.25,0,0,1-2.26-3.39,8,8,0,0,1-.43-1,1.18,1.18,0,0,1-.11-.37,21.51,21.51,0,0,0,3.07,4.53,17,17,0,0,0,4.7,3.56,18.43,18.43,0,0,0,3.25,1.25,16.43,16.43,0,0,0,3.7.5,27,27,0,0,1,3.83.18,4.71,4.71,0,0,1,3.18,1.75,15.07,15.07,0,0,1,1.37,2.95,5.19,5.19,0,0,0,.7,1.2,3.48,3.48,0,0,0,1,.8,4.14,4.14,0,0,0,3.76,0A5.88,5.88,0,0,0,342.42,218.86Z" transform="translate(-17.71)" style="fill:#455a64"/><path d="M340.11,224.91s-.18.26-.63.61a6.57,6.57,0,0,1-2.12,1.06,6.88,6.88,0,0,1-3.53.12,7.28,7.28,0,0,1-3.75-2.17,17.86,17.86,0,0,1-2.26-3.65,9.21,9.21,0,0,0-2-2.73A4.64,4.64,0,0,0,323.9,217a7.16,7.16,0,0,1-.84-.17,1.85,1.85,0,0,1,.88,0,4.4,4.4,0,0,1,2.14,1,9.31,9.31,0,0,1,2.17,2.78,18.18,18.18,0,0,0,2.22,3.53,7,7,0,0,0,3.47,2.06,6.86,6.86,0,0,0,3.32,0A11,11,0,0,0,340.11,224.91Z" transform="translate(-17.71)" style="fill:#455a64"/><path d="M379.52,207.47a1.44,1.44,0,0,1-.14.57,4.22,4.22,0,0,1-.9,1.43,5.61,5.61,0,0,1-2.26,1.43,6,6,0,0,1-3.53.14c-2.63-.64-5.1-3-6.61-6.12s-2.46-6.83-4.77-10a10.07,10.07,0,0,0-4.38-3.42,11.8,11.8,0,0,0-5.16-.75,13.43,13.43,0,0,0-8,3.56,19.13,19.13,0,0,0-3.8,4.73c-.72,1.25-1,2-1.07,2a1.84,1.84,0,0,1,.19-.56,15.73,15.73,0,0,1,.71-1.51,18,18,0,0,1,3.72-4.9,13.69,13.69,0,0,1,8.25-3.77,12.1,12.1,0,0,1,5.39.76,10.34,10.34,0,0,1,4.6,3.58c2.4,3.29,3.24,7.08,4.79,10.08s3.8,5.33,6.27,6a5.74,5.74,0,0,0,3.35-.06,5.54,5.54,0,0,0,2.21-1.29A5.29,5.29,0,0,0,379.52,207.47Z" transform="translate(-17.71)" style="fill:#455a64"/><path d="M379.14,214.5s-.11.16-.36.43a11.51,11.51,0,0,1-1.23,1.06,10.15,10.15,0,0,1-2.24,1.25,7.29,7.29,0,0,1-3.37.51,11.19,11.19,0,0,1-7.37-4.62,16.82,16.82,0,0,1-2.34-4.68c-.6-1.7-1.07-3.5-1.71-5.28a15.4,15.4,0,0,0-2.59-4.78,8.12,8.12,0,0,0-4.15-2.69,11.74,11.74,0,0,0-8.34,1.06,22.85,22.85,0,0,0-4.77,3.38l-1.19,1.08c-.27.25-.41.38-.43.36a2.47,2.47,0,0,1,.36-.43c.24-.28.61-.67,1.12-1.16a21.09,21.09,0,0,1,4.74-3.56,12,12,0,0,1,8.64-1.19,8.64,8.64,0,0,1,4.41,2.82A15.92,15.92,0,0,1,361,203c.65,1.81,1.12,3.61,1.7,5.3a16.94,16.94,0,0,0,2.24,4.55,10.91,10.91,0,0,0,7,4.54,7.08,7.08,0,0,0,3.23-.41,10.11,10.11,0,0,0,2.22-1.15C378.58,215,379.11,214.46,379.14,214.5Z" transform="translate(-17.71)" style="fill:#455a64"/><path d="M271.21,363.33l1.69,4.22L269.57,406h84.95l-3.79-11.51,10.56.54c16.29.82,29.6-13.73,26.43-29.73-.1-.48-.2-1-.33-1.44-5.27-20.59-12.44-48.27-14.93-56.44-4.13-13.51-13.32-19.93-13.32-19.93H359c-12.71-10.37-30-11.29-30-11.29l-6.37,4.28a22.2,22.2,0,0,1-21.53,1.77,9.64,9.64,0,0,1-5.25-6h0a74.48,74.48,0,0,0-21.67,5.63,31.8,31.8,0,0,0-16.79,18.75l-22.19,65-37.78-5.11-8.08,22.06,38.28,9.12a31.25,31.25,0,0,0,36.37-15l7.26-13.35m70.66,5.19h0s3.63-13.91,5.84-21.4l5.36,21.05Z" transform="translate(-17.71)" style="fill:#e8505b"/><path d="M370.76,395.29l-.44,0-1.28,0-5,0-18.71.07-65.11.09H280v-.25c.33-7.94.69-16.27,1.05-24.87v-.24h.24l24.19-.76,47.58-1.47-.23.31c-1.78-6.49-3.23-12.81-4.63-18.84s-2.65-11.81-3.88-17.25q-.88-4.08-1.73-7.92a57.2,57.2,0,0,1-1.36-7.47,38.31,38.31,0,0,1,0-7,32.6,32.6,0,0,1,1.16-6.33,19.51,19.51,0,0,1,5.66-9.24,14.35,14.35,0,0,1,7.31-3.41,12,12,0,0,1,5.05.29,9.52,9.52,0,0,1,1.23.45c.27.11.4.18.4.18s-.55-.25-1.65-.55a12,12,0,0,0-5-.21,14.18,14.18,0,0,0-7.18,3.43,19.31,19.31,0,0,0-5.53,9.14,32.87,32.87,0,0,0-1.12,6.28,37.72,37.72,0,0,0,0,7,56.19,56.19,0,0,0,1.38,7.42c.57,2.55,1.15,5.19,1.76,7.91,1.23,5.44,2.54,11.2,3.91,17.23s2.87,12.35,4.66,18.82l.08.3h-.31l-47.57,1.5-24.2.76.25-.25c-.37,8.6-.73,16.93-1.07,24.87l-.25-.26,65.11.1,18.71.07,5,0,1.28,0A3.72,3.72,0,0,1,370.76,395.29Z" transform="translate(-17.71)" style="fill:#263238"/><path d="M275.92,306.75a2.37,2.37,0,0,1,.05.62c0,.41,0,1,0,1.79a29.39,29.39,0,0,1-1.15,6.47,92.35,92.35,0,0,1-3.32,9.15A62.74,62.74,0,0,0,267.82,336a33.88,33.88,0,0,0-.06,11.75,66.23,66.23,0,0,0,2.3,9.41c.84,2.63,1.59,4.74,2.11,6.2.24.68.43,1.24.58,1.68a2.43,2.43,0,0,1,.17.6,2.54,2.54,0,0,1-.27-.56c-.17-.43-.4-1-.67-1.65-.58-1.44-1.38-3.53-2.27-6.16a61.89,61.89,0,0,1-2.42-9.44,33.66,33.66,0,0,1,0-11.93A61.56,61.56,0,0,1,271,324.6c1.4-3.38,2.63-6.43,3.41-9.07a32.09,32.09,0,0,0,1.31-6.38C275.88,307.61,275.87,306.75,275.92,306.75Z" transform="translate(-17.71)" style="fill:#263238"/><path d="M353.07,368.17a4.18,4.18,0,0,1,1.78-.23,10.49,10.49,0,0,1,4.21,1,7.82,7.82,0,0,1,3.35,2.75,3.16,3.16,0,0,1,.65,1.67c-.09,0-.3-.62-.95-1.46a8.61,8.61,0,0,0-3.27-2.49,12.66,12.66,0,0,0-4-1.07A13,13,0,0,1,353.07,368.17Z" transform="translate(-17.71)" style="fill:#263238"/><path d="M345.59,280a10.4,10.4,0,0,1,1.59.6c.51.21,1.13.46,1.84.78l2.37,1.16c.88.43,1.81,1,2.82,1.53s2,1.24,3.12,1.94a49.2,49.2,0,0,1,6.55,5.32,33.53,33.53,0,0,1,8.26,12.8,21.76,21.76,0,0,1,.76,2.54c.18.76.35,1.4.42,1.95a12.42,12.42,0,0,1,.22,1.69,9.72,9.72,0,0,1-.42-1.65c-.09-.54-.29-1.17-.5-1.92s-.49-1.57-.82-2.49a35,35,0,0,0-8.28-12.55,50.78,50.78,0,0,0-6.46-5.29c-1.07-.7-2.09-1.39-3.07-2s-1.9-1.13-2.77-1.58l-2.33-1.22-1.79-.86A11.74,11.74,0,0,1,345.59,280Z" transform="translate(-17.71)" style="fill:#263238"/><g style="opacity:0.30000000000000004"><path d="M342.28,321.89s-8.44,37.27-8.31,40.92a20.43,20.43,0,0,0,.87,5.65l7,.06.06-.68,5.9-21.09Z" transform="translate(-17.71)"/></g><path d="M295.9,320c0,.06-.89.41-2.31,1.46a13,13,0,0,0-4.33,5.89,12.46,12.46,0,0,0-.69,5,12.18,12.18,0,0,0,1.68,5.53,12.44,12.44,0,0,0,4.5,4.5,11.69,11.69,0,0,0,3.13,1.3,12.17,12.17,0,0,0,3.47.4,12.83,12.83,0,0,0,3.45-.56,13.72,13.72,0,0,0,3.07-1.45,12.6,12.6,0,0,0,4.74-15.31,12.92,12.92,0,0,0-4.62-5.67c-1.46-1-2.41-1.29-2.38-1.35a5,5,0,0,1,.68.24,11.87,11.87,0,0,1,1.82.94A12.83,12.83,0,0,1,314,331.78a13.16,13.16,0,0,1-1.42,5.82,13,13,0,0,1-4.42,4.93,14.43,14.43,0,0,1-3.19,1.53,14,14,0,0,1-3.6.58,12.87,12.87,0,0,1-6.87-1.78,12.87,12.87,0,0,1-4.66-4.7,12.81,12.81,0,0,1,3.64-16.84,11.8,11.8,0,0,1,1.77-1A5.72,5.72,0,0,1,295.9,320Z" transform="translate(-17.71)" style="fill:#fff"/><path d="M301.05,317.74a82.29,82.29,0,0,1,.26,9.18,82.29,82.29,0,0,1-.26,9.18,79.49,79.49,0,0,1-.26-9.18A79.49,79.49,0,0,1,301.05,317.74Z" transform="translate(-17.71)" style="fill:#fff"/><path d="M268.81,369.87l-5.5-2.23s-6.39-10.84-7.7-10.32-1.5,3.83,1.1,8.82l-7.23-1.63s-15,8-14.29,8.91,2.12,3.12,5.39,1.22,7.55-4.17,7.55-4.17l8.45,1.91-10.65,2-9.57,9.73s3.45,2.29,6.16-.49l26.5,4.16h11.22l.6-14.82Z" transform="translate(-17.71)" style="fill:#ffbe9d"/><path d="M242.52,383.58c.12.06.56-.74,1.45-1.82a6.62,6.62,0,0,1,4.61-2.47c4.33-.76,7.82-1.56,7.78-1.78s-3.58.21-7.93,1a7.61,7.61,0,0,0-3.05,1.07,7.17,7.17,0,0,0-1.87,1.86A4.62,4.62,0,0,0,242.52,383.58Z" transform="translate(-17.71)" style="fill:#eb996e"/><path d="M246.68,384.4c.1,0,.15-.55.87-.75s1.93-.38,3.16-.58c2.5-.4,4.57-.49,4.58-.73s-2.11-.49-4.7-.08a13.4,13.4,0,0,0-3.26.86,1.31,1.31,0,0,0-.75.86C246.53,384.27,246.63,384.41,246.68,384.4Z" transform="translate(-17.71)" style="fill:#eb996e"/><path d="M268.08,369.58a18.9,18.9,0,0,1-2.65-.75c-1.62-.5-3.87-1.13-6.38-1.76l-6.43-1.62a13.79,13.79,0,0,1-2.63-.81,15.51,15.51,0,0,1,2.72.46c1.66.34,4,.83,6.47,1.46s4.77,1.33,6.37,1.92A11.28,11.28,0,0,1,268.08,369.58Z" transform="translate(-17.71)" style="fill:#eb996e"/></g><g id="Screens"><path d="M360.31,90.64a8.06,8.06,0,0,1-.06-1.08q0-1.12-.06-3c0-2.58-.06-6.15-.11-10.41l.22.23-14.46,0c0,.06.5-.49.26-.26h0v3.87c0,1.28,0,2.53,0,3.74,0,2.43,0,4.72,0,6.82l-.23-.22,10.42.11,3,.06c.69,0,1.07,0,1.09,0a6.11,6.11,0,0,1-1,.06l-2.91,0-10.56.12h-.22v-.23c0-2.1,0-4.39,0-6.82,0-1.21,0-2.46,0-3.74V76.21h0l.26-.26,14.46,0h.23v.22c0,4.32-.09,7.94-.11,10.56q0,1.8-.06,2.91A9.61,9.61,0,0,1,360.31,90.64Z" transform="translate(-17.71)" style="fill:#263238"/><path d="M360.31,76.33c.1.1-3.05,3.4-7,7.37a100.12,100.12,0,0,1-7.4,7,99.43,99.43,0,0,1,7-7.37A95.65,95.65,0,0,1,360.31,76.33Z" transform="translate(-17.71)" style="fill:#263238"/><path d="M360.08,90.55a91.17,91.17,0,0,1-7.24-6.93A95.3,95.3,0,0,1,346,76.33a97.87,97.87,0,0,1,7.24,6.93A100.16,100.16,0,0,1,360.08,90.55Z" transform="translate(-17.71)" style="fill:#263238"/><path d="M445.93,174.79a4.52,4.52,0,0,1,.77-.88l2.24-2.24c1.91-1.88,4.58-4.45,7.54-7.27l.07-.06v.38c-3-2.77-5.67-5.29-7.59-7.13l-2.25-2.2a4.39,4.39,0,0,1-.78-.86,5.55,5.55,0,0,1,.91.71l2.37,2.08c2,1.77,4.71,4.25,7.7,7l.2.19-.2.19-.07.07c-3,2.81-5.67,5.34-7.64,7.15l-2.36,2.13A5.87,5.87,0,0,1,445.93,174.79Z" transform="translate(-17.71)" style="fill:#263238"/><path d="M422.87,154.53a4.52,4.52,0,0,1-.77.88l-2.25,2.24c-1.91,1.88-4.57,4.45-7.53,7.27l-.07.06v-.38c3,2.77,5.66,5.29,7.59,7.13l2.25,2.2a4.39,4.39,0,0,1,.78.86,5.55,5.55,0,0,1-.91-.71L419.59,172c-2-1.77-4.71-4.25-7.7-7l-.2-.19.2-.19.07-.07c3-2.81,5.67-5.34,7.64-7.15l2.36-2.13A5.87,5.87,0,0,1,422.87,154.53Z" transform="translate(-17.71)" style="fill:#263238"/><path d="M428.79,179.56c-.13-.05,2.29-6.83,5.4-15.13s5.76-15,5.9-15-2.29,6.82-5.41,15.13S428.92,179.61,428.79,179.56Z" transform="translate(-17.71)" style="fill:#263238"/><path d="M472.12,194.06s0-.4,0-1.14,0-1.84,0-3.26c0-2.86,0-7-.06-12.34,0-10.63-.07-25.81-.11-44.12l.21.21-75,.05h0l.26-.26c0,22,0,42.77,0,60.86l-.24-.24,54.15.12,15.35.06,4.08,0h1.05l.36,0h-1.36l-4,0-15.3.06-54.3.12h-.23v-.23c0-18.09,0-38.86,0-60.86v-.26h.27l75,0h.22v.22c0,18.36-.08,33.6-.11,44.26,0,5.29,0,9.44-.06,12.29,0,1.4,0,2.47,0,3.22S472.12,194.06,472.12,194.06Z" transform="translate(-17.71)" style="fill:#263238"/><path d="M472.71,142.23c0,.14-16.93.26-37.8.26s-37.81-.12-37.81-.26S414,142,434.91,142,472.71,142.08,472.71,142.23Z" transform="translate(-17.71)" style="fill:#263238"/><path d="M403.25,137.78a1,1,0,0,1-2,0,1,1,0,1,1,2,0Z" transform="translate(-17.71)" style="fill:#263238"/><path d="M406.93,137.78a1,1,0,1,1-1-1A1,1,0,0,1,406.93,137.78Z" transform="translate(-17.71)" style="fill:#263238"/><path d="M410.61,137.78a1,1,0,1,1-1-1A1,1,0,0,1,410.61,137.78Z" transform="translate(-17.71)" style="fill:#263238"/><rect x="242.64" y="41.21" width="59.25" height="42.24" style="fill:#455a64"/><path d="M320.06,47.48c0,.14-13.38.26-29.87.26s-29.87-.12-29.87-.26,13.37-.26,29.87-.26S320.06,47.33,320.06,47.48Z" transform="translate(-17.71)" style="fill:#fff"/><path d="M265.18,44.39a.81.81,0,1,1-.8-.7A.75.75,0,0,1,265.18,44.39Z" transform="translate(-17.71)" style="fill:#fff"/><path d="M268.09,44.39a.81.81,0,1,1-.8-.7A.75.75,0,0,1,268.09,44.39Z" transform="translate(-17.71)" style="fill:#fff"/><ellipse cx="252.49" cy="44.39" rx="0.8" ry="0.7" style="fill:#fff"/><path d="M282.26,64.32c0,2.54-1.84,4.07-4.87,4.07h-3.2v3.76h-1.26V60.24h4.46C280.42,60.24,282.26,61.77,282.26,64.32Zm-1.26,0c0-1.9-1.26-3-3.64-3h-3.17v6h3.17C279.74,67.28,281,66.19,281,64.32Z" transform="translate(-17.71)" style="fill:#fff"/><path d="M294.93,60.24V72.15h-1.24v-5.5h-7.46v5.5H285V60.24h1.26v5.31h7.46V60.24Z" transform="translate(-17.71)" style="fill:#fff"/><path d="M308.12,64.32c0,2.54-1.83,4.07-4.86,4.07h-3.2v3.76H298.8V60.24h4.46C306.29,60.24,308.12,61.77,308.12,64.32Zm-1.25,0c0-1.9-1.26-3-3.64-3h-3.17v6h3.17C305.61,67.28,306.87,66.19,306.87,64.32Z" transform="translate(-17.71)" style="fill:#fff"/><path d="M200,131.87l.78-.86a4.63,4.63,0,0,0,3.92,2.23c2.35,0,3.51-1.34,3.51-4.17V117.76h-6.52v-1.17h7.81v12.48c0,3.56-1.65,5.33-4.8,5.33A5.53,5.53,0,0,1,200,131.87Z" transform="translate(-17.71)" style="fill:#e8505b"/><path d="M213.2,132.68l.58-1a7.65,7.65,0,0,0,4.74,1.59c2.78,0,3.89-1,3.89-2.47,0-3.84-8.73-1-8.73-6.19,0-2,1.66-3.61,5-3.61a8.07,8.07,0,0,1,4.52,1.29l-.58,1a6.78,6.78,0,0,0-4-1.19c-2.57,0-3.71,1.06-3.71,2.47,0,4,8.74,1.17,8.74,6.19,0,2.15-1.85,3.61-5.21,3.61A8.24,8.24,0,0,1,213.2,132.68Z" transform="translate(-17.71)" style="fill:#e8505b"/><path d="M235.2,143.66s0-.29,0-.81,0-1.31,0-2.29c0-2,0-4.95-.06-8.66,0-7.45-.06-18.05-.11-30.8l.22.22-45.87,0c-.06.06.49-.49.26-.25h0v11.42c0,3.75,0,7.41,0,11,0,7.15,0,13.91,0,20.14l-.23-.23,33.15.11,9.37.06,2.48,0H235l.23,0h-.82l-2.44,0-9.31.06-33.3.11h-.23v-.22c0-6.23,0-13,0-20.14,0-3.57,0-7.23,0-11V101.12h0l.26-.27,45.87,0h.22v.22c0,12.81-.08,23.46-.11,30.94,0,3.69,0,6.6-.06,8.61,0,1,0,1.72,0,2.25S235.2,143.66,235.2,143.66Z" transform="translate(-17.71)" style="fill:#e8505b"/><path d="M235.1,107.41c0,.15-10.25.27-22.9.27s-22.9-.12-22.9-.27,10.25-.26,22.9-.26S235.1,107.27,235.1,107.41Z" transform="translate(-17.71)" style="fill:#e8505b"/><ellipse cx="175.69" cy="104.31" rx="0.8" ry="0.71" style="fill:#e8505b"/><path d="M197.13,104.31a.81.81,0,1,1-.8-.71A.76.76,0,0,1,197.13,104.31Z" transform="translate(-17.71)" style="fill:#e8505b"/><path d="M200.06,104.31a.81.81,0,1,1-.8-.71A.76.76,0,0,1,200.06,104.31Z" transform="translate(-17.71)" style="fill:#e8505b"/><path d="M402.47,61.47a7.39,7.39,0,0,1,7.67-7.5A7.05,7.05,0,0,1,415.4,56l-.67.7A6.18,6.18,0,0,0,410.19,55a6.51,6.51,0,1,0,0,13,6.19,6.19,0,0,0,4.54-1.77l.67.7A7.07,7.07,0,0,1,410.14,69,7.39,7.39,0,0,1,402.47,61.47Z" transform="translate(-17.71)" style="fill:#e8505b"/><path d="M417.43,67l.49-.8A7.06,7.06,0,0,0,422.8,68c3,0,4.27-1.29,4.27-2.9,0-4.44-9.23-1.77-9.23-7.23,0-2.09,1.6-3.93,5.24-3.93a8,8,0,0,1,4.46,1.33l-.41.87a7.24,7.24,0,0,0-4.05-1.25c-2.88,0-4.17,1.33-4.17,3,0,4.44,9.24,1.82,9.24,7.19,0,2.09-1.67,3.91-5.33,3.91A7.6,7.6,0,0,1,417.43,67Z" transform="translate(-17.71)" style="fill:#e8505b"/><path d="M430.3,67l.49-.8A7,7,0,0,0,435.67,68c3,0,4.27-1.29,4.27-2.9,0-4.44-9.24-1.77-9.24-7.23,0-2.09,1.61-3.93,5.25-3.93a8,8,0,0,1,4.45,1.33l-.4.87A7.24,7.24,0,0,0,436,54.92c-2.88,0-4.17,1.33-4.17,3,0,4.44,9.24,1.82,9.24,7.19,0,2.09-1.67,3.91-5.33,3.91A7.6,7.6,0,0,1,430.3,67Z" transform="translate(-17.71)" style="fill:#e8505b"/><path d="M453.61,80.71s0-.28,0-.79,0-1.28,0-2.25c0-2,0-4.87-.06-8.56,0-7.39-.06-18-.11-31l.21.21-65.89,0h0l.26-.26c0,15.11,0,29.5,0,42.56l-.24-.24,47.4.12,13.59.06,3.63,0h.94l.33,0h-.3l-.91,0-3.58,0-13.54.07L387.72,81h-.24v-.24c0-13.06,0-27.45,0-42.56v-.26h.26l65.89.06h.21v.2c-.05,13-.09,23.67-.11,31.09,0,3.67,0,6.54,0,8.51q0,1.44,0,2.22C453.63,80.46,453.61,80.71,453.61,80.71Z" transform="translate(-17.71)" style="fill:#e8505b"/><path d="M453.61,44.47c0,.14-14.76.26-33,.26s-33-.12-33-.26,14.76-.26,33-.26S453.61,44.32,453.61,44.47Z" transform="translate(-17.71)" style="fill:#e8505b"/><path d="M392.59,41.36a.81.81,0,1,1-.8-.71A.76.76,0,0,1,392.59,41.36Z" transform="translate(-17.71)" style="fill:#e8505b"/><path d="M395.52,41.36a.81.81,0,1,1-.8-.71A.76.76,0,0,1,395.52,41.36Z" transform="translate(-17.71)" style="fill:#e8505b"/><path d="M398.45,41.36a.81.81,0,1,1-.8-.71A.76.76,0,0,1,398.45,41.36Z" transform="translate(-17.71)" style="fill:#e8505b"/><rect x="268.2" y="102.76" width="82.74" height="58.98" style="fill:#e8505b"/><path d="M313.81,130.14v11.71H311.1v-4.8h-5.32v4.8h-2.71V130.14h2.71v4.62h5.32v-4.62Z" transform="translate(-17.71)" style="fill:#fff"/><path d="M319,132.35h-3.75v-2.21h10.21v2.21h-3.75v9.5H319Z" transform="translate(-17.71)" style="fill:#fff"/><path d="M326.92,130.14h2.71v9.5h5.87v2.21h-8.58Z" transform="translate(-17.71)" style="fill:#fff"/><path d="M347.68,141.85l0-7-3.45,5.78H343L339.56,135v6.87H337V130.14h2.24l4.39,7.28,4.31-7.28h2.22l0,11.71Z" transform="translate(-17.71)" style="fill:#fff"/><path d="M369.3,111.51c0,.14-18.68.26-41.72.26s-41.71-.12-41.71-.26,18.67-.26,41.71-.26S369.3,111.36,369.3,111.51Z" transform="translate(-17.71)" style="fill:#fff"/><path d="M292.66,107.2a1.12,1.12,0,1,1-1.12-1A1.06,1.06,0,0,1,292.66,107.2Z" transform="translate(-17.71)" style="fill:#fff"/><path d="M296.72,107.2a1.12,1.12,0,1,1-1.12-1A1.06,1.06,0,0,1,296.72,107.2Z" transform="translate(-17.71)" style="fill:#fff"/><path d="M300.78,107.2a1.12,1.12,0,1,1-1.12-1A1.06,1.06,0,0,1,300.78,107.2Z" transform="translate(-17.71)" style="fill:#fff"/><path d="M115.37,218.89a.8.8,0,0,1,0-.2v-.55c0-.51,0-1.23,0-2.14,0-1.89,0-4.61-.06-8.06,0-6.93-.07-16.79-.12-28.6l.23.22-39.55,0c-.06.05.49-.49.26-.25h0v5.36c0,1.78,0,3.54,0,5.29v10.22c0,6.64,0,12.91,0,18.66l-.22-.23,28.6.12,8.06.06,2.14,0,.55,0h0l-.53,0-2.1,0-8,.06-28.74.12h-.23v-.23c0-5.75,0-12,0-18.66V179.36h0c-.24.22.31-.33.26-.27l39.55,0h.22v.23c0,11.87-.08,21.78-.11,28.74,0,3.43,0,6.14-.06,8q0,1.35,0,2.1c0,.22,0,.39,0,.53A1,1,0,0,1,115.37,218.89Z" transform="translate(-17.71)" style="fill:#263238"/><path d="M115.37,179.74c.1.1-8.65,9-19.54,19.85S76,219.18,75.92,219.08s8.64-9,19.54-19.86S115.27,179.64,115.37,179.74Z" transform="translate(-17.71)" style="fill:#263238"/><path d="M114.74,218.65c-.1.1-8.82-8.53-19.47-19.27s-19.21-19.54-19.11-19.64S85,188.26,95.64,199,114.84,218.54,114.74,218.65Z" transform="translate(-17.71)" style="fill:#263238"/><path d="M197.82,190c0,.14-15.72.26-35.1.26s-35.09-.12-35.09-.26,15.71-.26,35.09-.26S197.82,189.81,197.82,190Z" transform="translate(-17.71)" style="fill:#263238"/><path d="M197.82,196.26c0,.14-15.72.26-35.1.26s-35.09-.12-35.09-.26,15.71-.26,35.09-.26S197.82,196.11,197.82,196.26Z" transform="translate(-17.71)" style="fill:#263238"/><path d="M197.82,202.56c0,.15-15.72.26-35.1.26s-35.09-.11-35.09-.26,15.71-.26,35.09-.26S197.82,202.42,197.82,202.56Z" transform="translate(-17.71)" style="fill:#263238"/><path d="M197.82,208.87c0,.14-15.72.26-35.1.26s-35.09-.12-35.09-.26,15.71-.26,35.09-.26S197.82,208.72,197.82,208.87Z" transform="translate(-17.71)" style="fill:#263238"/><path d="M159.38,183.64c0,.15-7.23.26-16.13.26s-16.13-.11-16.13-.26,7.22-.26,16.13-.26S159.38,183.5,159.38,183.64Z" transform="translate(-17.71)" style="fill:#263238"/><path d="M63.36,167.41H75.13l32.93,0,114.3.21h.25v.24c0,19.5,0,40.64,0,62.58v.26H208.07l.26-.26V244l-.44-.44-13-13,.18.07L63.36,230.6h-.18v-.17c0-19.64.08-35.41.1-46.28,0-5.41,0-9.6,0-12.45,0-1.4,0-2.48,0-3.21s0-1.08,0-1.08,0,.38,0,1.12,0,1.82,0,3.24c0,2.86,0,7.06,0,12.48,0,10.85.06,26.58.1,46.18l-.18-.18,131.74-.08h.11l.07.07,13,13-.45.19V230.17h14.55l-.26.26c0-21.94,0-43.08,0-62.58l.25.25-114.13-.44-33-.16-8.81-.05-2.28,0Z" transform="translate(-17.71)" style="fill:#263238"/></g><g id="Desk"><rect x="364.06" y="370.74" width="86.8" height="21.78" style="fill:#455a64"/><rect x="385.51" y="377.85" width="52.9" height="7.56" style="fill:#263238"/><path d="M396.55,382.07a4.23,4.23,0,1,1-4.23-4.22A4.22,4.22,0,0,1,396.55,382.07Z" transform="translate(-17.71)" style="fill:#263238"/><rect x="373.21" y="358.87" width="69.33" height="11.78" style="fill:#263238"/><rect x="373.21" y="337.1" width="86.8" height="21.78" style="fill:#e8505b"/><path d="M417.35,347.44a5.62,5.62,0,0,1,9.73-3.47l-1.51,1.4a3.32,3.32,0,0,0-2.57-1.19,3.27,3.27,0,0,0,0,6.53,3.27,3.27,0,0,0,2.57-1.21l1.51,1.4a5.6,5.6,0,0,1-9.73-3.46Z" transform="translate(-17.71)" style="fill:#fff"/><path d="M439.43,348.33h-2.54v2.48H435v-2.48h-2.52v-1.78H435v-2.47h1.88v2.47h2.54Z" transform="translate(-17.71)" style="fill:#fff"/><path d="M448.25,348.33h-2.54v2.48h-1.88v-2.48h-2.52v-1.78h2.52v-2.47h1.88v2.47h2.54Z" transform="translate(-17.71)" style="fill:#fff"/><path d="M403.82,358.27c-.14,0-.26-4.74-.26-10.59s.12-10.6.26-10.6.26,4.75.26,10.6S404,358.27,403.82,358.27Z" transform="translate(-17.71)" style="fill:#fafafa"/><path d="M400,358.27c-.14,0-.26-4.74-.26-10.59s.12-10.6.26-10.6a106,106,0,0,1,.26,10.6A105.69,105.69,0,0,1,400,358.27Z" transform="translate(-17.71)" style="fill:#fafafa"/><path d="M463.9,358.27a105.69,105.69,0,0,1-.26-10.59,106,106,0,0,1,.26-10.6c.14,0,.26,4.75.26,10.6S464,358.27,463.9,358.27Z" transform="translate(-17.71)" style="fill:#fafafa"/><path d="M460.12,358.27c-.14,0-.26-4.74-.26-10.59s.12-10.6.26-10.6.26,4.75.26,10.6S460.26,358.27,460.12,358.27Z" transform="translate(-17.71)" style="fill:#fafafa"/><path d="M419.6,364.62a2.27,2.27,0,0,1,2.38-2.34,2,2,0,0,1,1.81.91l-.46.32a1.57,1.57,0,0,0-1.35-.69,1.8,1.8,0,0,0,0,3.6,1.58,1.58,0,0,0,1.35-.67l.46.31A2,2,0,0,1,422,367,2.28,2.28,0,0,1,419.6,364.62Z" transform="translate(-17.71)" style="fill:#ebebeb"/><path d="M424.37,366.41l.29-.5a2.78,2.78,0,0,0,1.64.52c.88,0,1.24-.3,1.24-.75,0-1.21-3-.26-3-2.09,0-.75.65-1.31,1.83-1.31a3,3,0,0,1,1.63.43l-.27.5a2.38,2.38,0,0,0-1.36-.4c-.84,0-1.2.33-1.2.77,0,1.24,3,.3,3,2.08,0,.8-.7,1.32-1.9,1.32A3.15,3.15,0,0,1,424.37,366.41Z" transform="translate(-17.71)" style="fill:#ebebeb"/><path d="M428.67,366.41l.29-.5a2.76,2.76,0,0,0,1.64.52c.88,0,1.24-.3,1.24-.75,0-1.21-3-.26-3-2.09,0-.75.65-1.31,1.83-1.31a3,3,0,0,1,1.63.43l-.27.5a2.38,2.38,0,0,0-1.36-.4c-.84,0-1.2.33-1.2.77,0,1.24,3,.3,3,2.08,0,.8-.7,1.32-1.9,1.32A3.15,3.15,0,0,1,428.67,366.41Z" transform="translate(-17.71)" style="fill:#ebebeb"/><circle cx="383.41" cy="364.76" r="2.1" style="fill:#ebebeb"/><circle cx="436.04" cy="364.76" r="2.1" style="fill:#ebebeb"/><rect x="13.95" y="253.9" width="169.82" height="115.71" rx="12" style="fill:#263238"/><polygon points="70.47 342.11 61.08 395.34 105.2 395.34 113.19 341.02 70.47 342.11" style="fill:#455a64"/><rect x="7.21" y="253.9" width="169.82" height="115.71" rx="12" style="fill:#455a64"/><polygon points="108.98 369.61 113.19 341.02 114.36 369.61 108.98 369.61" style="fill:#263238"/><path d="M88.42,339.15c.14,0-.93,7.11-2.39,15.82s-2.75,15.76-2.9,15.74.93-7.11,2.39-15.83S88.28,339.13,88.42,339.15Z" transform="translate(-17.71)" style="fill:#263238"/><path d="M115.39,307.75a5.57,5.57,0,1,1-5.57-5.57A5.56,5.56,0,0,1,115.39,307.75Z" transform="translate(-17.71)" style="fill:#fafafa"/><path d="M109.82,313.34a5.59,5.59,0,1,1,5.59-5.59A5.6,5.6,0,0,1,109.82,313.34Zm0-11.13a5.54,5.54,0,1,0,5.54,5.54A5.55,5.55,0,0,0,109.82,302.21Z" transform="translate(-17.71)" style="fill:#263238"/><path d="M67.41,288.34s2.62-3.7,1.73-7.81h0s0-1.33-2-3.94A14.58,14.58,0,0,0,65,274.32a15.9,15.9,0,0,0-2.27-1.65c-.27-.17-.44-.26-.44-.26h0A13.7,13.7,0,0,0,52.56,271,12.62,12.62,0,0,0,46,274.63a9.74,9.74,0,0,0-1.51,2.07A14.53,14.53,0,0,0,43,288.3c.08.26.17.52.27.77l0,.09c0,.09.07.18.11.26l.08.18c.09.21.17.41.27.61a13.88,13.88,0,0,0,.82,1.45,7.41,7.41,0,0,0,1.11,1.51h0a7.7,7.7,0,0,0,6.84,2.69,4.35,4.35,0,0,0,2.33,2c1.93.44,5.07-.53,7.35-1.75s5.55-3.55,5.5-5.54a9.45,9.45,0,0,0-.35-2.21Z" transform="translate(-17.71)" style="fill:#263238"/><path d="M50.45,271a12.55,12.55,0,0,0-6.55,3.67,9.78,9.78,0,0,0-1.52,2.07c-1.33,2.56-3.62,7.49-.69,13.51s7.27,5.87,9.23,5.59,14.38-7.46,14.38-7.46S69.1,283,66,278C63.36,273.75,57.68,269.41,50.45,271Z" transform="translate(-17.71)" style="fill:#e8505b"/><path d="M49.54,294.13s1.34,3.28,3.27,3.71,5.06-.53,7.34-1.75,5.55-3.55,5.5-5.54-1-4.2-1.33-4.38a11.51,11.51,0,0,0-9.18,1.44A12.22,12.22,0,0,0,49.54,294.13Z" transform="translate(-17.71)" style="fill:#f5f5f5"/><g style="opacity:0.4"><path d="M56.26,275.15a6.6,6.6,0,1,1-8.95-2.69A6.6,6.6,0,0,1,56.26,275.15Z" transform="translate(-17.71)" style="fill:#fff"/></g><g style="opacity:0.4"><path d="M43.62,293.17a8.39,8.39,0,0,0,.44-5.89,8.19,8.19,0,0,0-3.67-4.51,16,16,0,0,0,1,6.65A12.13,12.13,0,0,0,43.62,293.17Z" transform="translate(-17.71)" style="fill:#fff"/></g><g style="opacity:0.4"><path d="M67.06,280.54a8.44,8.44,0,0,1-5.16-2.87,7.47,7.47,0,0,1-1.77-5.26,18.26,18.26,0,0,1,4.94,4.19C67.05,279.21,67.06,280.54,67.06,280.54Z" transform="translate(-17.71)" style="fill:#fff"/></g><path d="M49.56,294.09a2.18,2.18,0,0,0,.24.76.67.67,0,0,0,.68.33c.29-.07.45-.35.58-.61a15.49,15.49,0,0,1,6.07-6.23,7.65,7.65,0,0,1,3.38-1.09c1.08,0,2.13.27,3.21.33a1.59,1.59,0,0,0,.81-.12c.24-.12.23-.4.17-.66a.93.93,0,0,0-.38-.63c-2.84-1.17-6.36-.31-9,1.22a15,15,0,0,0-5.75,6.7" transform="translate(-17.71)" style="fill:#e0e0e0"/><rect x="144.56" y="385.71" width="96.61" height="6.81" style="fill:#455a64"/><path d="M121.46,383.09h4.79a7.76,7.76,0,0,1,7.76,7.76v1.67a0,0,0,0,1,0,0H113.7a0,0,0,0,1,0,0v-1.67A7.76,7.76,0,0,1,121.46,383.09Z" style="fill:#455a64"/><path d="M151.41,390.4a93.38,93.38,0,0,1-9.78.26,93.5,93.5,0,0,1-9.79-.26,90.33,90.33,0,0,1,9.79-.26A90.21,90.21,0,0,1,151.41,390.4Z" transform="translate(-17.71)" style="fill:#263238"/><path d="M141.78,383a12.28,12.28,0,0,1,.17,3.59,12.83,12.83,0,0,1-.36,3.57,12.5,12.5,0,0,1-.16-3.58A12.94,12.94,0,0,1,141.78,383Z" transform="translate(-17.71)" style="fill:#263238"/><rect y="392.52" width="464.59" height="13.52" style="fill:#263238"/></g></svg>